<svg width="905" height="905" viewBox="0 0 905 905" fill="none" xmlns="http://www.w3.org/2000/svg">
<rect width="905" height="905" fill="#1A3782"/>
<circle cx="98" cy="103" r="37" fill="white"/>
<circle cx="142.048" cy="115.333" r="24.6667" fill="white"/>
<rect x="96.238" y="110.048" width="47.5714" height="29.9524" fill="white"/>
<circle cx="181" cy="208" r="37" fill="white"/>
<circle cx="225.048" cy="220.333" r="24.6667" fill="white"/>
<rect x="179.238" y="215.048" width="47.5714" height="29.9524" fill="white"/>
<circle cx="248.9" cy="114.9" r="23.9" fill="white"/>
<circle cx="277.353" cy="122.867" r="15.9334" fill="white"/>
<rect x="247.762" y="119.452" width="30.7286" height="19.3477" fill="white"/>
<circle cx="668.9" cy="219.9" r="23.9" fill="white"/>
<circle cx="697.352" cy="227.867" r="15.9334" fill="white"/>
<rect x="667.762" y="224.452" width="30.7286" height="19.3477" fill="white"/>
<circle cx="652.9" cy="106.9" r="37.9001" fill="white"/>
<circle cx="698.019" cy="119.533" r="25.2667" fill="white"/>
<rect x="651.095" y="114.119" width="48.7286" height="30.681" fill="white"/>
<circle cx="801.9" cy="171.9" r="23.9" fill="white"/>
<circle cx="830.352" cy="179.867" r="15.9334" fill="white"/>
<rect x="800.762" y="176.452" width="30.7286" height="19.3477" fill="white"/>
<rect y="451" width="905" height="454" fill="#9F9F9F"/>
</svg>
