<svg width="80" height="80" viewBox="0 0 80 80" fill="none" xmlns="http://www.w3.org/2000/svg">
<mask id="path-1-inside-1" fill="white">
<path fill-rule="evenodd" clip-rule="evenodd" d="M21.5004 68L58.4996 68L70.4348 50.9565L40 12L9.56524 50.9565L21.5004 68Z"/>
</mask>
<path d="M58.4996 68L58.4996 75L62.1434 75L64.2335 72.0153L58.4996 68ZM21.5004 68L15.7666 72.0153L17.8567 75L21.5004 75L21.5004 68ZM70.4348 50.9565L76.1687 54.9718L79.1399 50.7289L75.951 46.647L70.4348 50.9565ZM40 12L45.5162 7.69049L40 0.629788L34.4839 7.69048L40 12ZM9.56524 50.9565L4.04907 46.647L0.860109 50.7289L3.83137 54.9718L9.56524 50.9565ZM58.4996 61L21.5004 61L21.5004 75L58.4996 75L58.4996 61ZM64.7009 46.9412L52.7657 63.9847L64.2335 72.0153L76.1687 54.9718L64.7009 46.9412ZM34.4839 16.3095L64.9186 55.266L75.951 46.647L45.5162 7.69049L34.4839 16.3095ZM15.0814 55.266L45.5162 16.3095L34.4839 7.69048L4.04907 46.647L15.0814 55.266ZM27.2343 63.9847L15.2991 46.9412L3.83137 54.9718L15.7666 72.0153L27.2343 63.9847Z" fill="#222222" mask="url(#path-1-inside-1)"/>
</svg>
