<svg width="80" height="80" viewBox="0 0 80 80" fill="none" xmlns="http://www.w3.org/2000/svg">
<path d="M38.4306 47L30.9106 54.84V69H18.0306V13H30.9106V39.16L55.7106 13H70.1106L46.9106 37.96L71.4706 69H56.3506L38.4306 47Z" fill="#222222"/>
<path d="M38.4306 47L39.9813 45.7369L38.5529 43.9833L36.9873 45.6155L38.4306 47ZM30.9106 54.84L29.4673 53.4555L28.9106 54.0359V54.84H30.9106ZM30.9106 69V71H32.9106V69H30.9106ZM18.0306 69H16.0306V71H18.0306V69ZM18.0306 13V11H16.0306V13H18.0306ZM30.9106 13H32.9106V11H30.9106V13ZM30.9106 39.16H28.9106V44.1767L32.3621 40.536L30.9106 39.16ZM55.7106 13V11H54.8508L54.2592 11.624L55.7106 13ZM70.1106 13L71.5755 14.3616L74.7001 11H70.1106V13ZM46.9106 37.96L45.4457 36.5984L44.2774 37.8553L45.3422 39.201L46.9106 37.96ZM71.4706 69V71H75.6034L73.039 67.759L71.4706 69ZM56.3506 69L54.8 70.2631L55.4002 71H56.3506V69ZM36.9873 45.6155L29.4673 53.4555L32.354 56.2245L39.874 48.3844L36.9873 45.6155ZM28.9106 54.84V69H32.9106V54.84H28.9106ZM30.9106 67H18.0306V71H30.9106V67ZM20.0306 69V13H16.0306V69H20.0306ZM18.0306 15H30.9106V11H18.0306V15ZM28.9106 13V39.16H32.9106V13H28.9106ZM32.3621 40.536L57.1621 14.376L54.2592 11.624L29.4592 37.784L32.3621 40.536ZM55.7106 15H70.1106V11H55.7106V15ZM68.6457 11.6384L45.4457 36.5984L48.3755 39.3216L71.5755 14.3616L68.6457 11.6384ZM45.3422 39.201L69.9022 70.241L73.039 67.759L48.479 36.719L45.3422 39.201ZM71.4706 67H56.3506V71H71.4706V67ZM57.9013 67.7369L39.9813 45.7369L36.88 48.2631L54.8 70.2631L57.9013 67.7369Z" fill="black"/>
</svg>
