<svg width="80" height="80" viewBox="0 0 80 80" fill="none" xmlns="http://www.w3.org/2000/svg">
<path d="M24.2152 16.8419C30.0342 16.8419 35.3881 14.6592 39.6329 11C43.8777 14.6592 49.2316 16.8419 55.0506 16.8419C59.9636 16.8419 64.5452 15.286 68.4075 12.5991C68.7975 15.2918 69 18.053 69 20.866C69 42.4732 57.0502 61.0207 40 69C22.9499 61.0207 11 42.4732 11 20.866C11 18.2097 11.1806 15.5996 11.5291 13.0497C15.2467 15.4592 19.5836 16.8419 24.2152 16.8419Z" fill="#222222"/>
<path fill-rule="evenodd" clip-rule="evenodd" d="M40 11.3105V40H14.2929C12.1673 34.0737 11 27.6193 11 20.866C11 18.2097 11.1806 15.5996 11.5291 13.0497C15.2467 15.4592 19.5836 16.8419 24.2152 16.8419C30.0342 16.8419 35.3881 14.6592 39.6329 11C39.7544 11.1047 39.8767 11.2082 40 11.3105Z" fill="white"/>
<path fill-rule="evenodd" clip-rule="evenodd" d="M65.7071 40C61.0319 53.0348 51.7211 63.5146 40 69V40H65.7071Z" fill="white"/>
</svg>
