<svg width="80" height="80" viewBox="0 0 80 80" fill="none" xmlns="http://www.w3.org/2000/svg">
<path d="M56.9828 45.7586C56.9828 55.5569 49.0397 63.5 39.2414 63.5C29.4431 63.5 21.5 55.5569 21.5 45.7586C21.5 43.7094 22.4864 40.6992 24.4206 37.0002C26.2973 33.411 28.839 29.592 31.4406 26.0532C34.0328 22.5273 36.6329 19.349 38.5889 17.0485C38.8156 16.7818 39.0334 16.5273 39.2414 16.2855C39.4493 16.5273 39.6672 16.7818 39.8939 17.0485C41.8499 19.349 44.4499 22.5273 47.0421 26.0532C49.6437 29.592 52.1855 33.411 54.0622 37.0002C55.9963 40.6992 56.9828 43.7094 56.9828 45.7586Z" stroke="#0085FF" stroke-width="7"/>
</svg>
