<svg width="80" height="80" viewBox="0 0 80 80" fill="none" xmlns="http://www.w3.org/2000/svg">
<path d="M57.5 45.7586C57.5 52.5796 55.7876 56.1414 53.2612 58.1794C50.549 60.3673 46.0799 61.5 39 61.5C31.7855 61.5 27.3578 60.5772 24.6813 58.509C22.251 56.631 20.5 53.1579 20.5 45.7586C20.5 42.6012 21.6188 39.0333 23.5477 35.2962C25.4605 31.5901 28.0513 27.945 30.709 24.6962C33.3582 21.4578 36.0171 18.6819 38.0174 16.7135C38.3669 16.3696 38.6957 16.0509 39 15.7594C39.3043 16.0509 39.6331 16.3696 39.9826 16.7135C41.9829 18.6819 44.6418 21.4578 47.291 24.6962C49.9487 27.945 52.5395 31.5901 54.4523 35.2962C56.3812 39.0333 57.5 42.6012 57.5 45.7586Z" stroke="#0085FF" stroke-width="7"/>
</svg>
