<svg width="80" height="80" viewBox="0 0 80 80" fill="none" xmlns="http://www.w3.org/2000/svg">
<path d="M50.1631 40.072C52.2431 40.7307 53.8725 41.84 55.0511 43.4C56.2298 44.9253 56.8191 46.8147 56.8191 49.068C56.8191 52.2573 55.5711 54.7187 53.0751 56.452C50.6138 58.1507 47.0085 59 42.2591 59H23.4351V22.6H41.2191C45.6565 22.6 49.0538 23.4493 51.4111 25.148C53.8031 26.8467 54.9991 29.152 54.9991 32.064C54.9991 33.832 54.5658 35.4093 53.6991 36.796C52.8671 38.1827 51.6885 39.2747 50.1631 40.072ZM31.8071 28.944V37.524H40.1791C42.2591 37.524 43.8365 37.16 44.9111 36.432C45.9858 35.704 46.5231 34.6293 46.5231 33.208C46.5231 31.7867 45.9858 30.7293 44.9111 30.036C43.8365 29.308 42.2591 28.944 40.1791 28.944H31.8071ZM41.6351 52.656C43.8538 52.656 45.5178 52.292 46.6271 51.564C47.7711 50.836 48.3431 49.7093 48.3431 48.184C48.3431 45.168 46.1071 43.66 41.6351 43.66H31.8071V52.656H41.6351Z" fill="#0085FF"/>
</svg>
