<svg width="80" height="80" viewBox="0 0 80 80" fill="none" xmlns="http://www.w3.org/2000/svg">
<path d="M56.1741 39.88C59.3741 40.8933 61.8807 42.6 63.6941 45C65.5074 47.3467 66.4141 50.2533 66.4141 53.72C66.4141 58.6267 64.4941 62.4133 60.6541 65.08C56.8674 67.6933 51.3207 69 44.0141 69H15.0541V13H42.4141C49.2407 13 54.4674 14.3067 58.0941 16.92C61.7741 19.5333 63.6141 23.08 63.6141 27.56C63.6141 30.28 62.9474 32.7067 61.6141 34.84C60.3341 36.9733 58.5207 38.6533 56.1741 39.88ZM27.9341 22.76V35.96H40.8141C44.0141 35.96 46.4407 35.4 48.0941 34.28C49.7474 33.16 50.5741 31.5067 50.5741 29.32C50.5741 27.1333 49.7474 25.5067 48.0941 24.44C46.4407 23.32 44.0141 22.76 40.8141 22.76H27.9341ZM43.0541 59.24C46.4674 59.24 49.0274 58.68 50.7341 57.56C52.4941 56.44 53.3741 54.7067 53.3741 52.36C53.3741 47.72 49.9341 45.4 43.0541 45.4H27.9341V59.24H43.0541Z" fill="#0085FF"/>
<path d="M56.1741 39.88L55.2476 38.1075L50.9862 40.3351L55.5703 41.7867L56.1741 39.88ZM63.6941 45L62.0983 46.2057L62.1049 46.2143L62.1115 46.2229L63.6941 45ZM60.6541 65.08L61.7901 66.7261L61.7949 66.7227L60.6541 65.08ZM15.0541 69H13.0541V71H15.0541V69ZM15.0541 13V11H13.0541V13H15.0541ZM58.0941 16.92L56.9248 18.5427L56.9361 18.5507L58.0941 16.92ZM61.6141 34.84L59.9181 33.78L59.9084 33.7954L59.8991 33.811L61.6141 34.84ZM27.9341 22.76V20.76H25.9341V22.76H27.9341ZM27.9341 35.96H25.9341V37.96H27.9341V35.96ZM48.0941 24.44L46.9724 26.0958L46.9909 26.1084L47.0098 26.1206L48.0941 24.44ZM50.7341 57.56L49.6603 55.8727L49.6485 55.8802L49.6368 55.8879L50.7341 57.56ZM27.9341 45.4V43.4H25.9341V45.4H27.9341ZM27.9341 59.24H25.9341V61.24H27.9341V59.24ZM55.5703 41.7867C58.4228 42.69 60.5636 44.1744 62.0983 46.2057L65.2898 43.7943C63.1978 41.0256 60.3253 39.0967 56.7778 37.9733L55.5703 41.7867ZM62.1115 46.2229C63.6102 48.1624 64.4141 50.6181 64.4141 53.72H68.4141C68.4141 49.8886 67.4046 46.5309 65.2766 43.7771L62.1115 46.2229ZM64.4141 53.72C64.4141 58.0099 62.7842 61.1658 59.5133 63.4373L61.7949 66.7227C66.2039 63.6609 68.4141 59.2434 68.4141 53.72H64.4141ZM59.5181 63.4339C56.2093 65.7175 51.1346 67 44.0141 67V71C51.5069 71 57.5255 69.6692 61.7901 66.7261L59.5181 63.4339ZM44.0141 67H15.0541V71H44.0141V67ZM17.0541 69V13H13.0541V69H17.0541ZM15.0541 15H42.4141V11H15.0541V15ZM42.4141 15C49.0289 15 53.7755 16.2732 56.9248 18.5426L59.2633 15.2974C55.1593 12.3401 49.4526 11 42.4141 11V15ZM56.9361 18.5507C60.0926 20.7922 61.6141 23.7336 61.6141 27.56H65.6141C65.6141 22.4264 63.4556 18.2744 59.2521 15.2893L56.9361 18.5507ZM61.6141 27.56C61.6141 29.9368 61.0366 31.9903 59.9181 33.78L63.3101 35.9C64.8582 33.423 65.6141 30.6232 65.6141 27.56H61.6141ZM59.8991 33.811C58.8208 35.6082 57.2899 37.04 55.2476 38.1075L57.1006 41.6524C59.7516 40.2667 61.8473 38.3385 63.3291 35.869L59.8991 33.811ZM25.9341 22.76V35.96H29.9341V22.76H25.9341ZM27.9341 37.96H40.8141V33.96H27.9341V37.96ZM40.8141 37.96C44.1935 37.96 47.0866 37.3781 49.2158 35.9358L46.9724 32.6242C45.7948 33.4219 43.8346 33.96 40.8141 33.96V37.96ZM49.2158 35.9358C51.4771 34.404 52.5741 32.0959 52.5741 29.32H48.5741C48.5741 30.9174 48.0177 31.916 46.9724 32.6242L49.2158 35.9358ZM52.5741 29.32C52.5741 26.5435 51.4739 24.2404 49.1783 22.7594L47.0098 26.1206C48.0209 26.7729 48.5741 27.7232 48.5741 29.32H52.5741ZM49.2158 22.7842C47.0866 21.3419 44.1935 20.76 40.8141 20.76V24.76C43.8346 24.76 45.7948 25.2981 46.9724 26.0958L49.2158 22.7842ZM40.8141 20.76H27.9341V24.76H40.8141V20.76ZM43.0541 61.24C46.6225 61.24 49.6462 60.6661 51.8314 59.2321L49.6368 55.8879C48.4086 56.6939 46.3123 57.24 43.0541 57.24V61.24ZM51.8078 59.2473C54.225 57.7091 55.3741 55.2895 55.3741 52.36H51.3741C51.3741 54.1238 50.7631 55.1709 49.6603 55.8727L51.8078 59.2473ZM55.3741 52.36C55.3741 49.4672 54.2559 47.0624 51.9123 45.4819C49.7091 43.9959 46.6561 43.4 43.0541 43.4V47.4C46.332 47.4 48.4391 47.9641 49.6758 48.7981C50.7723 49.5376 51.3741 50.6128 51.3741 52.36H55.3741ZM43.0541 43.4H27.9341V47.4H43.0541V43.4ZM25.9341 45.4V59.24H29.9341V45.4H25.9341ZM27.9341 61.24H43.0541V57.24H27.9341V61.24Z" fill="black"/>
</svg>
