<svg width="80" height="80" viewBox="0 0 80 80" fill="none" xmlns="http://www.w3.org/2000/svg">
<path fill-rule="evenodd" clip-rule="evenodd" d="M39.2927 25.8718H11V69H54.1282V40.7255L39.2836 25.8809L39.2927 25.8718Z" fill="#FF4329"/>
<path fill-rule="evenodd" clip-rule="evenodd" d="M46.7286 18.436H18.4359V61.5642H61.5641V33.2896L46.7195 18.445L46.7286 18.436Z" fill="#FFD600"/>
<path fill-rule="evenodd" clip-rule="evenodd" d="M54.1645 11H25.8718V54.1282H69V25.8537L54.1554 11.0091L54.1645 11Z" fill="#0085FF"/>
<path fill-rule="evenodd" clip-rule="evenodd" d="M40.1402 19.8467C39.7285 19.5588 39.1877 19.5341 38.7515 19.7834C38.3153 20.0327 38.0619 20.5112 38.101 21.0121L40.0876 46.4778C40.1279 46.9945 40.4716 47.4378 40.962 47.6056C41.4523 47.7734 41.9956 47.6336 42.344 47.2499L50.117 38.6892L60.3205 36.6393C60.8302 36.5369 61.2297 36.1405 61.336 35.6316C61.4424 35.1227 61.235 34.5995 60.809 34.3016L40.1402 19.8467Z" fill="white"/>
</svg>
