<svg width="80" height="80" viewBox="0 0 80 80" fill="none" xmlns="http://www.w3.org/2000/svg">
<rect x="40" y="2" width="53.7401" height="53.7401" transform="rotate(45 40 2)" fill="white"/>
<circle r="17" transform="matrix(1 0 0 -1 58 22)" fill="#222222"/>
<path fill-rule="evenodd" clip-rule="evenodd" d="M54.2377 13.142C53.9883 12.9676 53.6607 12.9527 53.3964 13.1037C53.1322 13.2547 52.9787 13.5445 53.0024 13.848L54.2058 29.2744C54.2302 29.5874 54.4384 29.8559 54.7355 29.9576C55.0325 30.0592 55.3616 29.9745 55.5727 29.7421L60.2813 24.5563L66.4623 23.3145C66.7711 23.2525 67.0131 23.0123 67.0775 22.7041C67.1419 22.3958 67.0163 22.0789 66.7583 21.8984L54.2377 13.142Z" fill="white"/>
</svg>
