<svg width="80" height="80" viewBox="0 0 80 80" fill="none" xmlns="http://www.w3.org/2000/svg">
<path fill-rule="evenodd" clip-rule="evenodd" d="M39.2927 25.8718H11V69H54.1282V40.7255L39.2836 25.8809L39.2927 25.8718Z" fill="#FF4329"/>
<path fill-rule="evenodd" clip-rule="evenodd" d="M46.7286 18.436H18.4359V61.5642H61.5641V33.2896L46.7195 18.445L46.7286 18.436Z" fill="#FFD600"/>
<path fill-rule="evenodd" clip-rule="evenodd" d="M54.1645 11H25.8718V54.1282H69V25.8537L54.1554 11.0091L54.1645 11Z" fill="#0085FF"/>
<circle r="14.1257" transform="matrix(1 0 0 -1 47.1257 33.1257)" fill="white"/>
<path fill-rule="evenodd" clip-rule="evenodd" d="M45.5557 27.4936C46.1676 27.4936 46.6636 27.9896 46.6636 28.6014L46.6636 34.1407H52.2029C52.8147 34.1407 53.3107 34.6367 53.3107 35.2486C53.3107 35.8604 52.8147 36.3564 52.2029 36.3564H45.5557C44.9439 36.3564 44.4479 35.8604 44.4479 35.2486L44.4479 28.6014C44.4479 27.9896 44.9439 27.4936 45.5557 27.4936Z" fill="#222222"/>
</svg>
