<svg width="80" height="80" viewBox="0 0 80 80" fill="none" xmlns="http://www.w3.org/2000/svg">
<rect x="50.2513" y="75" width="20" height="20" transform="rotate(-180 50.2513 75)" stroke="#222222" stroke-width="10"/>
<path fill-rule="evenodd" clip-rule="evenodd" d="M25.2513 68.0779C16.1429 62.8963 10 53.1027 10 41.8743C10 25.2364 23.4877 11.7487 40.1257 11.7487C56.7636 11.7487 70.2513 25.2364 70.2513 41.8743C70.2513 52.9991 64.2213 62.7155 55.2513 67.9333V71.3529C65.9398 65.8575 73.2513 54.7198 73.2513 41.8743C73.2513 23.5795 58.4205 8.74866 40.1257 8.74865C21.8309 8.74865 7 23.5795 7 41.8743C7 54.8202 14.4263 66.0316 25.2513 71.4808V68.0779Z" fill="#222222"/>
</svg>
