<svg width="230" height="230" viewBox="0 0 230 230" fill="none" xmlns="http://www.w3.org/2000/svg">
<path d="M67 146H146C174.167 146 197 168.833 197 197V230H67V146Z" fill="#FF9A3D"/>
<circle cx="73.5" cy="147.5" r="41.5" fill="#FF9A3D"/>
<path d="M73 147C73 141.616 71.9395 136.284 69.8791 131.31C67.8186 126.336 64.7986 121.816 60.9914 118.009C57.1842 114.201 52.6644 111.181 47.69 109.121C42.7157 107.06 37.3842 106 32 106L32 147H73Z" fill="#FF9A3D"/>
<path d="M74 147C74 141.616 75.0605 136.284 77.1209 131.31C79.1814 126.336 82.2014 121.816 86.0086 118.009C89.8158 114.201 94.3356 111.181 99.31 109.121C104.284 107.06 109.616 106 115 106V147H74Z" fill="#FF9A3D"/>
<circle cx="54" cy="147" r="8" transform="rotate(-180 54 147)" fill="#222222"/>
<circle cx="82" cy="147" r="8" transform="rotate(-180 82 147)" fill="#222222"/>
<path d="M173 143C173 136.373 178.373 131 185 131V131C191.627 131 197 136.373 197 143V191H173V143Z" fill="#FF9A3D"/>
</svg>
