<svg width="230" height="230" viewBox="0 0 230 230" fill="none" xmlns="http://www.w3.org/2000/svg">
<circle cx="73.5" cy="115.5" r="41.5" fill="white"/>
<path d="M73 115C73 109.616 71.9395 104.284 69.8791 99.31C67.8186 94.3356 64.7986 89.8158 60.9914 86.0086C57.1842 82.2014 52.6644 79.1814 47.69 77.1209C42.7157 75.0605 37.3842 74 32 74L32 115H73Z" fill="white"/>
<path d="M74 115C74 109.616 75.0605 104.284 77.1209 99.31C79.1814 94.3356 82.2014 89.8158 86.0086 86.0086C89.8158 82.2014 94.3356 79.1814 99.31 77.1209C104.284 75.0605 109.616 74 115 74V115H74Z" fill="white"/>
<path d="M67 105H146C174.167 105 197 127.833 197 156V230H67V105Z" fill="white"/>
<path d="M173 49C173 42.3726 178.373 37 185 37V37C191.627 37 197 42.3726 197 49V159H173V49Z" fill="white"/>
<circle cx="54" cy="115" r="8" fill="#222222"/>
<circle cx="82" cy="115" r="8" fill="#222222"/>
</svg>
