<svg width="230" height="230" viewBox="0 0 230 230" fill="none" xmlns="http://www.w3.org/2000/svg">
<path d="M67 146H146C174.167 146 197 168.833 197 197V230H67V146Z" fill="#9F9F9F"/>
<circle cx="73.5" cy="167.5" r="41.5" fill="#9F9F9F"/>
<path d="M73 167C73 161.616 71.9395 156.284 69.8791 151.31C67.8186 146.336 64.7986 141.816 60.9914 138.009C57.1842 134.201 52.6644 131.181 47.69 129.121C42.7157 127.06 37.3842 126 32 126L32 167H73Z" fill="#9F9F9F"/>
<path d="M74 167C74 161.616 75.0605 156.284 77.1209 151.31C79.1814 146.336 82.2014 141.816 86.0086 138.009C89.8158 134.201 94.3356 131.181 99.31 129.121C104.284 127.06 109.616 126 115 126V167H74Z" fill="#9F9F9F"/>
<path d="M46 167C46 168.051 46.2069 169.091 46.609 170.061C47.011 171.032 47.6003 171.914 48.3431 172.657C49.086 173.4 49.9679 173.989 50.9385 174.391C51.9091 174.793 52.9494 175 54 175C55.0506 175 56.0909 174.793 57.0615 174.391C58.0321 173.989 58.914 173.4 59.6569 172.657C60.3997 171.914 60.989 171.032 61.391 170.061C61.7931 169.091 62 168.051 62 167L54 167L46 167Z" fill="#222222"/>
<path d="M74 167C74 169.122 74.8429 171.157 76.3431 172.657C77.8434 174.157 79.8783 175 82 175C84.1217 175 86.1566 174.157 87.6569 172.657C89.1571 171.157 90 169.122 90 167L82 167L74 167Z" fill="#222222"/>
<path d="M212 206C218.627 206 224 211.373 224 218V218C224 224.627 218.627 230 212 230L188 230L188 206L212 206Z" fill="#9F9F9F"/>
</svg>
