<svg width="230" height="364" viewBox="0 0 230 364" fill="none" xmlns="http://www.w3.org/2000/svg">
<ellipse rx="61" ry="62" transform="matrix(1 0 0 -1 115 79)" fill="#FCFF81"/>
<rect x="58" y="106" width="114" height="237" fill="#883BEB"/>
<circle r="11" transform="matrix(1 0 0 -1 126 186)" fill="#222222"/>
<circle r="11" transform="matrix(1 0 0 -1 104 186)" fill="#222222"/>
<circle r="11" transform="matrix(1 0 0 -1 115 134)" fill="white"/>
<circle r="11" transform="matrix(1 0 0 -1 94 130)" fill="white"/>
<circle r="11" transform="matrix(1 0 0 -1 136 130)" fill="white"/>
<circle r="11" transform="matrix(1 0 0 -1 76 117)" fill="white"/>
<circle r="11" transform="matrix(1 0 0 -1 154 117)" fill="white"/>
<ellipse rx="39" ry="39.5" transform="matrix(1 0 0 -1 115 84.5)" fill="#222222"/>
<rect x="58" y="343" width="114" height="21" fill="#222222"/>
</svg>
