<svg width="230" height="364" viewBox="0 0 230 364" fill="none" xmlns="http://www.w3.org/2000/svg">
<path d="M95.1307 24.9364L135.004 24.9364L163.198 53.1307L163.198 93.0036L135.004 121.198L95.1307 121.198L66.9364 93.0036L66.9364 53.1307L95.1307 24.9364Z" fill="#FF9A3D"/>
<rect x="58" y="106" width="114" height="77" fill="#FF9A3D"/>
<ellipse rx="39" ry="39.5" transform="matrix(1 0 0 -1 115 84.5)" fill="#222222"/>
<rect x="178" y="130" width="48" height="53" fill="#7CC0FF"/>
<rect x="178" y="153" width="48" height="30" fill="#FF9A3D"/>
<circle r="26.5" transform="matrix(1 0 0 -1 34.5 144.5)" fill="#FF9A3D"/>
<circle r="11" transform="matrix(1 0 0 -1 172 172)" fill="#222222"/>
<circle r="11" transform="matrix(1 0 0 -1 50 162)" fill="#222222"/>
</svg>
