<svg width="230" height="364" viewBox="0 0 230 364" fill="none" xmlns="http://www.w3.org/2000/svg">
<rect x="58" y="106" width="114" height="180" fill="#E64EFF"/>
<rect x="58" y="286" width="114" height="57" fill="#222222"/>
<rect x="58" y="343" width="114" height="21" fill="#FFD600"/>
<rect x="58" y="242" width="114" height="17" fill="#FFD600"/>
<circle r="11" transform="matrix(1 0 0 -1 172 175)" fill="#222222"/>
<circle r="11" transform="matrix(1 0 0 -1 53 175)" fill="#222222"/>
<path d="M55.3987 20.3987H84.196V49.196H55.3987V20.3987Z" fill="#FFD600"/>
<path d="M115.5 117L146.5 148L115.5 179L84.5 148L115.5 117Z" fill="#222222"/>
<path fill-rule="evenodd" clip-rule="evenodd" d="M137.238 138.738L146.5 148L115.5 179L84.5 148L93.2922 139.208C103.351 145.284 111.095 154.882 114.867 166.321C118.738 154.582 126.792 144.782 137.238 138.738Z" fill="#FFD600"/>
<ellipse rx="39" ry="39.5" transform="matrix(1 0 0 -1 115 84.5)" fill="#222222"/>
<path fill-rule="evenodd" clip-rule="evenodd" d="M160 75C160 50.1472 139.853 30 115 30C90.1472 30 70 50.1472 70 75C70 86.8486 74.5792 97.6276 82.0645 105.664C78.2243 99.5462 76 92.2862 76 84.5C76 64.8905 90.1085 48.6184 108.606 45.5284C108.208 47.7914 108 50.1211 108 52.5C108 74.3152 125.461 92 147 92C149.178 92 151.314 91.8192 153.394 91.4716C152.49 96.6157 150.602 101.415 147.936 105.664C155.421 97.6276 160 86.8486 160 75Z" fill="#FFD600"/>
</svg>
