<svg width="905" height="1810" viewBox="0 0 905 1810" fill="none" xmlns="http://www.w3.org/2000/svg">
<circle cx="137.75" cy="774.75" r="36.75" fill="white"/>
<circle cx="181.5" cy="787" r="24.5" fill="white"/>
<rect x="136" y="781.75" width="47.25" height="29.75" fill="white"/>
<circle cx="276.35" cy="607.75" r="21.3498" fill="white"/>
<circle cx="301.766" cy="614.867" r="14.2332" fill="white"/>
<rect x="275.333" y="611.817" width="27.4498" height="17.2832" fill="white"/>
<circle cx="617.35" cy="130.35" r="21.3498" fill="white"/>
<circle cx="642.766" cy="137.466" r="14.2332" fill="white"/>
<rect x="616.333" y="134.417" width="27.4498" height="17.2832" fill="white"/>
<circle cx="133.35" cy="474.35" r="21.3498" fill="white"/>
<circle cx="158.766" cy="481.466" r="14.2332" fill="white"/>
<rect x="132.333" y="478.417" width="27.4498" height="17.2832" fill="white"/>
<circle cx="719.25" cy="763.25" r="47.2502" fill="white"/>
<circle cx="775.501" cy="779" r="31.5001" fill="white"/>
<rect x="717" y="772.25" width="60.7502" height="38.2501" fill="white"/>
<circle cx="286.55" cy="322.35" r="39.5502" fill="white"/>
<circle cx="333.634" cy="335.533" r="26.3668" fill="white"/>
<rect x="284.667" y="329.883" width="50.8502" height="32.0168" fill="white"/>
<circle cx="765.408" cy="345.55" r="23.5502" fill="white"/>
<circle cx="793.444" cy="353.4" r="15.7001" fill="white"/>
<rect x="764.286" y="350.036" width="30.2788" height="19.0644" fill="white"/>
<circle cx="635.693" cy="546.55" r="34.5502" fill="white"/>
<circle cx="676.824" cy="558.067" r="23.0335" fill="white"/>
<rect x="634.048" y="553.131" width="44.4217" height="27.9692" fill="white"/>
<circle cx="136.451" cy="151.55" r="30.4497" fill="white"/>
<circle cx="172.701" cy="161.7" r="20.2998" fill="white"/>
<rect x="135.001" y="157.35" width="39.1496" height="24.6497" fill="white"/>
<circle cx="137.75" cy="1679.75" r="36.75" fill="white"/>
<circle cx="181.5" cy="1692" r="24.5" fill="white"/>
<rect x="136" y="1686.75" width="47.25" height="29.75" fill="white"/>
<circle cx="276.35" cy="1512.75" r="21.3498" fill="white"/>
<circle cx="301.766" cy="1519.87" r="14.2332" fill="white"/>
<rect x="275.333" y="1516.82" width="27.4498" height="17.2832" fill="white"/>
<circle cx="617.35" cy="1035.35" r="21.3498" fill="white"/>
<circle cx="642.766" cy="1042.47" r="14.2332" fill="white"/>
<rect x="616.333" y="1039.42" width="27.4498" height="17.2832" fill="white"/>
<circle cx="133.35" cy="1379.35" r="21.3498" fill="white"/>
<circle cx="158.766" cy="1386.47" r="14.2332" fill="white"/>
<rect x="132.333" y="1383.42" width="27.4498" height="17.2832" fill="white"/>
<circle cx="719.25" cy="1668.25" r="47.2502" fill="white"/>
<circle cx="775.501" cy="1684" r="31.5001" fill="white"/>
<rect x="717" y="1677.25" width="60.7502" height="38.2501" fill="white"/>
<circle cx="286.55" cy="1227.35" r="39.5502" fill="white"/>
<circle cx="333.634" cy="1240.53" r="26.3668" fill="white"/>
<rect x="284.667" y="1234.88" width="50.8502" height="32.0168" fill="white"/>
<circle cx="765.408" cy="1250.55" r="23.5502" fill="white"/>
<circle cx="793.444" cy="1258.4" r="15.7001" fill="white"/>
<rect x="764.286" y="1255.04" width="30.2788" height="19.0644" fill="white"/>
<circle cx="635.693" cy="1451.55" r="34.5502" fill="white"/>
<circle cx="676.824" cy="1463.07" r="23.0335" fill="white"/>
<rect x="634.048" y="1458.13" width="44.4217" height="27.9692" fill="white"/>
<circle cx="136.451" cy="1056.55" r="30.4497" fill="white"/>
<circle cx="172.701" cy="1066.7" r="20.2998" fill="white"/>
<rect x="135.001" y="1062.35" width="39.1496" height="24.6497" fill="white"/>
</svg>
