<svg width="80" height="80" viewBox="0 0 80 80" fill="none" xmlns="http://www.w3.org/2000/svg">
<mask id="path-1-inside-1" fill="white">
<path fill-rule="evenodd" clip-rule="evenodd" d="M27.3963 40L13.0421 54.3542L25.3457 66.6579L39.7 52.3036L54.0542 66.6579L66.3579 54.3542L52.0036 40L66.3579 25.6457L54.0542 13.342L39.7 27.6963L25.3457 13.342L13.0421 25.6457L27.3963 40Z"/>
</mask>
<path d="M13.0421 54.3542L11.6278 52.94L10.2136 54.3542L11.6278 55.7684L13.0421 54.3542ZM27.3963 40L28.8105 41.4142L30.2247 40L28.8105 38.5858L27.3963 40ZM25.3457 66.6579L23.9315 68.0721L25.3457 69.4863L26.7599 68.0721L25.3457 66.6579ZM39.7 52.3036L41.1142 50.8894L39.7 49.4752L38.2858 50.8894L39.7 52.3036ZM54.0542 66.6579L52.64 68.0721L54.0542 69.4863L55.4685 68.0721L54.0542 66.6579ZM66.3579 54.3542L67.7721 55.7684L69.1863 54.3542L67.7721 52.94L66.3579 54.3542ZM52.0036 40L50.5894 38.5858L49.1752 40L50.5894 41.4142L52.0036 40ZM66.3579 25.6457L67.7721 27.0599L69.1863 25.6457L67.7721 24.2315L66.3579 25.6457ZM54.0542 13.342L55.4685 11.9278L54.0542 10.5136L52.64 11.9278L54.0542 13.342ZM39.7 27.6963L38.2858 29.1105L39.7 30.5247L41.1142 29.1105L39.7 27.6963ZM25.3457 13.342L26.7599 11.9278L25.3457 10.5136L23.9315 11.9278L25.3457 13.342ZM13.0421 25.6457L11.6278 24.2315L10.2136 25.6457L11.6278 27.0599L13.0421 25.6457ZM14.4563 55.7684L28.8105 41.4142L25.9821 38.5858L11.6278 52.94L14.4563 55.7684ZM26.7599 65.2437L14.4563 52.94L11.6278 55.7684L23.9315 68.0721L26.7599 65.2437ZM38.2858 50.8894L23.9315 65.2437L26.7599 68.0721L41.1142 53.7178L38.2858 50.8894ZM55.4685 65.2437L41.1142 50.8894L38.2858 53.7178L52.64 68.0721L55.4685 65.2437ZM64.9437 52.94L52.64 65.2437L55.4685 68.0721L67.7721 55.7684L64.9437 52.94ZM50.5894 41.4142L64.9437 55.7684L67.7721 52.94L53.4178 38.5858L50.5894 41.4142ZM64.9437 24.2315L50.5894 38.5858L53.4178 41.4142L67.7721 27.0599L64.9437 24.2315ZM52.64 14.7563L64.9437 27.0599L67.7721 24.2315L55.4685 11.9278L52.64 14.7563ZM41.1142 29.1105L55.4685 14.7563L52.64 11.9278L38.2858 26.2821L41.1142 29.1105ZM23.9315 14.7563L38.2858 29.1105L41.1142 26.2821L26.7599 11.9278L23.9315 14.7563ZM14.4563 27.0599L26.7599 14.7563L23.9315 11.9278L11.6278 24.2315L14.4563 27.0599ZM28.8105 38.5858L14.4563 24.2315L11.6278 27.0599L25.9821 41.4142L28.8105 38.5858Z" fill="#222222" mask="url(#path-1-inside-1)"/>
</svg>
