<svg width="80" height="80" viewBox="0 0 80 80" fill="none" xmlns="http://www.w3.org/2000/svg">
<mask id="path-2-inside-1" fill="white">
<path fill-rule="evenodd" clip-rule="evenodd" d="M51.2 11H28V28.4H10.6V51.6H28V69H51.2V51.6H68.6V28.4H51.2V11Z"/>
</mask>
<path d="M28 11V8H25V11H28ZM51.2 11H54.2V8H51.2V11ZM28 28.4V31.4H31V28.4H28ZM10.6 28.4V25.4H7.59998V28.4H10.6ZM10.6 51.6H7.59998V54.6H10.6V51.6ZM28 51.6H31V48.6H28V51.6ZM28 69H25V72H28V69ZM51.2 69V72H54.2V69H51.2ZM51.2 51.6V48.6H48.2V51.6H51.2ZM68.6 51.6V54.6H71.6V51.6H68.6ZM68.6 28.4H71.6V25.4H68.6V28.4ZM51.2 28.4H48.2V31.4H51.2V28.4ZM28 14H51.2V8H28V14ZM31 28.4V11H25V28.4H31ZM10.6 31.4H28V25.4H10.6V31.4ZM13.6 51.6V28.4H7.59998V51.6H13.6ZM28 48.6H10.6V54.6H28V48.6ZM31 69V51.6H25V69H31ZM51.2 66H28V72H51.2V66ZM48.2 51.6V69H54.2V51.6H48.2ZM68.6 48.6H51.2V54.6H68.6V48.6ZM65.6 28.4V51.6H71.6V28.4H65.6ZM51.2 31.4H68.6V25.4H51.2V31.4ZM48.2 11V28.4H54.2V11H48.2Z" fill="#222222" mask="url(#path-2-inside-1)"/>
</svg>
