<svg width="80" height="80" viewBox="0 0 80 80" fill="none" xmlns="http://www.w3.org/2000/svg">
<mask id="path-2-inside-1" fill="white">
<path fill-rule="evenodd" clip-rule="evenodd" d="M53.1 11H27V26.95L11.05 26.95V53.05H27V69H53.1V53.05H69.05V26.95L53.1 26.95V11Z"/>
</mask>
<path d="M27 11V8H24V11H27ZM53.1 11H56.1V8H53.1V11ZM27 26.95L27 29.95L30 29.95V26.95H27ZM11.05 26.95L11.05 23.95L8.05005 23.95V26.95H11.05ZM11.05 53.05H8.05005V56.05H11.05V53.05ZM27 53.05H30V50.05H27V53.05ZM27 69H24V72H27V69ZM53.1 69V72H56.1V69H53.1ZM53.1 53.05V50.05H50.1V53.05H53.1ZM69.05 53.05V56.05H72.05V53.05H69.05ZM69.05 26.95H72.05V23.95L69.05 23.95L69.05 26.95ZM53.1 26.95H50.1V29.95L53.1 29.95L53.1 26.95ZM27 14H53.1V8H27V14ZM30 26.95V11H24V26.95H30ZM11.05 29.95L27 29.95L27 23.95L11.05 23.95L11.05 29.95ZM14.05 53.05V26.95H8.05005V53.05H14.05ZM27 50.05H11.05V56.05H27V50.05ZM30 69V53.05H24V69H30ZM53.1 66H27V72H53.1V66ZM50.1 53.05V69H56.1V53.05H50.1ZM69.05 50.05H53.1V56.05H69.05V50.05ZM66.05 26.95V53.05H72.05V26.95H66.05ZM53.1 29.95L69.05 29.95L69.05 23.95L53.1 23.95L53.1 29.95ZM50.1 11V26.95H56.1V11H50.1Z" fill="#222222" mask="url(#path-2-inside-1)"/>
</svg>
