<svg width="80" height="80" viewBox="0 0 80 80" fill="none" xmlns="http://www.w3.org/2000/svg">
<mask id="path-2-inside-1" fill="white">
<path fill-rule="evenodd" clip-rule="evenodd" d="M27.3964 40L13.0421 54.3543L25.3458 66.6579L39.7 52.3037L54.0543 66.6579L66.358 54.3543L52.0037 40L66.358 25.6457L54.0543 13.3421L39.7 27.6963L25.3458 13.3421L13.0421 25.6457L27.3964 40Z"/>
</mask>
<path d="M13.0421 54.3543L10.9208 52.2329L8.79947 54.3543L10.9208 56.4756L13.0421 54.3543ZM27.3964 40L29.5177 42.1213L31.639 40L29.5177 37.8787L27.3964 40ZM25.3458 66.6579L23.2245 68.7792L25.3458 70.9006L27.4671 68.7792L25.3458 66.6579ZM39.7 52.3037L41.8214 50.1823L39.7 48.061L37.5787 50.1823L39.7 52.3037ZM54.0543 66.6579L51.933 68.7792L54.0543 70.9006L56.1756 68.7792L54.0543 66.6579ZM66.358 54.3543L68.4793 56.4756L70.6006 54.3543L68.4793 52.2329L66.358 54.3543ZM52.0037 40L49.8824 37.8787L47.7611 40L49.8824 42.1213L52.0037 40ZM66.358 25.6457L68.4793 27.767L70.6006 25.6457L68.4793 23.5244L66.358 25.6457ZM54.0543 13.3421L56.1756 11.2208L54.0543 9.09943L51.933 11.2208L54.0543 13.3421ZM39.7 27.6963L37.5787 29.8177L39.7 31.939L41.8214 29.8177L39.7 27.6963ZM25.3458 13.3421L27.4671 11.2208L25.3458 9.09943L23.2245 11.2208L25.3458 13.3421ZM13.0421 25.6457L10.9208 23.5244L8.79947 25.6457L10.9208 27.7671L13.0421 25.6457ZM15.1634 56.4756L29.5177 42.1213L25.2751 37.8787L10.9208 52.2329L15.1634 56.4756ZM27.4671 64.5366L15.1634 52.2329L10.9208 56.4756L23.2245 68.7792L27.4671 64.5366ZM37.5787 50.1823L23.2245 64.5366L27.4671 68.7792L41.8214 54.425L37.5787 50.1823ZM56.1756 64.5366L41.8214 50.1823L37.5787 54.425L51.933 68.7792L56.1756 64.5366ZM64.2366 52.2329L51.933 64.5366L56.1756 68.7792L68.4793 56.4756L64.2366 52.2329ZM49.8824 42.1213L64.2366 56.4756L68.4793 52.2329L54.125 37.8787L49.8824 42.1213ZM64.2366 23.5244L49.8824 37.8787L54.125 42.1213L68.4793 27.767L64.2366 23.5244ZM51.933 15.4634L64.2366 27.767L68.4793 23.5244L56.1756 11.2208L51.933 15.4634ZM41.8214 29.8177L56.1756 15.4634L51.933 11.2208L37.5787 25.575L41.8214 29.8177ZM23.2245 15.4634L37.5787 29.8177L41.8214 25.575L27.4671 11.2208L23.2245 15.4634ZM15.1634 27.7671L27.4671 15.4634L23.2245 11.2208L10.9208 23.5244L15.1634 27.7671ZM29.5177 37.8787L15.1634 23.5244L10.9208 27.7671L25.2751 42.1213L29.5177 37.8787Z" fill="#222222" mask="url(#path-2-inside-1)"/>
</svg>
