<svg width="87" height="83" viewBox="0 0 87 83" fill="none" xmlns="http://www.w3.org/2000/svg">
<path d="M18.2803 51.23L13.0303 56.41V66H2.11031V14.06H13.0303V43.46L28.9903 28.34H42.0103L26.3303 44.3L43.4103 66H30.1803L18.2803 51.23ZM83.5138 28.34L66.5038 68.31C64.7771 72.65 62.6304 75.7067 60.0638 77.48C57.5438 79.2533 54.4871 80.14 50.8938 80.14C48.9338 80.14 46.9971 79.8367 45.0838 79.23C43.1704 78.6233 41.6071 77.7833 40.3937 76.71L44.3838 68.94C45.2238 69.6867 46.1804 70.27 47.2538 70.69C48.3738 71.11 49.4704 71.32 50.5438 71.32C52.0371 71.32 53.2504 70.9467 54.1838 70.2C55.1171 69.5 55.9571 68.31 56.7038 66.63L56.8438 66.28L40.5337 28.34H51.8038L62.3738 53.89L73.0138 28.34H83.5138Z" fill="#CCB152"/>
<path d="M18.2803 51.23L19.8377 49.9752L18.4501 48.2529L16.8756 49.8063L18.2803 51.23ZM13.0303 56.41L11.6256 54.9863L11.0303 55.5737V56.41H13.0303ZM13.0303 66V68H15.0303V66H13.0303ZM2.11031 66H0.110313V68H2.11031V66ZM2.11031 14.06V12.06H0.110313V14.06H2.11031ZM13.0303 14.06H15.0303V12.06H13.0303V14.06ZM13.0303 43.46H11.0303V48.1097L14.4058 44.9119L13.0303 43.46ZM28.9903 28.34V26.34H28.1934L27.6148 26.8881L28.9903 28.34ZM42.0103 28.34L43.437 29.7416L46.779 26.34H42.0103V28.34ZM26.3303 44.3L24.9036 42.8984L23.6701 44.1539L24.7587 45.537L26.3303 44.3ZM43.4103 66V68H47.5297L44.9819 64.763L43.4103 66ZM30.1803 66L28.6229 67.2548L29.2233 68H30.1803V66ZM16.8756 49.8063L11.6256 54.9863L14.435 57.8337L19.685 52.6537L16.8756 49.8063ZM11.0303 56.41V66H15.0303V56.41H11.0303ZM13.0303 64H2.11031V68H13.0303V64ZM4.11031 66V14.06H0.110313V66H4.11031ZM2.11031 16.06H13.0303V12.06H2.11031V16.06ZM11.0303 14.06V43.46H15.0303V14.06H11.0303ZM14.4058 44.9119L30.3658 29.7919L27.6148 26.8881L11.6548 42.0081L14.4058 44.9119ZM28.9903 30.34H42.0103V26.34H28.9903V30.34ZM40.5836 26.9384L24.9036 42.8984L27.757 45.7016L43.437 29.7416L40.5836 26.9384ZM24.7587 45.537L41.8387 67.237L44.9819 64.763L27.9019 43.063L24.7587 45.537ZM43.4103 64H30.1803V68H43.4103V64ZM31.7377 64.7452L19.8377 49.9752L16.7229 52.4848L28.6229 67.2548L31.7377 64.7452ZM83.5138 28.34L85.354 29.1232L86.5385 26.34H83.5138V28.34ZM66.5038 68.31L64.6635 67.5268L64.6542 67.5486L64.6454 67.5707L66.5038 68.31ZM60.0638 77.48L58.9269 75.8345L58.9198 75.8394L58.9128 75.8444L60.0638 77.48ZM45.0838 79.23L45.6882 77.3235L45.0838 79.23ZM40.3937 76.71L38.6146 75.7964L37.9049 77.1785L39.0686 78.208L40.3937 76.71ZM44.3838 68.94L45.7125 67.4452L43.7835 65.7306L42.6046 68.0264L44.3838 68.94ZM47.2538 70.69L46.525 72.5525L46.5382 72.5577L46.5515 72.5627L47.2538 70.69ZM54.1838 70.2L52.9838 68.6L52.9588 68.6187L52.9344 68.6383L54.1838 70.2ZM56.7038 66.63L58.5314 67.4423L58.5467 67.4078L58.5607 67.3728L56.7038 66.63ZM56.8438 66.28L58.7007 67.0228L59.0089 66.2524L58.6812 65.4901L56.8438 66.28ZM40.5337 28.34V26.34H37.497L38.6963 29.1299L40.5337 28.34ZM51.8038 28.34L53.6518 27.5754L53.1407 26.34H51.8038V28.34ZM62.3738 53.89L60.5257 54.6546L62.3677 59.1071L64.2201 54.6589L62.3738 53.89ZM73.0138 28.34V26.34H71.6801L71.1674 27.5711L73.0138 28.34ZM81.6735 27.5568L64.6635 67.5268L68.344 69.0932L85.354 29.1232L81.6735 27.5568ZM64.6454 67.5707C62.9965 71.7152 61.0448 74.3712 58.9269 75.8345L61.2006 79.1255C64.216 77.0421 66.5576 73.5848 68.3621 69.0493L64.6454 67.5707ZM58.9128 75.8444C56.7831 77.343 54.1455 78.14 50.8938 78.14V82.14C54.8286 82.14 58.3044 81.1636 61.2147 79.1156L58.9128 75.8444ZM50.8938 78.14C49.1438 78.14 47.4108 77.8697 45.6882 77.3235L44.4793 81.1365C46.5833 81.8036 48.7237 82.14 50.8938 82.14V78.14ZM45.6882 77.3235C43.9792 76.7816 42.6795 76.0618 41.7189 75.212L39.0686 78.208C40.5347 79.5049 42.3617 80.465 44.4793 81.1365L45.6882 77.3235ZM42.1729 77.6236L46.1629 69.8536L42.6046 68.0264L38.6146 75.7964L42.1729 77.6236ZM43.055 70.4348C44.0762 71.3426 45.2372 72.0486 46.525 72.5525L47.9825 68.8275C47.1236 68.4914 46.3713 68.0308 45.7125 67.4452L43.055 70.4348ZM46.5515 72.5627C47.8705 73.0573 49.2047 73.32 50.5438 73.32V69.32C49.7361 69.32 48.877 69.1627 47.956 68.8173L46.5515 72.5627ZM50.5438 73.32C52.3753 73.32 54.0642 72.8569 55.4331 71.7617L52.9344 68.6383C52.4367 69.0364 51.6988 69.32 50.5438 69.32V73.32ZM55.3838 71.8C56.7038 70.81 57.7184 69.2716 58.5314 67.4423L54.8761 65.8177C54.1958 67.3484 53.5304 68.19 52.9838 68.6L55.3838 71.8ZM58.5607 67.3728L58.7007 67.0228L54.9868 65.5372L54.8468 65.8872L58.5607 67.3728ZM58.6812 65.4901L42.3712 27.5501L38.6963 29.1299L55.0063 67.0699L58.6812 65.4901ZM40.5337 30.34H51.8038V26.34H40.5337V30.34ZM49.9557 29.1046L60.5257 54.6546L64.2218 53.1254L53.6518 27.5754L49.9557 29.1046ZM64.2201 54.6589L74.8601 29.1089L71.1674 27.5711L60.5274 53.1211L64.2201 54.6589ZM73.0138 30.34H83.5138V26.34H73.0138V30.34Z" fill="black"/>
</svg>
