<svg width="92" height="80" viewBox="0 0 92 80" fill="none" xmlns="http://www.w3.org/2000/svg">
<path d="M18.4395 51.23L13.1895 56.41V66H2.26949V14.06H13.1895V43.46L29.1495 28.34H42.1695L26.4895 44.3L43.5695 66H30.3395L18.4395 51.23ZM70.7404 27.78C74.2404 27.78 77.4138 28.5967 80.2604 30.23C83.1538 31.8167 85.4171 34.08 87.0504 37.02C88.6838 39.9133 89.5004 43.2967 89.5004 47.17C89.5004 51.0433 88.6838 54.45 87.0504 57.39C85.4171 60.2833 83.1538 62.5467 80.2604 64.18C77.4138 65.7667 74.2404 66.56 70.7404 66.56C65.5604 66.56 61.6171 64.9267 58.9104 61.66V66H48.4804V14.06H59.4004V32.33C62.1538 29.2967 65.9338 27.78 70.7404 27.78ZM68.8504 57.6C71.6504 57.6 73.9371 56.6667 75.7104 54.8C77.5304 52.8867 78.4404 50.3433 78.4404 47.17C78.4404 43.9967 77.5304 41.4767 75.7104 39.61C73.9371 37.6967 71.6504 36.74 68.8504 36.74C66.0504 36.74 63.7404 37.6967 61.9204 39.61C60.1471 41.4767 59.2604 43.9967 59.2604 47.17C59.2604 50.3433 60.1471 52.8867 61.9204 54.8C63.7404 56.6667 66.0504 57.6 68.8504 57.6Z" fill="#1A3782"/>
<path d="M18.4395 51.23L19.9969 49.9752L18.6092 48.2529L17.0348 49.8063L18.4395 51.23ZM13.1895 56.41L11.7848 54.9863L11.1895 55.5737V56.41H13.1895ZM13.1895 66V68H15.1895V66H13.1895ZM2.26949 66H0.269492V68H2.26949V66ZM2.26949 14.06V12.06H0.269492V14.06H2.26949ZM13.1895 14.06H15.1895V12.06H13.1895V14.06ZM13.1895 43.46H11.1895V48.1097L14.565 44.9119L13.1895 43.46ZM29.1495 28.34V26.34H28.3525L27.774 26.8881L29.1495 28.34ZM42.1695 28.34L43.5962 29.7416L46.9381 26.34H42.1695V28.34ZM26.4895 44.3L25.0628 42.8984L23.8293 44.1539L24.9179 45.537L26.4895 44.3ZM43.5695 66V68H47.6889L45.1411 64.763L43.5695 66ZM30.3395 66L28.7821 67.2548L29.3825 68H30.3395V66ZM17.0348 49.8063L11.7848 54.9863L14.5942 57.8337L19.8442 52.6537L17.0348 49.8063ZM11.1895 56.41V66H15.1895V56.41H11.1895ZM13.1895 64H2.26949V68H13.1895V64ZM4.26949 66V14.06H0.269492V66H4.26949ZM2.26949 16.06H13.1895V12.06H2.26949V16.06ZM11.1895 14.06V43.46H15.1895V14.06H11.1895ZM14.565 44.9119L30.525 29.7919L27.774 26.8881L11.814 42.0081L14.565 44.9119ZM29.1495 30.34H42.1695V26.34H29.1495V30.34ZM40.7428 26.9384L25.0628 42.8984L27.9162 45.7016L43.5962 29.7416L40.7428 26.9384ZM24.9179 45.537L41.9979 67.237L45.1411 64.763L28.0611 43.063L24.9179 45.537ZM43.5695 64H30.3395V68H43.5695V64ZM31.8969 64.7452L19.9969 49.9752L16.8821 52.4848L28.7821 67.2548L31.8969 64.7452ZM80.2604 30.23L79.2651 31.9647L79.2818 31.9743L79.2988 31.9836L80.2604 30.23ZM87.0504 37.02L85.3021 37.9913L85.3088 38.0032L87.0504 37.02ZM87.0504 57.39L88.7921 58.3732L88.7987 58.3613L87.0504 57.39ZM80.2604 64.18L81.2342 65.927L81.2436 65.9216L80.2604 64.18ZM58.9104 61.66L60.4505 60.384L56.9104 56.1115V61.66H58.9104ZM58.9104 66V68H60.9104V66H58.9104ZM48.4804 66H46.4804V68H48.4804V66ZM48.4804 14.06V12.06H46.4804V14.06H48.4804ZM59.4004 14.06H61.4004V12.06H59.4004V14.06ZM59.4004 32.33H57.4004V37.5091L60.8813 33.6742L59.4004 32.33ZM75.7104 54.8L74.2613 53.4216L74.2604 53.4225L75.7104 54.8ZM75.7104 39.61L74.2436 40.9695L74.2608 40.9881L74.2784 41.0062L75.7104 39.61ZM61.9204 39.61L60.4713 38.2316L60.4704 38.2325L61.9204 39.61ZM61.9204 54.8L60.4536 56.1595L60.4708 56.1781L60.4884 56.1962L61.9204 54.8ZM70.7404 29.78C73.9152 29.78 76.7415 30.5168 79.2651 31.9647L81.2558 28.4953C78.086 26.6765 74.5657 25.78 70.7404 25.78V29.78ZM79.2988 31.9836C81.8547 33.3853 83.8483 35.3743 85.3021 37.9913L88.7987 36.0487C86.9859 32.7857 84.4528 30.2481 81.2221 28.4764L79.2988 31.9836ZM85.3088 38.0032C86.7465 40.5501 87.5004 43.5836 87.5004 47.17H91.5004C91.5004 43.0097 90.621 39.2766 88.7921 36.0368L85.3088 38.0032ZM87.5004 47.17C87.5004 50.7555 86.7468 53.8183 85.3021 56.4187L88.7987 58.3613C90.6207 55.0817 91.5004 51.3311 91.5004 47.17H87.5004ZM85.3088 56.4068C83.8545 58.983 81.8534 60.9841 79.2772 62.4384L81.2436 65.9216C84.4541 64.1093 86.9797 61.5837 88.7921 58.3732L85.3088 56.4068ZM79.2867 62.433C76.7597 63.8416 73.9256 64.56 70.7404 64.56V68.56C74.5553 68.56 78.0679 67.6918 81.2341 65.927L79.2867 62.433ZM70.7404 64.56C66.0114 64.56 62.6937 63.0913 60.4505 60.384L57.3704 62.936C60.5405 66.762 65.1094 68.56 70.7404 68.56V64.56ZM56.9104 61.66V66H60.9104V61.66H56.9104ZM58.9104 64H48.4804V68H58.9104V64ZM50.4804 66V14.06H46.4804V66H50.4804ZM48.4804 16.06H59.4004V12.06H48.4804V16.06ZM57.4004 14.06V32.33H61.4004V14.06H57.4004ZM60.8813 33.6742C63.1892 31.1317 66.3907 29.78 70.7404 29.78V25.78C65.4768 25.78 61.1184 27.4616 57.9195 30.9858L60.8813 33.6742ZM68.8504 59.6C72.1453 59.6 74.9743 58.4787 77.1604 56.1775L74.2604 53.4225C72.8999 54.8546 71.1555 55.6 68.8504 55.6V59.6ZM77.1595 56.1784C79.4023 53.8207 80.4404 50.7466 80.4404 47.17H76.4404C76.4404 49.9401 75.6586 51.9527 74.2613 53.4216L77.1595 56.1784ZM80.4404 47.17C80.4404 43.5953 79.4027 40.532 77.1424 38.2138L74.2784 41.0062C75.6581 42.4213 76.4404 44.3981 76.4404 47.17H80.4404ZM77.1773 38.2505C74.9955 35.8964 72.1615 34.74 68.8504 34.74V38.74C71.1394 38.74 72.8787 39.4969 74.2436 40.9695L77.1773 38.2505ZM68.8504 34.74C65.5396 34.74 62.6936 35.8953 60.4713 38.2316L63.3695 40.9884C64.7873 39.498 66.5612 38.74 68.8504 38.74V34.74ZM60.4704 38.2325C58.2661 40.5529 57.2604 43.6095 57.2604 47.17H61.2604C61.2604 44.3839 62.0281 42.4005 63.3704 40.9875L60.4704 38.2325ZM57.2604 47.17C57.2604 50.7326 58.2666 53.8 60.4536 56.1595L63.3873 53.4405C62.0275 51.9734 61.2604 49.9541 61.2604 47.17H57.2604ZM60.4884 56.1962C62.7147 58.4796 65.5555 59.6 68.8504 59.6V55.6C66.5453 55.6 64.7662 54.8538 63.3524 53.4038L60.4884 56.1962Z" fill="black"/>
</svg>
