<svg width="89" height="80" viewBox="0 0 89 80" fill="none" xmlns="http://www.w3.org/2000/svg">
<path d="M13.6188 47.45L9.86875 51.15V58H2.06875V20.9H9.86875V41.9L21.2688 31.1H30.5688L19.3688 42.5L31.5688 58H22.1188L13.6188 47.45ZM50.9766 30.7C53.4766 30.7 55.7432 31.2833 57.7766 32.45C59.8432 33.5833 61.4599 35.2 62.6266 37.3C63.7932 39.3667 64.3766 41.7833 64.3766 44.55C64.3766 47.3167 63.7932 49.75 62.6266 51.85C61.4599 53.9167 59.8432 55.5333 57.7766 56.7C55.7432 57.8333 53.4766 58.4 50.9766 58.4C47.2766 58.4 44.4599 57.2333 42.5266 54.9V58H35.0766V20.9H42.8766V33.95C44.8432 31.7833 47.5432 30.7 50.9766 30.7ZM49.6266 52C51.6266 52 53.2599 51.3333 54.5266 50C55.8266 48.6333 56.4766 46.8167 56.4766 44.55C56.4766 42.2833 55.8266 40.4833 54.5266 39.15C53.2599 37.7833 51.6266 37.1 49.6266 37.1C47.6266 37.1 45.9766 37.7833 44.6766 39.15C43.4099 40.4833 42.7766 42.2833 42.7766 44.55C42.7766 46.8167 43.4099 48.6333 44.6766 50C45.9766 51.3333 47.6266 52 49.6266 52ZM77.048 34.65C77.9814 33.35 79.2314 32.3667 80.798 31.7C82.398 31.0333 84.2314 30.7 86.298 30.7V37.9C85.4314 37.8333 84.848 37.8 84.548 37.8C82.3147 37.8 80.5647 38.4333 79.298 39.7C78.0314 40.9333 77.398 42.8 77.398 45.3V58H69.598V31.1H77.048V34.65Z" fill="#400072"/>
<path d="M13.6188 47.45L15.1762 46.1952L13.7885 44.4729L12.2141 46.0263L13.6188 47.45ZM9.86875 51.15L8.46406 49.7263L7.86875 50.3137V51.15H9.86875ZM9.86875 58V60H11.8688V58H9.86875ZM2.06875 58H0.0687502V60H2.06875V58ZM2.06875 20.9V18.9H0.0687502V20.9H2.06875ZM9.86875 20.9H11.8688V18.9H9.86875V20.9ZM9.86875 41.9H7.86875V46.5497L11.2442 43.3519L9.86875 41.9ZM21.2688 31.1V29.1H20.4718L19.8933 29.6481L21.2688 31.1ZM30.5688 31.1L31.9954 32.5016L35.3374 29.1H30.5688V31.1ZM19.3688 42.5L17.9421 41.0984L16.7086 42.3539L17.7972 43.737L19.3688 42.5ZM31.5688 58V60H35.6882L33.1403 56.763L31.5688 58ZM22.1188 58L20.5613 59.2548L21.1618 60H22.1188V58ZM12.2141 46.0263L8.46406 49.7263L11.2734 52.5737L15.0234 48.8737L12.2141 46.0263ZM7.86875 51.15V58H11.8688V51.15H7.86875ZM9.86875 56H2.06875V60H9.86875V56ZM4.06875 58V20.9H0.0687502V58H4.06875ZM2.06875 22.9H9.86875V18.9H2.06875V22.9ZM7.86875 20.9V41.9H11.8688V20.9H7.86875ZM11.2442 43.3519L22.6442 32.5519L19.8933 29.6481L8.49326 40.4481L11.2442 43.3519ZM21.2688 33.1H30.5688V29.1H21.2688V33.1ZM29.1421 29.6984L17.9421 41.0984L20.7954 43.9016L31.9954 32.5016L29.1421 29.6984ZM17.7972 43.737L29.9972 59.237L33.1403 56.763L20.9403 41.263L17.7972 43.737ZM31.5688 56H22.1188V60H31.5688V56ZM23.6762 56.7452L15.1762 46.1952L12.0613 48.7048L20.5613 59.2548L23.6762 56.7452ZM57.7766 32.45L56.7812 34.1847L56.798 34.1943L56.8149 34.2036L57.7766 32.45ZM62.6266 37.3L60.8782 38.2713L60.8849 38.2832L62.6266 37.3ZM62.6266 51.85L64.3683 52.8332L64.3749 52.8213L62.6266 51.85ZM57.7766 56.7L58.7503 58.447L58.7598 58.4416L57.7766 56.7ZM42.5266 54.9L44.0666 53.624L40.5266 49.3515V54.9H42.5266ZM42.5266 58V60H44.5266V58H42.5266ZM35.0766 58H33.0766V60H35.0766V58ZM35.0766 20.9V18.9H33.0766V20.9H35.0766ZM42.8766 20.9H44.8766V18.9H42.8766V20.9ZM42.8766 33.95H40.8766V39.1291L44.3575 35.2942L42.8766 33.95ZM54.5266 50L53.0774 48.6216L53.0766 48.6225L54.5266 50ZM54.5266 39.15L53.0597 40.5095L53.0769 40.5281L53.0946 40.5462L54.5266 39.15ZM44.6766 39.15L43.2274 37.7716L43.2266 37.7725L44.6766 39.15ZM44.6766 50L43.2097 51.3595L43.2269 51.3781L43.2446 51.3962L44.6766 50ZM50.9766 32.7C53.1513 32.7 55.071 33.2035 56.7812 34.1847L58.7719 30.7153C56.4155 29.3632 53.8018 28.7 50.9766 28.7V32.7ZM56.8149 34.2036C58.5442 35.1519 59.8911 36.4943 60.8782 38.2713L64.3749 36.3287C63.0287 33.9057 61.1423 32.0147 58.7382 30.6964L56.8149 34.2036ZM60.8849 38.2832C61.856 40.0034 62.3766 42.0703 62.3766 44.55H66.3766C66.3766 41.4964 65.7305 38.7299 64.3682 36.3168L60.8849 38.2832ZM62.3766 44.55C62.3766 47.0289 61.8563 49.1183 60.8782 50.8787L64.3749 52.8213C65.7302 50.3817 66.3766 47.6045 66.3766 44.55H62.3766ZM60.8849 50.8668C59.8973 52.6163 58.5429 53.9707 56.7934 54.9584L58.7598 58.4416C61.1436 57.0959 63.0225 55.217 64.3682 52.8332L60.8849 50.8668ZM56.8028 54.953C55.0891 55.9082 53.1617 56.4 50.9766 56.4V60.4C53.7914 60.4 56.3973 59.7584 58.7503 58.447L56.8028 54.953ZM50.9766 56.4C47.7275 56.4 45.5365 55.398 44.0666 53.624L40.9865 56.176C43.3833 59.0687 46.8256 60.4 50.9766 60.4V56.4ZM40.5266 54.9V58H44.5266V54.9H40.5266ZM42.5266 56H35.0766V60H42.5266V56ZM37.0766 58V20.9H33.0766V58H37.0766ZM35.0766 22.9H42.8766V18.9H35.0766V22.9ZM40.8766 20.9V33.95H44.8766V20.9H40.8766ZM44.3575 35.2942C45.8786 33.6184 48.0002 32.7 50.9766 32.7V28.7C47.0862 28.7 43.8078 29.9483 41.3957 32.6058L44.3575 35.2942ZM49.6266 54C52.1215 54 54.2971 53.1454 55.9766 51.3775L53.0766 48.6225C52.2227 49.5213 51.1316 50 49.6266 50V54ZM55.9757 51.3784C57.6984 49.5673 58.4766 47.2199 58.4766 44.55H54.4766C54.4766 46.4134 53.9547 47.6993 53.0774 48.6216L55.9757 51.3784ZM58.4766 44.55C58.4766 41.8819 57.6989 39.5387 55.9586 37.7538L53.0946 40.5462C53.9543 41.428 54.4766 42.6847 54.4766 44.55H58.4766ZM55.9934 37.7905C54.3183 35.9831 52.1376 35.1 49.6266 35.1V39.1C51.1155 39.1 52.2015 39.5836 53.0597 40.5095L55.9934 37.7905ZM49.6266 35.1C47.1158 35.1 44.9297 35.982 43.2274 37.7716L46.1257 40.5284C47.0234 39.5847 48.1374 39.1 49.6266 39.1V35.1ZM43.2266 37.7725C41.5289 39.5595 40.7766 41.8961 40.7766 44.55H44.7766C44.7766 42.6705 45.2909 41.4071 46.1266 40.5275L43.2266 37.7725ZM40.7766 44.55C40.7766 47.2059 41.5294 49.5466 43.2097 51.3595L46.1434 48.6405C45.2903 47.72 44.7766 46.4274 44.7766 44.55H40.7766ZM43.2446 51.3962C44.9508 53.1462 47.1317 54 49.6266 54V50C48.1215 50 47.0023 49.5204 46.1086 48.6038L43.2446 51.3962ZM77.048 34.65H75.048V40.865L78.6727 35.8164L77.048 34.65ZM80.798 31.7L80.0288 29.8538L80.0219 29.8567L80.0149 29.8597L80.798 31.7ZM86.298 30.7H88.298V28.7H86.298V30.7ZM86.298 37.9L86.1447 39.8941L88.298 40.0598V37.9H86.298ZM79.298 39.7L80.6933 41.1329L80.7028 41.1236L80.7123 41.1142L79.298 39.7ZM77.398 58V60H79.398V58H77.398ZM69.598 58H67.598V60H69.598V58ZM69.598 31.1V29.1H67.598V31.1H69.598ZM77.048 31.1H79.048V29.1H77.048V31.1ZM78.6727 35.8164C79.3787 34.833 80.329 34.0731 81.5812 33.5403L80.0149 29.8597C78.1338 30.6602 76.584 31.867 75.4234 33.4836L78.6727 35.8164ZM81.5673 33.5462C82.8814 32.9986 84.4456 32.7 86.298 32.7V28.7C84.0171 28.7 81.9147 29.0681 80.0288 29.8538L81.5673 33.5462ZM84.298 30.7V37.9H88.298V30.7H84.298ZM86.4514 35.9059C85.5956 35.8401 84.937 35.8 84.548 35.8V39.8C84.7591 39.8 85.2672 39.8266 86.1447 39.8941L86.4514 35.9059ZM84.548 35.8C81.9226 35.8 79.6132 36.5564 77.8838 38.2858L80.7123 41.1142C81.5162 40.3103 82.7068 39.8 84.548 39.8V35.8ZM77.9028 38.2671C76.1126 40.0102 75.398 42.4872 75.398 45.3H79.398C79.398 43.1128 79.9502 41.8565 80.6933 41.1329L77.9028 38.2671ZM75.398 45.3V58H79.398V45.3H75.398ZM77.398 56H69.598V60H77.398V56ZM71.598 58V31.1H67.598V58H71.598ZM69.598 33.1H77.048V29.1H69.598V33.1ZM75.048 31.1V34.65H79.048V31.1H75.048Z" fill="black"/>
</svg>
