<svg width="80" height="80" viewBox="0 0 80 80" fill="none" xmlns="http://www.w3.org/2000/svg">
<path d="M23.668 51.23L18.418 56.41V66H7.49801V14.06H18.418V43.46L34.378 28.34H47.398L31.718 44.3L48.798 66H35.568L23.668 51.23ZM63.8655 33.31C65.1722 31.49 66.9222 30.1133 69.1155 29.18C71.3555 28.2467 73.9222 27.78 76.8155 27.78V37.86C75.6022 37.7667 74.7855 37.72 74.3655 37.72C71.2388 37.72 68.7888 38.6067 67.0155 40.38C65.2422 42.1067 64.3555 44.72 64.3555 48.22V66H53.4355V28.34H63.8655V33.31Z" fill="#823525"/>
<path d="M23.668 51.23L25.2254 49.9752L23.8378 48.2529L22.2633 49.8063L23.668 51.23ZM18.418 56.41L17.0133 54.9863L16.418 55.5737V56.41H18.418ZM18.418 66V68H20.418V66H18.418ZM7.49801 66H5.49801V68H7.49801V66ZM7.49801 14.06V12.06H5.49801V14.06H7.49801ZM18.418 14.06H20.418V12.06H18.418V14.06ZM18.418 43.46H16.418V48.1097L19.7935 44.9119L18.418 43.46ZM34.378 28.34V26.34H33.5811L33.0025 26.8881L34.378 28.34ZM47.398 28.34L48.8247 29.7416L52.1666 26.34H47.398V28.34ZM31.718 44.3L30.2913 42.8984L29.0578 44.1539L30.1464 45.537L31.718 44.3ZM48.798 66V68H52.9174L50.3696 64.763L48.798 66ZM35.568 66L34.0106 67.2548L34.611 68H35.568V66ZM22.2633 49.8063L17.0133 54.9863L19.8227 57.8337L25.0727 52.6537L22.2633 49.8063ZM16.418 56.41V66H20.418V56.41H16.418ZM18.418 64H7.49801V68H18.418V64ZM9.49801 66V14.06H5.49801V66H9.49801ZM7.49801 16.06H18.418V12.06H7.49801V16.06ZM16.418 14.06V43.46H20.418V14.06H16.418ZM19.7935 44.9119L35.7535 29.7919L33.0025 26.8881L17.0425 42.0081L19.7935 44.9119ZM34.378 30.34H47.398V26.34H34.378V30.34ZM45.9713 26.9384L30.2913 42.8984L33.1447 45.7016L48.8247 29.7416L45.9713 26.9384ZM30.1464 45.537L47.2264 67.237L50.3696 64.763L33.2896 43.063L30.1464 45.537ZM48.798 64H35.568V68H48.798V64ZM37.1254 64.7452L25.2254 49.9752L22.1106 52.4848L34.0106 67.2548L37.1254 64.7452ZM63.8655 33.31H61.8655V39.525L65.4902 34.4764L63.8655 33.31ZM69.1155 29.18L68.3463 27.3338L68.3393 27.3367L68.3324 27.3397L69.1155 29.18ZM76.8155 27.78H78.8155V25.78H76.8155V27.78ZM76.8155 37.86L76.6621 39.8541L78.8155 40.0198V37.86H76.8155ZM67.0155 40.38L68.4107 41.8129L68.4203 41.8036L68.4297 41.7942L67.0155 40.38ZM64.3555 66V68H66.3555V66H64.3555ZM53.4355 66H51.4355V68H53.4355V66ZM53.4355 28.34V26.34H51.4355V28.34H53.4355ZM63.8655 28.34H65.8655V26.34H63.8655V28.34ZM65.4902 34.4764C66.5695 32.973 68.0198 31.8198 69.8986 31.0203L68.3324 27.3397C65.8246 28.4068 63.7748 30.007 62.2409 32.1436L65.4902 34.4764ZM69.8847 31.0262C71.8389 30.2119 74.1364 29.78 76.8155 29.78V25.78C73.7079 25.78 70.8721 26.2814 68.3463 27.3338L69.8847 31.0262ZM74.8155 27.78V37.86H78.8155V27.78H74.8155ZM76.9689 35.8659C75.7664 35.7734 74.8744 35.72 74.3655 35.72V39.72C74.6966 39.72 75.438 39.7599 76.6621 39.8541L76.9689 35.8659ZM74.3655 35.72C70.8468 35.72 67.8374 36.7297 65.6013 38.9658L68.4297 41.7942C69.7403 40.4836 71.6309 39.72 74.3655 39.72V35.72ZM65.6203 38.9471C63.3234 41.1835 62.3555 44.4072 62.3555 48.22H66.3555C66.3555 45.0328 67.161 43.0298 68.4107 41.8129L65.6203 38.9471ZM62.3555 48.22V66H66.3555V48.22H62.3555ZM64.3555 64H53.4355V68H64.3555V64ZM55.4355 66V28.34H51.4355V66H55.4355ZM53.4355 30.34H63.8655V26.34H53.4355V30.34ZM61.8655 28.34V33.31H65.8655V28.34H61.8655Z" fill="black"/>
</svg>
