<svg width="88" height="80" viewBox="0 0 88 80" fill="none" xmlns="http://www.w3.org/2000/svg">
<path d="M14.1695 47.45L10.4195 51.15V58H2.61953V20.9H10.4195V41.9L21.8195 31.1H31.1195L19.9195 42.5L32.1195 58H22.6695L14.1695 47.45ZM42.882 34.65C43.8154 33.35 45.0654 32.3667 46.632 31.7C48.232 31.0333 50.0654 30.7 52.132 30.7V37.9C51.2654 37.8333 50.682 37.8 50.382 37.8C48.1487 37.8 46.3987 38.4333 45.132 39.7C43.8654 40.9333 43.232 42.8 43.232 45.3V58H35.432V31.1H42.882V34.65ZM84.3977 31.1L72.2477 59.65C71.0143 62.75 69.481 64.9333 67.6477 66.2C65.8477 67.4667 63.6643 68.1 61.0977 68.1C59.6977 68.1 58.3143 67.8833 56.9477 67.45C55.581 67.0167 54.4643 66.4167 53.5977 65.65L56.4477 60.1C57.0477 60.6333 57.731 61.05 58.4977 61.35C59.2977 61.65 60.081 61.8 60.8477 61.8C61.9143 61.8 62.781 61.5333 63.4477 61C64.1143 60.5 64.7143 59.65 65.2477 58.45L65.3477 58.2L53.6977 31.1H61.7477L69.2977 49.35L76.8977 31.1H84.3977Z" fill="#825933"/>
<path d="M14.1695 47.45L15.7269 46.1952L14.3393 44.4729L12.7648 46.0263L14.1695 47.45ZM10.4195 51.15L9.01484 49.7263L8.41953 50.3137V51.15H10.4195ZM10.4195 58V60H12.4195V58H10.4195ZM2.61953 58H0.619531V60H2.61953V58ZM2.61953 20.9V18.9H0.619531V20.9H2.61953ZM10.4195 20.9H12.4195V18.9H10.4195V20.9ZM10.4195 41.9H8.41953V46.5497L11.795 43.3519L10.4195 41.9ZM21.8195 31.1V29.1H21.0226L20.444 29.6481L21.8195 31.1ZM31.1195 31.1L32.5462 32.5016L35.8882 29.1H31.1195V31.1ZM19.9195 42.5L18.4929 41.0984L17.2593 42.3539L18.348 43.737L19.9195 42.5ZM32.1195 58V60H36.2389L33.6911 56.763L32.1195 58ZM22.6695 58L21.1121 59.2548L21.7125 60H22.6695V58ZM12.7648 46.0263L9.01484 49.7263L11.8242 52.5737L15.5742 48.8737L12.7648 46.0263ZM8.41953 51.15V58H12.4195V51.15H8.41953ZM10.4195 56H2.61953V60H10.4195V56ZM4.61953 58V20.9H0.619531V58H4.61953ZM2.61953 22.9H10.4195V18.9H2.61953V22.9ZM8.41953 20.9V41.9H12.4195V20.9H8.41953ZM11.795 43.3519L23.195 32.5519L20.444 29.6481L9.04404 40.4481L11.795 43.3519ZM21.8195 33.1H31.1195V29.1H21.8195V33.1ZM29.6929 29.6984L18.4929 41.0984L21.3462 43.9016L32.5462 32.5016L29.6929 29.6984ZM18.348 43.737L30.548 59.237L33.6911 56.763L21.4911 41.263L18.348 43.737ZM32.1195 56H22.6695V60H32.1195V56ZM24.2269 56.7452L15.7269 46.1952L12.6121 48.7048L21.1121 59.2548L24.2269 56.7452ZM42.882 34.65H40.882V40.865L44.5067 35.8164L42.882 34.65ZM46.632 31.7L45.8628 29.8538L45.8559 29.8567L45.8489 29.8597L46.632 31.7ZM52.132 30.7H54.132V28.7H52.132V30.7ZM52.132 37.9L51.9786 39.8941L54.132 40.0598V37.9H52.132ZM45.132 39.7L46.5273 41.1329L46.5368 41.1236L46.5462 41.1142L45.132 39.7ZM43.232 58V60H45.232V58H43.232ZM35.432 58H33.432V60H35.432V58ZM35.432 31.1V29.1H33.432V31.1H35.432ZM42.882 31.1H44.882V29.1H42.882V31.1ZM44.5067 35.8164C45.2127 34.833 46.163 34.0731 47.4151 33.5403L45.8489 29.8597C43.9678 30.6602 42.418 31.867 41.2574 33.4836L44.5067 35.8164ZM47.4013 33.5462C48.7154 32.9986 50.2796 32.7 52.132 32.7V28.7C49.8511 28.7 47.7486 29.0681 45.8628 29.8538L47.4013 33.5462ZM50.132 30.7V37.9H54.132V30.7H50.132ZM52.2854 35.9059C51.4296 35.8401 50.771 35.8 50.382 35.8V39.8C50.5931 39.8 51.1012 39.8266 51.9786 39.8941L52.2854 35.9059ZM50.382 35.8C47.7566 35.8 45.4472 36.5564 43.7178 38.2858L46.5462 41.1142C47.3502 40.3103 48.5408 39.8 50.382 39.8V35.8ZM43.7368 38.2671C41.9466 40.0102 41.232 42.4872 41.232 45.3H45.232C45.232 43.1128 45.7842 41.8565 46.5273 41.1329L43.7368 38.2671ZM41.232 45.3V58H45.232V45.3H41.232ZM43.232 56H35.432V60H43.232V56ZM37.432 58V31.1H33.432V58H37.432ZM35.432 33.1H42.882V29.1H35.432V33.1ZM40.882 31.1V34.65H44.882V31.1H40.882ZM84.3977 31.1L86.2379 31.8832L87.4224 29.1H84.3977V31.1ZM72.2477 59.65L70.4074 58.8668L70.3981 58.8886L70.3893 58.9107L72.2477 59.65ZM67.6477 66.2L66.5108 64.5545L66.5037 64.5594L66.4967 64.5644L67.6477 66.2ZM56.9477 67.45L57.5521 65.5435L56.9477 67.45ZM53.5977 65.65L51.8185 64.7364L51.1088 66.1185L52.2725 67.148L53.5977 65.65ZM56.4477 60.1L57.7764 58.6052L55.8475 56.8906L54.6685 59.1864L56.4477 60.1ZM58.4977 61.35L57.7689 63.2125L57.7821 63.2177L57.7954 63.2227L58.4977 61.35ZM63.4477 61L62.2477 59.4L62.2227 59.4187L62.1983 59.4383L63.4477 61ZM65.2477 58.45L67.0753 59.2623L67.0906 59.2278L67.1046 59.1928L65.2477 58.45ZM65.3477 58.2L67.2046 58.9428L67.5128 58.1724L67.1851 57.4101L65.3477 58.2ZM53.6977 31.1V29.1H50.6609L51.8602 31.8899L53.6977 31.1ZM61.7477 31.1L63.5958 30.3354L63.0847 29.1H61.7477V31.1ZM69.2977 49.35L67.4496 50.1146L69.2916 54.5671L71.144 50.1189L69.2977 49.35ZM76.8977 31.1V29.1H75.564L75.0514 30.3311L76.8977 31.1ZM82.5574 30.3168L70.4074 58.8668L74.0879 60.4332L86.2379 31.8832L82.5574 30.3168ZM70.3893 58.9107C69.2338 61.8152 67.8954 63.5979 66.5108 64.5545L68.7845 67.8455C71.0666 66.2688 72.7949 63.6848 74.106 60.3893L70.3893 58.9107ZM66.4967 64.5644C65.087 65.5564 63.3228 66.1 61.0977 66.1V70.1C64.0059 70.1 66.6083 69.377 68.7986 67.8356L66.4967 64.5644ZM61.0977 66.1C59.9077 66.1 58.7281 65.9164 57.5521 65.5435L56.3432 69.3565C57.9006 69.8503 59.4876 70.1 61.0977 70.1V66.1ZM57.5521 65.5435C56.3897 65.175 55.5367 64.6951 54.9228 64.152L52.2725 67.148C53.3919 68.1382 54.7723 68.8584 56.3432 69.3565L57.5521 65.5435ZM55.3768 66.5636L58.2268 61.0136L54.6685 59.1864L51.8185 64.7364L55.3768 66.5636ZM55.1189 61.5948C55.9001 62.2892 56.7878 62.8286 57.7689 63.2125L59.2265 59.4875C58.6742 59.2714 58.1952 58.9774 57.7764 58.6052L55.1189 61.5948ZM57.7954 63.2227C58.7944 63.5973 59.8153 63.8 60.8477 63.8V59.8C60.3467 59.8 59.8009 59.7027 59.1999 59.4773L57.7954 63.2227ZM60.8477 63.8C62.2526 63.8 63.5947 63.4436 64.697 62.5617L62.1983 59.4383C61.9672 59.6231 61.5761 59.8 60.8477 59.8V63.8ZM64.6477 62.6C65.701 61.81 66.4756 60.6116 67.0753 59.2623L63.42 57.6377C62.953 58.6884 62.5276 59.19 62.2477 59.4L64.6477 62.6ZM67.1046 59.1928L67.2046 58.9428L63.4907 57.4572L63.3907 57.7072L67.1046 59.1928ZM67.1851 57.4101L55.5351 30.3101L51.8602 31.8899L63.5102 58.9899L67.1851 57.4101ZM53.6977 33.1H61.7477V29.1H53.6977V33.1ZM59.8996 31.8646L67.4496 50.1146L71.1458 48.5854L63.5958 30.3354L59.8996 31.8646ZM71.144 50.1189L78.744 31.8689L75.0514 30.3311L67.4514 48.5811L71.144 50.1189ZM76.8977 33.1H84.3977V29.1H76.8977V33.1Z" fill="black"/>
</svg>
