<svg width="100" height="80" viewBox="0 0 100 80" fill="none" xmlns="http://www.w3.org/2000/svg">
<path d="M14.3102 47.45L10.5602 51.15V58H2.76016V20.9H10.5602V41.9L21.9602 31.1H31.2602L20.0602 42.5L32.2602 58H22.8102L14.3102 47.45ZM51.668 30.7C54.168 30.7 56.4346 31.2833 58.468 32.45C60.5346 33.5833 62.1513 35.2 63.318 37.3C64.4846 39.3667 65.068 41.7833 65.068 44.55C65.068 47.3167 64.4846 49.75 63.318 51.85C62.1513 53.9167 60.5346 55.5333 58.468 56.7C56.4346 57.8333 54.168 58.4 51.668 58.4C47.968 58.4 45.1513 57.2333 43.218 54.9V58H35.768V20.9H43.568V33.95C45.5346 31.7833 48.2346 30.7 51.668 30.7ZM50.318 52C52.318 52 53.9513 51.3333 55.218 50C56.518 48.6333 57.168 46.8167 57.168 44.55C57.168 42.2833 56.518 40.4833 55.218 39.15C53.9513 37.7833 52.318 37.1 50.318 37.1C48.318 37.1 46.668 37.7833 45.368 39.15C44.1013 40.4833 43.468 42.2833 43.468 44.55C43.468 46.8167 44.1013 48.6333 45.368 50C46.668 51.3333 48.318 52 50.318 52ZM96.257 31.1L84.107 59.65C82.8737 62.75 81.3404 64.9333 79.507 66.2C77.707 67.4667 75.5237 68.1 72.957 68.1C71.557 68.1 70.1737 67.8833 68.807 67.45C67.4404 67.0167 66.3237 66.4167 65.457 65.65L68.307 60.1C68.907 60.6333 69.5904 61.05 70.357 61.35C71.157 61.65 71.9404 61.8 72.707 61.8C73.7737 61.8 74.6404 61.5333 75.307 61C75.9737 60.5 76.5737 59.65 77.107 58.45L77.207 58.2L65.557 31.1H73.607L81.157 49.35L88.757 31.1H96.257Z" fill="#239727"/>
<path d="M14.3102 47.45L15.8676 46.1952L14.4799 44.4729L12.9055 46.0263L14.3102 47.45ZM10.5602 51.15L9.15547 49.7263L8.56016 50.3137V51.15H10.5602ZM10.5602 58V60H12.5602V58H10.5602ZM2.76016 58H0.760156V60H2.76016V58ZM2.76016 20.9V18.9H0.760156V20.9H2.76016ZM10.5602 20.9H12.5602V18.9H10.5602V20.9ZM10.5602 41.9H8.56016V46.5497L11.9356 43.3519L10.5602 41.9ZM21.9602 31.1V29.1H21.1632L20.5847 29.6481L21.9602 31.1ZM31.2602 31.1L32.6868 32.5016L36.0288 29.1H31.2602V31.1ZM20.0602 42.5L18.6335 41.0984L17.4 42.3539L18.4886 43.737L20.0602 42.5ZM32.2602 58V60H36.3796L33.8317 56.763L32.2602 58ZM22.8102 58L21.2527 59.2548L21.8532 60H22.8102V58ZM12.9055 46.0263L9.15547 49.7263L11.9648 52.5737L15.7148 48.8737L12.9055 46.0263ZM8.56016 51.15V58H12.5602V51.15H8.56016ZM10.5602 56H2.76016V60H10.5602V56ZM4.76016 58V20.9H0.760156V58H4.76016ZM2.76016 22.9H10.5602V18.9H2.76016V22.9ZM8.56016 20.9V41.9H12.5602V20.9H8.56016ZM11.9356 43.3519L23.3356 32.5519L20.5847 29.6481L9.18467 40.4481L11.9356 43.3519ZM21.9602 33.1H31.2602V29.1H21.9602V33.1ZM29.8335 29.6984L18.6335 41.0984L21.4868 43.9016L32.6868 32.5016L29.8335 29.6984ZM18.4886 43.737L30.6886 59.237L33.8317 56.763L21.6317 41.263L18.4886 43.737ZM32.2602 56H22.8102V60H32.2602V56ZM24.3676 56.7452L15.8676 46.1952L12.7527 48.7048L21.2527 59.2548L24.3676 56.7452ZM58.468 32.45L57.4726 34.1847L57.4894 34.1943L57.5063 34.2036L58.468 32.45ZM63.318 37.3L61.5696 38.2713L61.5763 38.2832L63.318 37.3ZM63.318 51.85L65.0597 52.8332L65.0663 52.8213L63.318 51.85ZM58.468 56.7L59.4417 58.447L59.4512 58.4416L58.468 56.7ZM43.218 54.9L44.758 53.624L41.218 49.3515V54.9H43.218ZM43.218 58V60H45.218V58H43.218ZM35.768 58H33.768V60H35.768V58ZM35.768 20.9V18.9H33.768V20.9H35.768ZM43.568 20.9H45.568V18.9H43.568V20.9ZM43.568 33.95H41.568V39.1291L45.0489 35.2942L43.568 33.95ZM55.218 50L53.7689 48.6216L53.768 48.6225L55.218 50ZM55.218 39.15L53.7511 40.5095L53.7683 40.5281L53.786 40.5462L55.218 39.15ZM45.368 39.15L43.9189 37.7716L43.918 37.7725L45.368 39.15ZM45.368 50L43.9011 51.3595L43.9183 51.3781L43.936 51.3962L45.368 50ZM51.668 32.7C53.8427 32.7 55.7624 33.2035 57.4726 34.1847L59.4633 30.7153C57.1069 29.3632 54.4932 28.7 51.668 28.7V32.7ZM57.5063 34.2036C59.2356 35.1519 60.5825 36.4943 61.5697 38.2713L65.0663 36.3287C63.7201 33.9057 61.8337 32.0147 59.4296 30.6964L57.5063 34.2036ZM61.5763 38.2832C62.5474 40.0034 63.068 42.0703 63.068 44.55H67.068C67.068 41.4964 66.4219 38.7299 65.0596 36.3168L61.5763 38.2832ZM63.068 44.55C63.068 47.0289 62.5477 49.1183 61.5697 50.8787L65.0663 52.8213C66.4216 50.3817 67.068 47.6045 67.068 44.55H63.068ZM61.5763 50.8668C60.5887 52.6163 59.2343 53.9707 57.4848 54.9584L59.4512 58.4416C61.835 57.0959 63.7139 55.217 65.0596 52.8332L61.5763 50.8668ZM57.4943 54.953C55.7805 55.9082 53.8531 56.4 51.668 56.4V60.4C54.4828 60.4 57.0887 59.7584 59.4417 58.447L57.4943 54.953ZM51.668 56.4C48.419 56.4 46.2279 55.398 44.758 53.624L41.6779 56.176C44.0747 59.0687 47.517 60.4 51.668 60.4V56.4ZM41.218 54.9V58H45.218V54.9H41.218ZM43.218 56H35.768V60H43.218V56ZM37.768 58V20.9H33.768V58H37.768ZM35.768 22.9H43.568V18.9H35.768V22.9ZM41.568 20.9V33.95H45.568V20.9H41.568ZM45.0489 35.2942C46.57 33.6184 48.6916 32.7 51.668 32.7V28.7C47.7777 28.7 44.4992 29.9483 42.0871 32.6058L45.0489 35.2942ZM50.318 54C52.8129 54 54.9885 53.1454 56.668 51.3775L53.768 48.6225C52.9141 49.5213 51.8231 50 50.318 50V54ZM56.6671 51.3784C58.3898 49.5673 59.168 47.2199 59.168 44.55H55.168C55.168 46.4134 54.6461 47.6993 53.7689 48.6216L56.6671 51.3784ZM59.168 44.55C59.168 41.8819 58.3903 39.5387 56.65 37.7538L53.786 40.5462C54.6457 41.428 55.168 42.6847 55.168 44.55H59.168ZM56.6848 37.7905C55.0097 35.9831 52.829 35.1 50.318 35.1V39.1C51.8069 39.1 52.8929 39.5836 53.7511 40.5095L56.6848 37.7905ZM50.318 35.1C47.8072 35.1 45.6211 35.982 43.9189 37.7716L46.8171 40.5284C47.7148 39.5847 48.8288 39.1 50.318 39.1V35.1ZM43.918 37.7725C42.2203 39.5595 41.468 41.8961 41.468 44.55H45.468C45.468 42.6705 45.9823 41.4071 46.818 40.5275L43.918 37.7725ZM41.468 44.55C41.468 47.2059 42.2209 49.5466 43.9011 51.3595L46.8348 48.6405C45.9818 47.72 45.468 46.4274 45.468 44.55H41.468ZM43.936 51.3962C45.6422 53.1462 47.8231 54 50.318 54V50C48.8129 50 47.6937 49.5204 46.8 48.6038L43.936 51.3962ZM96.257 31.1L98.0973 31.8832L99.2817 29.1H96.257V31.1ZM84.107 59.65L82.2667 58.8668L82.2575 58.8886L82.2487 58.9107L84.107 59.65ZM79.507 66.2L78.3702 64.5545L78.3631 64.5594L78.356 64.5644L79.507 66.2ZM68.807 67.45L69.4115 65.5435L68.807 67.45ZM65.457 65.65L63.6779 64.7364L62.9681 66.1185L64.1319 67.148L65.457 65.65ZM68.307 60.1L69.6358 58.6052L67.7068 56.8906L66.5279 59.1864L68.307 60.1ZM70.357 61.35L69.6282 63.2125L69.6415 63.2177L69.6548 63.2227L70.357 61.35ZM75.307 61L74.107 59.4L74.082 59.4187L74.0576 59.4383L75.307 61ZM77.107 58.45L78.9347 59.2623L78.95 59.2278L78.964 59.1928L77.107 58.45ZM77.207 58.2L79.064 58.9428L79.3721 58.1724L79.0444 57.4101L77.207 58.2ZM65.557 31.1V29.1H62.5203L63.7196 31.8899L65.557 31.1ZM73.607 31.1L75.4551 30.3354L74.944 29.1H73.607V31.1ZM81.157 49.35L79.3089 50.1146L81.1509 54.5671L83.0033 50.1189L81.157 49.35ZM88.757 31.1V29.1H87.4234L86.9107 30.3311L88.757 31.1ZM94.4167 30.3168L82.2667 58.8668L85.9473 60.4332L98.0973 31.8832L94.4167 30.3168ZM82.2487 58.9107C81.0931 61.8152 79.7548 63.5979 78.3702 64.5545L80.6439 67.8455C82.9259 66.2688 84.6543 63.6848 85.9654 60.3893L82.2487 58.9107ZM78.356 64.5644C76.9464 65.5564 75.1822 66.1 72.957 66.1V70.1C75.8652 70.1 78.4677 69.377 80.658 67.8356L78.356 64.5644ZM72.957 66.1C71.7671 66.1 70.5874 65.9164 69.4115 65.5435L68.2025 69.3565C69.76 69.8503 71.347 70.1 72.957 70.1V66.1ZM69.4115 65.5435C68.2491 65.175 67.3961 64.6951 66.7822 64.152L64.1319 67.148C65.2513 68.1382 66.6316 68.8584 68.2025 69.3565L69.4115 65.5435ZM67.2362 66.5636L70.0862 61.0136L66.5279 59.1864L63.6779 64.7364L67.2362 66.5636ZM66.9783 61.5948C67.7595 62.2892 68.6472 62.8286 69.6282 63.2125L71.0858 59.4875C70.5336 59.2714 70.0545 58.9774 69.6358 58.6052L66.9783 61.5948ZM69.6548 63.2227C70.6538 63.5973 71.6747 63.8 72.707 63.8V59.8C72.2061 59.8 71.6603 59.7027 71.0593 59.4773L69.6548 63.2227ZM72.707 63.8C74.1119 63.8 75.4541 63.4436 76.5564 62.5617L74.0576 59.4383C73.8266 59.6231 73.4355 59.8 72.707 59.8V63.8ZM76.507 62.6C77.5604 61.81 78.335 60.6116 78.9347 59.2623L75.2794 57.6377C74.8124 58.6884 74.387 59.19 74.107 59.4L76.507 62.6ZM78.964 59.1928L79.064 58.9428L75.3501 57.4572L75.2501 57.7072L78.964 59.1928ZM79.0444 57.4101L67.3944 30.3101L63.7196 31.8899L75.3696 58.9899L79.0444 57.4101ZM65.557 33.1H73.607V29.1H65.557V33.1ZM71.7589 31.8646L79.3089 50.1146L83.0051 48.5854L75.4551 30.3354L71.7589 31.8646ZM83.0033 50.1189L90.6033 31.8689L86.9107 30.3311L79.3107 48.5811L83.0033 50.1189ZM88.757 33.1H96.257V29.1H88.757V33.1Z" fill="black"/>
</svg>
