<svg width="80" height="80" viewBox="0 0 80 80" fill="none" xmlns="http://www.w3.org/2000/svg">
<mask id="path-1-inside-1" fill="white">
<path fill-rule="evenodd" clip-rule="evenodd" d="M40 8C57.6731 8 72 22.3269 72 40C72 57.6731 57.6731 72 40 72C22.3269 72 8 57.6731 8 40C8 22.3269 22.3269 8 40 8ZM40.5 52C52.3741 52 62 40.5 62 40.5C62 40.5 52.3741 29 40.5 29C28.6259 29 19 40.5 19 40.5C19 40.5 28.6259 52 40.5 52Z"/>
</mask>
<path fill-rule="evenodd" clip-rule="evenodd" d="M40 8C57.6731 8 72 22.3269 72 40C72 57.6731 57.6731 72 40 72C22.3269 72 8 57.6731 8 40C8 22.3269 22.3269 8 40 8ZM40.5 52C52.3741 52 62 40.5 62 40.5C62 40.5 52.3741 29 40.5 29C28.6259 29 19 40.5 19 40.5C19 40.5 28.6259 52 40.5 52Z" fill="white"/>
<path d="M62 40.5L63.5336 41.7837L64.6082 40.5L63.5336 39.2163L62 40.5ZM19 40.5L17.4664 39.2163L16.3918 40.5L17.4664 41.7837L19 40.5ZM74 40C74 21.2223 58.7777 6 40 6V10C56.5685 10 70 23.4315 70 40H74ZM40 74C58.7777 74 74 58.7777 74 40H70C70 56.5685 56.5685 70 40 70V74ZM6 40C6 58.7777 21.2223 74 40 74V70C23.4315 70 10 56.5685 10 40H6ZM40 6C21.2223 6 6 21.2223 6 40H10C10 23.4315 23.4315 10 40 10V6ZM62 40.5C60.4664 39.2163 60.4667 39.2159 60.467 39.2155C60.4671 39.2154 60.4673 39.2151 60.4674 39.215C60.4677 39.2147 60.4677 39.2146 60.4677 39.2147C60.4675 39.2149 60.4668 39.2157 60.4655 39.2173C60.4629 39.2203 60.4581 39.2261 60.4509 39.2344C60.4366 39.2512 60.4133 39.2783 60.3812 39.3152C60.3169 39.3889 60.2174 39.5015 60.0846 39.6474C59.8187 39.9394 59.4199 40.3637 58.9026 40.8763C57.866 41.9035 56.3649 43.274 54.5142 44.6415C50.7688 47.4091 45.8148 50 40.5 50V54C47.0593 54 52.8553 50.8409 56.8914 47.8585C58.9315 46.351 60.5789 44.8465 61.7182 43.7175C62.2889 43.1519 62.7349 42.6778 63.0418 42.3409C63.1954 42.1723 63.3143 42.0378 63.3968 41.9431C63.4381 41.8958 63.4703 41.8583 63.4931 41.8315C63.5046 41.8181 63.5137 41.8074 63.5204 41.7994C63.5238 41.7954 63.5266 41.7921 63.5288 41.7895C63.5299 41.7882 63.5309 41.787 63.5317 41.7861C63.5321 41.7856 63.5326 41.785 63.5328 41.7848C63.5332 41.7842 63.5336 41.7837 62 40.5ZM40.5 31C45.8148 31 50.7688 33.5909 54.5142 36.3585C56.3649 37.726 57.866 39.0965 58.9026 40.1237C59.4199 40.6363 59.8187 41.0606 60.0846 41.3526C60.2174 41.4985 60.3169 41.6111 60.3812 41.6848C60.4133 41.7217 60.4366 41.7488 60.4509 41.7656C60.4581 41.7739 60.4629 41.7797 60.4655 41.7827C60.4668 41.7843 60.4675 41.7851 60.4677 41.7853C60.4677 41.7854 60.4677 41.7853 60.4674 41.785C60.4673 41.7849 60.4671 41.7846 60.467 41.7845C60.4667 41.7841 60.4664 41.7837 62 40.5C63.5336 39.2163 63.5332 39.2158 63.5328 39.2152C63.5326 39.215 63.5321 39.2144 63.5317 39.2139C63.5309 39.213 63.5299 39.2118 63.5288 39.2105C63.5266 39.2079 63.5238 39.2046 63.5204 39.2006C63.5137 39.1926 63.5046 39.1819 63.4931 39.1685C63.4703 39.1417 63.4381 39.1042 63.3968 39.0569C63.3143 38.9622 63.1954 38.8277 63.0418 38.6591C62.7349 38.3222 62.2889 37.8481 61.7182 37.2825C60.5789 36.1535 58.9315 34.649 56.8914 33.1415C52.8553 30.1591 47.0593 27 40.5 27V31ZM19 40.5C20.5336 41.7837 20.5333 41.7841 20.533 41.7845C20.5329 41.7846 20.5327 41.7849 20.5326 41.785C20.5323 41.7853 20.5323 41.7854 20.5323 41.7853C20.5325 41.7851 20.5332 41.7843 20.5345 41.7827C20.5371 41.7797 20.5419 41.7739 20.5491 41.7656C20.5634 41.7488 20.5867 41.7217 20.6188 41.6848C20.6831 41.6111 20.7826 41.4985 20.9154 41.3526C21.1813 41.0606 21.5801 40.6363 22.0974 40.1237C23.134 39.0965 24.6351 37.726 26.4858 36.3585C30.2312 33.5909 35.1852 31 40.5 31V27C33.9407 27 28.1447 30.1591 24.1086 33.1415C22.0685 34.649 20.4211 36.1535 19.2818 37.2825C18.7111 37.8481 18.2651 38.3222 17.9582 38.6591C17.8046 38.8277 17.6857 38.9622 17.6032 39.0569C17.5619 39.1042 17.5297 39.1417 17.5069 39.1685C17.4954 39.1819 17.4863 39.1926 17.4796 39.2006C17.4762 39.2046 17.4734 39.2079 17.4712 39.2105C17.4701 39.2118 17.4691 39.213 17.4683 39.2139C17.4679 39.2144 17.4674 39.215 17.4672 39.2152C17.4668 39.2158 17.4664 39.2163 19 40.5ZM40.5 50C35.1852 50 30.2312 47.4091 26.4858 44.6415C24.6351 43.274 23.134 41.9035 22.0974 40.8763C21.5801 40.3637 21.1813 39.9394 20.9154 39.6474C20.7826 39.5015 20.6831 39.3889 20.6188 39.3152C20.5867 39.2783 20.5634 39.2512 20.5491 39.2344C20.5419 39.2261 20.5371 39.2203 20.5345 39.2173C20.5332 39.2157 20.5325 39.2149 20.5323 39.2147C20.5323 39.2146 20.5323 39.2147 20.5326 39.215C20.5327 39.2151 20.5329 39.2154 20.533 39.2155C20.5333 39.2159 20.5336 39.2163 19 40.5C17.4664 41.7837 17.4668 41.7842 17.4672 41.7848C17.4674 41.785 17.4679 41.7856 17.4683 41.7861C17.4691 41.787 17.4701 41.7882 17.4712 41.7895C17.4734 41.7921 17.4762 41.7954 17.4796 41.7994C17.4863 41.8074 17.4954 41.8181 17.5069 41.8315C17.5297 41.8583 17.5619 41.8958 17.6032 41.9431C17.6857 42.0378 17.8046 42.1723 17.9582 42.3409C18.2651 42.6778 18.7111 43.1519 19.2818 43.7175C20.4211 44.8465 22.0685 46.351 24.1086 47.8585C28.1447 50.8409 33.9407 54 40.5 54V50Z" fill="#222222" mask="url(#path-1-inside-1)"/>
<circle r="6" transform="matrix(1 0 0 -1 40 40)" fill="white" stroke="#222222" stroke-width="2"/>
</svg>
