<svg width="91" height="82" viewBox="0 0 91 82" fill="none" xmlns="http://www.w3.org/2000/svg">
<path d="M24.7297 26.78C28.2297 26.78 31.403 27.5967 34.2497 29.23C37.143 30.8167 39.4064 33.08 41.0397 36.02C42.673 38.9133 43.4897 42.2967 43.4897 46.17C43.4897 50.0433 42.673 53.45 41.0397 56.39C39.4064 59.2833 37.143 61.5467 34.2497 63.18C31.403 64.7667 28.2297 65.56 24.7297 65.56C19.5497 65.56 15.6064 63.9267 12.8997 60.66V65H2.46969V13.06H13.3897V31.33C16.143 28.2967 19.923 26.78 24.7297 26.78ZM22.8397 56.6C25.6397 56.6 27.9264 55.6667 29.6997 53.8C31.5197 51.8867 32.4297 49.3433 32.4297 46.17C32.4297 42.9967 31.5197 40.4767 29.6997 38.61C27.9264 36.6967 25.6397 35.74 22.8397 35.74C20.0397 35.74 17.7297 36.6967 15.9097 38.61C14.1364 40.4767 13.2497 42.9967 13.2497 46.17C13.2497 49.3433 14.1364 51.8867 15.9097 53.8C17.7297 55.6667 20.0397 56.6 22.8397 56.6ZM87.1544 27.34L70.1444 67.31C68.4177 71.65 66.271 74.7067 63.7044 76.48C61.1844 78.2533 58.1277 79.14 54.5344 79.14C52.5744 79.14 50.6377 78.8367 48.7244 78.23C46.811 77.6233 45.2477 76.7833 44.0344 75.71L48.0244 67.94C48.8644 68.6867 49.821 69.27 50.8944 69.69C52.0144 70.11 53.111 70.32 54.1844 70.32C55.6777 70.32 56.891 69.9467 57.8244 69.2C58.7577 68.5 59.5977 67.31 60.3444 65.63L60.4844 65.28L44.1744 27.34H55.4444L66.0144 52.89L76.6544 27.34H87.1544Z" fill="#47E24D"/>
<path d="M34.2497 29.23L33.2544 30.9647L33.2711 30.9743L33.288 30.9836L34.2497 29.23ZM41.0397 36.02L39.2913 36.9913L39.298 37.0032L41.0397 36.02ZM41.0397 56.39L42.7814 57.3732L42.788 57.3613L41.0397 56.39ZM34.2497 63.18L35.2234 64.927L35.2329 64.9216L34.2497 63.18ZM12.8997 60.66L14.4397 59.384L10.8997 55.1115V60.66H12.8997ZM12.8997 65V67H14.8997V65H12.8997ZM2.46969 65H0.469688V67H2.46969V65ZM2.46969 13.06V11.06H0.469688V13.06H2.46969ZM13.3897 13.06H15.3897V11.06H13.3897V13.06ZM13.3897 31.33H11.3897V36.5091L14.8706 32.6742L13.3897 31.33ZM29.6997 53.8L28.2506 52.4216L28.2497 52.4225L29.6997 53.8ZM29.6997 38.61L28.2328 39.9695L28.25 39.9881L28.2677 40.0062L29.6997 38.61ZM15.9097 38.61L14.4606 37.2316L14.4597 37.2325L15.9097 38.61ZM15.9097 53.8L14.4428 55.1595L14.46 55.1781L14.4777 55.1962L15.9097 53.8ZM24.7297 28.78C27.9045 28.78 30.7308 29.5168 33.2544 30.9647L35.245 27.4953C32.0753 25.6765 28.5549 24.78 24.7297 24.78V28.78ZM33.288 30.9836C35.844 32.3853 37.8375 34.3743 39.2914 36.9913L42.788 35.0487C40.9752 31.7857 38.4421 29.2481 35.2114 27.4764L33.288 30.9836ZM39.298 37.0032C40.7358 39.5501 41.4897 42.5836 41.4897 46.17H45.4897C45.4897 42.0097 44.6102 38.2766 42.7813 35.0368L39.298 37.0032ZM41.4897 46.17C41.4897 49.7555 40.7361 52.8183 39.2914 55.4187L42.788 57.3613C44.61 54.0817 45.4897 50.3311 45.4897 46.17H41.4897ZM39.298 55.4068C37.8438 57.983 35.8427 59.9841 33.2665 61.4384L35.2329 64.9216C38.4434 63.1093 40.969 60.5837 42.7813 57.3732L39.298 55.4068ZM33.276 61.433C30.7489 62.8416 27.9148 63.56 24.7297 63.56V67.56C28.5445 67.56 32.0571 66.6918 35.2234 64.927L33.276 61.433ZM24.7297 63.56C20.0007 63.56 16.683 62.0913 14.4397 59.384L11.3596 61.936C14.5298 65.762 19.0987 67.56 24.7297 67.56V63.56ZM10.8997 60.66V65H14.8997V60.66H10.8997ZM12.8997 63H2.46969V67H12.8997V63ZM4.46969 65V13.06H0.469688V65H4.46969ZM2.46969 15.06H13.3897V11.06H2.46969V15.06ZM11.3897 13.06V31.33H15.3897V13.06H11.3897ZM14.8706 32.6742C17.1784 30.1317 20.38 28.78 24.7297 28.78V24.78C19.466 24.78 15.1076 26.4616 11.9088 29.9858L14.8706 32.6742ZM22.8397 58.6C26.1346 58.6 28.9636 57.4787 31.1497 55.1775L28.2497 52.4225C26.8892 53.8546 25.1448 54.6 22.8397 54.6V58.6ZM31.1488 55.1784C33.3916 52.8207 34.4297 49.7466 34.4297 46.17H30.4297C30.4297 48.9401 29.6478 50.9527 28.2506 52.4216L31.1488 55.1784ZM34.4297 46.17C34.4297 42.5953 33.392 39.532 31.1317 37.2138L28.2677 40.0062C29.6474 41.4213 30.4297 43.3981 30.4297 46.17H34.4297ZM31.1665 37.2505C28.9847 34.8964 26.1508 33.74 22.8397 33.74V37.74C25.1286 37.74 26.868 38.4969 28.2328 39.9695L31.1665 37.2505ZM22.8397 33.74C19.5289 33.74 16.6829 34.8953 14.4606 37.2316L17.3588 39.9884C18.7765 38.498 20.5505 37.74 22.8397 37.74V33.74ZM14.4597 37.2325C12.2554 39.5529 11.2497 42.6095 11.2497 46.17H15.2497C15.2497 43.3839 16.0174 41.4005 17.3597 39.9875L14.4597 37.2325ZM11.2497 46.17C11.2497 49.7326 12.2559 52.8 14.4428 55.1595L17.3765 52.4405C16.0168 50.9734 15.2497 48.9541 15.2497 46.17H11.2497ZM14.4777 55.1962C16.704 57.4796 19.5448 58.6 22.8397 58.6V54.6C20.5346 54.6 18.7554 53.8538 17.3417 52.4038L14.4777 55.1962ZM87.1544 27.34L88.9947 28.1232L90.1791 25.34H87.1544V27.34ZM70.1444 67.31L68.3041 66.5268L68.2948 66.5486L68.286 66.5707L70.1444 67.31ZM63.7044 76.48L62.5675 74.8345L62.5604 74.8394L62.5534 74.8444L63.7044 76.48ZM48.7244 78.23L49.3289 76.3235L48.7244 78.23ZM44.0344 75.71L42.2552 74.7964L41.5455 76.1785L42.7092 77.208L44.0344 75.71ZM48.0244 67.94L49.3531 66.4452L47.4242 64.7306L46.2452 67.0264L48.0244 67.94ZM50.8944 69.69L50.1656 71.5525L50.1788 71.5577L50.1921 71.5627L50.8944 69.69ZM57.8244 69.2L56.6244 67.6L56.5994 67.6187L56.575 67.6383L57.8244 69.2ZM60.3444 65.63L62.172 66.4423L62.1873 66.4078L62.2013 66.3728L60.3444 65.63ZM60.4844 65.28L62.3413 66.0228L62.6495 65.2524L62.3218 64.4901L60.4844 65.28ZM44.1744 27.34V25.34H41.1376L42.337 28.1299L44.1744 27.34ZM55.4444 27.34L57.2925 26.5754L56.7814 25.34H55.4444V27.34ZM66.0144 52.89L64.1663 53.6546L66.0083 58.1071L67.8607 53.6589L66.0144 52.89ZM76.6544 27.34V25.34H75.3208L74.8081 26.5711L76.6544 27.34ZM85.3141 26.5568L68.3041 66.5268L71.9847 68.0932L88.9947 28.1232L85.3141 26.5568ZM68.286 66.5707C66.6371 70.7152 64.6855 73.3712 62.5675 74.8345L64.8412 78.1255C67.8566 76.0421 70.1983 72.5848 72.0027 68.0493L68.286 66.5707ZM62.5534 74.8444C60.4238 76.343 57.7862 77.14 54.5344 77.14V81.14C58.4692 81.14 61.945 80.1636 64.8554 78.1156L62.5534 74.8444ZM54.5344 77.14C52.7844 77.14 51.0515 76.8697 49.3289 76.3235L48.1199 80.1365C50.224 80.8036 52.3643 81.14 54.5344 81.14V77.14ZM49.3289 76.3235C47.6198 75.7816 46.3201 75.0618 45.3595 74.212L42.7092 77.208C44.1753 78.5049 46.0023 79.465 48.1199 80.1365L49.3289 76.3235ZM45.8135 76.6236L49.8035 68.8536L46.2452 67.0264L42.2552 74.7964L45.8135 76.6236ZM46.6956 69.4348C47.7169 70.3426 48.8778 71.0486 50.1656 71.5525L51.6232 67.8275C50.7643 67.4914 50.0119 67.0308 49.3531 66.4452L46.6956 69.4348ZM50.1921 71.5627C51.5111 72.0573 52.8453 72.32 54.1844 72.32V68.32C53.3767 68.32 52.5176 68.1627 51.5966 67.8173L50.1921 71.5627ZM54.1844 72.32C56.0159 72.32 57.7048 71.8569 59.0738 70.7617L56.575 67.6383C56.0773 68.0364 55.3395 68.32 54.1844 68.32V72.32ZM59.0244 70.8C60.3444 69.81 61.359 68.2716 62.172 66.4423L58.5168 64.8177C57.8364 66.3484 57.171 67.19 56.6244 67.6L59.0244 70.8ZM62.2013 66.3728L62.3413 66.0228L58.6274 64.5372L58.4874 64.8872L62.2013 66.3728ZM62.3218 64.4901L46.0118 26.5501L42.337 28.1299L58.647 66.0699L62.3218 64.4901ZM44.1744 29.34H55.4444V25.34H44.1744V29.34ZM53.5963 28.1046L64.1663 53.6546L67.8625 52.1254L57.2925 26.5754L53.5963 28.1046ZM67.8607 53.6589L78.5007 28.1089L74.8081 26.5711L64.1681 52.1211L67.8607 53.6589ZM76.6544 29.34H87.1544V25.34H76.6544V29.34Z" fill="black"/>
</svg>
