<svg width="467" height="101" viewBox="0 0 467 101" fill="none" xmlns="http://www.w3.org/2000/svg">
<path d="M40 44L57 61L40 78L23 61L40 44Z" fill="#47E24D"/>
<path d="M92 55L104 67L92 79L80 67L92 55Z" fill="#47E24D"/>
<path d="M74 10L91 27L74 44L57 27L74 10Z" fill="#47E24D"/>
<path d="M137 22L159 44L137 66L115 44L137 22Z" fill="#47E24D"/>
<path d="M315 46L336 67L315 88L294 67L315 46Z" fill="#47E24D"/>
<path d="M340 10L357 27L340 44L323 27L340 10Z" fill="#47E24D"/>
<path d="M374 44L391 61L374 78L357 61L374 44Z" fill="#47E24D"/>
<path d="M428 60L439 71L428 82L417 71L428 60Z" fill="#47E24D"/>
<path d="M406 20L419 33L406 46L393 33L406 20Z" fill="#47E24D"/>
</svg>
