<svg width="467" height="101" viewBox="0 0 467 101" fill="none" xmlns="http://www.w3.org/2000/svg">
<rect x="23" y="42" width="30.7576" height="21" rx="10.5" fill="#9F9F9F"/>
<rect x="34.6666" y="55.4167" width="23.3333" height="16.3333" rx="8.16667" fill="#9F9F9F"/>
<rect x="24.5909" y="68.25" width="20.1515" height="13.4167" rx="6.70833" fill="#9F9F9F"/>
<rect x="306" y="22" width="30.7576" height="21" rx="10.5" fill="#9F9F9F"/>
<rect x="317.667" y="35.4167" width="23.3333" height="16.3333" rx="8.16667" fill="#9F9F9F"/>
<rect x="307.591" y="48.25" width="20.1515" height="13.4167" rx="6.70833" fill="#9F9F9F"/>
<rect x="73" y="25" width="21.4528" height="14.6471" rx="7.32353" fill="#9F9F9F"/>
<rect x="81.1372" y="34.3578" width="16.2745" height="11.3922" rx="5.69608" fill="#9F9F9F"/>
<rect x="74.1096" y="43.3088" width="14.0553" height="9.35784" rx="4.67892" fill="#9F9F9F"/>
<rect x="355.412" y="48.9333" width="27.7594" height="18.953" rx="9.47649" fill="#9F9F9F"/>
<rect x="365.941" y="61.0421" width="21.0589" height="14.7412" rx="7.3706" fill="#9F9F9F"/>
<rect x="356.848" y="72.6245" width="18.1872" height="12.1088" rx="6.05442" fill="#9F9F9F"/>
<rect x="118" y="28" width="41.6132" height="28.4118" rx="14.2059" fill="#9F9F9F"/>
<rect x="133.784" y="46.1519" width="31.5686" height="22.098" rx="11.049" fill="#9F9F9F"/>
<rect x="120.152" y="63.5147" width="27.2638" height="18.152" rx="9.07598" fill="#9F9F9F"/>
<rect x="402.412" y="22" width="33.8592" height="23.1176" rx="11.5588" fill="#9F9F9F"/>
<rect x="415.255" y="36.7696" width="25.6863" height="17.9804" rx="8.9902" fill="#9F9F9F"/>
<rect x="404.163" y="50.8971" width="22.1836" height="14.7696" rx="7.3848" fill="#9F9F9F"/>
</svg>
