<svg width="110" height="80" viewBox="0 0 110 80" fill="none" xmlns="http://www.w3.org/2000/svg">
<path d="M18.42 50.23L13.17 55.41V65H2.24996V13.06H13.17V42.46L29.13 27.34H42.15L26.47 43.3L43.55 65H30.32L18.42 50.23ZM106.753 27.34L93.1034 65H82.6034L74.1334 41.62L65.3834 65H54.8834L41.3034 27.34H51.5934L60.4834 52.82L69.7234 27.34H78.9634L87.9234 52.82L97.0934 27.34H106.753Z" fill="#9F9F9F"/>
<path d="M18.42 50.23L19.9774 48.9752L18.5897 47.2529L17.0153 48.8063L18.42 50.23ZM13.17 55.41L11.7653 53.9863L11.17 54.5737V55.41H13.17ZM13.17 65V67H15.17V65H13.17ZM2.24996 65H0.249961V67H2.24996V65ZM2.24996 13.06V11.06H0.249961V13.06H2.24996ZM13.17 13.06H15.17V11.06H13.17V13.06ZM13.17 42.46H11.17V47.1097L14.5455 43.9119L13.17 42.46ZM29.13 27.34V25.34H28.333L27.7545 25.8881L29.13 27.34ZM42.15 27.34L43.5766 28.7416L46.9186 25.34H42.15V27.34ZM26.47 43.3L25.0433 41.8984L23.8098 43.1539L24.8984 44.537L26.47 43.3ZM43.55 65V67H47.6694L45.1215 63.763L43.55 65ZM30.32 65L28.7626 66.2548L29.363 67H30.32V65ZM17.0153 48.8063L11.7653 53.9863L14.5747 56.8337L19.8247 51.6537L17.0153 48.8063ZM11.17 55.41V65H15.17V55.41H11.17ZM13.17 63H2.24996V67H13.17V63ZM4.24996 65V13.06H0.249961V65H4.24996ZM2.24996 15.06H13.17V11.06H2.24996V15.06ZM11.17 13.06V42.46H15.17V13.06H11.17ZM14.5455 43.9119L30.5055 28.7919L27.7545 25.8881L11.7945 41.0081L14.5455 43.9119ZM29.13 29.34H42.15V25.34H29.13V29.34ZM40.7233 25.9384L25.0433 41.8984L27.8966 44.7016L43.5766 28.7416L40.7233 25.9384ZM24.8984 44.537L41.9784 66.237L45.1215 63.763L28.0415 42.063L24.8984 44.537ZM43.55 63H30.32V67H43.55V63ZM31.8774 63.7452L19.9774 48.9752L16.8626 51.4848L28.7626 66.2548L31.8774 63.7452ZM106.753 27.34L108.634 28.0215L109.606 25.34H106.753V27.34ZM93.1034 65V67H94.5058L94.9837 65.6815L93.1034 65ZM82.6034 65L80.723 65.6812L81.2008 67H82.6034V65ZM74.1334 41.62L76.0138 40.9388L74.1639 35.8325L72.2603 40.919L74.1334 41.62ZM65.3834 65V67H66.7704L67.2565 65.701L65.3834 65ZM54.8834 65L53.002 65.6784L53.4785 67H54.8834V65ZM41.3034 27.34V25.34H38.4562L39.422 28.0184L41.3034 27.34ZM51.5934 27.34L53.4818 26.6811L53.0138 25.34H51.5934V27.34ZM60.4834 52.82L58.595 53.4789L60.447 58.7869L62.3636 53.5018L60.4834 52.82ZM69.7234 27.34V25.34H68.3212L67.8432 26.6582L69.7234 27.34ZM78.9634 27.34L80.8501 26.6765L80.3802 25.34H78.9634V27.34ZM87.9234 52.82L86.0367 53.4835L87.9016 58.7868L89.8052 53.4973L87.9234 52.82ZM97.0934 27.34V25.34H95.6876L95.2116 26.6627L97.0934 27.34ZM104.873 26.6585L91.2231 64.3185L94.9837 65.6815L108.634 28.0215L104.873 26.6585ZM93.1034 63H82.6034V67H93.1034V63ZM84.4838 64.3188L76.0138 40.9388L72.253 42.3012L80.723 65.6812L84.4838 64.3188ZM72.2603 40.919L63.5103 64.299L67.2565 65.701L76.0065 42.321L72.2603 40.919ZM65.3834 63H54.8834V67H65.3834V63ZM56.7648 64.3216L43.1848 26.6616L39.422 28.0184L53.002 65.6784L56.7648 64.3216ZM41.3034 29.34H51.5934V25.34H41.3034V29.34ZM49.705 27.9988L58.595 53.4789L62.3718 52.1611L53.4818 26.6811L49.705 27.9988ZM62.3636 53.5018L71.6036 28.0218L67.8432 26.6582L58.6032 52.1382L62.3636 53.5018ZM69.7234 29.34H78.9634V25.34H69.7234V29.34ZM77.0767 28.0035L86.0367 53.4835L89.8101 52.1565L80.8501 26.6765L77.0767 28.0035ZM89.8052 53.4973L98.9752 28.0173L95.2116 26.6627L86.0416 52.1427L89.8052 53.4973ZM97.0934 29.34H106.753V25.34H97.0934V29.34Z" fill="black"/>
</svg>
