<svg width="80" height="80" viewBox="0 0 80 80" fill="none" xmlns="http://www.w3.org/2000/svg">
<rect x="1.5" y="53.7513" width="27" height="27" transform="rotate(-90 1.5 53.7513)" stroke="#222222" stroke-width="3"/>
<path fill-rule="evenodd" clip-rule="evenodd" d="M12.0667 55.2513H8.6471C14.1425 65.9398 25.2802 73.2513 38.1257 73.2513C56.4205 73.2513 71.2513 58.4205 71.2513 40.1257C71.2513 21.8309 56.4205 7.00001 38.1257 7C25.1798 7 13.9684 14.4263 8.51923 25.2513H11.9221C17.1036 16.1429 26.8973 10 38.1257 10C54.7636 10 68.2513 23.4877 68.2513 40.1257C68.2513 56.7636 54.7636 70.2513 38.1257 70.2513C27.0009 70.2513 17.2845 64.2213 12.0667 55.2513Z" fill="#222222"/>
</svg>
