<svg width="80" height="80" viewBox="0 0 80 80" fill="none" xmlns="http://www.w3.org/2000/svg">
<rect x="5" y="50.2513" width="20" height="20" transform="rotate(-90 5 50.2513)" stroke="#222222" stroke-width="10"/>
<path fill-rule="evenodd" clip-rule="evenodd" d="M12.0668 55.2513H8.64716C14.1425 65.9398 25.2803 73.2513 38.1257 73.2513C56.4205 73.2513 71.2514 58.4205 71.2514 40.1257C71.2514 21.8309 56.4205 7.00001 38.1257 7C25.1798 7 13.9685 14.4263 8.51929 25.2513H11.9222C17.1037 16.1429 26.8973 10 38.1257 10C54.7637 10 68.2514 23.4877 68.2514 40.1257C68.2514 56.7636 54.7637 70.2513 38.1257 70.2513C27.0009 70.2513 17.2845 64.2213 12.0668 55.2513Z" fill="#222222"/>
</svg>
