<svg width="80" height="80" viewBox="0 0 80 80" fill="none" xmlns="http://www.w3.org/2000/svg">
<path d="M62.9843 27C56.3604 27 50.9886 32.3714 50.9886 39C50.9886 45.6286 56.3604 51 62.9843 51C69.6082 51 74.9801 45.6286 74.9801 39C74.9801 32.3714 69.6082 27 62.9843 27Z" stroke="#222222" stroke-width="10"/>
<rect x="5" y="49" width="20" height="19.9925" transform="rotate(-90 5 49)" stroke="#222222" stroke-width="10"/>
<path fill-rule="evenodd" clip-rule="evenodd" d="M23.7472 54L42.4994 72.7568L59.5909 55.6611C60.6874 55.8833 61.8223 56 62.9844 56C63.1575 56 63.33 55.9974 63.5019 55.9923L44.6205 74.8784L42.4994 77L40.3784 74.8784L19.5051 54H23.7472ZM24.7271 24L42.4994 6.22327L58.793 22.5209C59.9899 22.2172 61.2375 22.0406 62.5205 22.0062L44.6205 4.10169L42.4994 1.9801L40.3783 4.10169L20.485 24H24.7271ZM80 39.49L79.9724 39.5177L79.9739 39.4639L80 39.49Z" fill="#222222"/>
</svg>
