<svg width="107" height="80" viewBox="0 0 107 80" fill="none" xmlns="http://www.w3.org/2000/svg">
<path d="M49.8596 31.1L40.1096 58H32.6096L26.5596 41.3L20.3096 58H12.8096L3.10957 31.1H10.4596L16.8096 49.3L23.4096 31.1H30.0096L36.4096 49.3L42.9596 31.1H49.8596ZM69.3857 30.7C71.8857 30.7 74.1524 31.2833 76.1857 32.45C78.2524 33.5833 79.8691 35.2 81.0357 37.3C82.2024 39.3667 82.7857 41.7833 82.7857 44.55C82.7857 47.3167 82.2024 49.75 81.0357 51.85C79.8691 53.9167 78.2524 55.5333 76.1857 56.7C74.1524 57.8333 71.8857 58.4 69.3857 58.4C65.6857 58.4 62.8691 57.2333 60.9357 54.9V58H53.4857V20.9H61.2857V33.95C63.2524 31.7833 65.9524 30.7 69.3857 30.7ZM68.0357 52C70.0357 52 71.6691 51.3333 72.9357 50C74.2357 48.6333 74.8857 46.8167 74.8857 44.55C74.8857 42.2833 74.2357 40.4833 72.9357 39.15C71.6691 37.7833 70.0357 37.1 68.0357 37.1C66.0357 37.1 64.3857 37.7833 63.0857 39.15C61.8191 40.4833 61.1857 42.2833 61.1857 44.55C61.1857 46.8167 61.8191 48.6333 63.0857 50C64.3857 51.3333 66.0357 52 68.0357 52ZM95.4572 34.65C96.3906 33.35 97.6406 32.3667 99.2072 31.7C100.807 31.0333 102.641 30.7 104.707 30.7V37.9C103.841 37.8333 103.257 37.8 102.957 37.8C100.724 37.8 98.9739 38.4333 97.7072 39.7C96.4406 40.9333 95.8072 42.8 95.8072 45.3V58H88.0072V31.1H95.4572V34.65Z" fill="#E64EFF"/>
<path d="M49.8596 31.1L51.7399 31.7815L52.7118 29.1H49.8596V31.1ZM40.1096 58V60H41.512L41.9899 58.6815L40.1096 58ZM32.6096 58L30.7292 58.6812L31.2069 60H32.6096V58ZM26.5596 41.3L28.44 40.6188L26.5901 35.5125L24.6865 40.599L26.5596 41.3ZM20.3096 58V60H21.6965L22.1827 58.701L20.3096 58ZM12.8096 58L10.9282 58.6784L11.4047 60H12.8096V58ZM3.10957 31.1V29.1H0.262325L1.22815 31.7784L3.10957 31.1ZM10.4596 31.1L12.3479 30.4411L11.88 29.1H10.4596V31.1ZM16.8096 49.3L14.9212 49.9589L16.7732 55.2669L18.6898 49.9818L16.8096 49.3ZM23.4096 31.1V29.1H22.0074L21.5294 30.4182L23.4096 31.1ZM30.0096 31.1L31.8963 30.4365L31.4263 29.1H30.0096V31.1ZM36.4096 49.3L34.5228 49.9635L36.3877 55.2668L38.2914 49.9773L36.4096 49.3ZM42.9596 31.1V29.1H41.5538L41.0777 30.4227L42.9596 31.1ZM47.9793 30.4185L38.2293 57.3185L41.9899 58.6815L51.7399 31.7815L47.9793 30.4185ZM40.1096 56H32.6096V60H40.1096V56ZM34.49 57.3188L28.44 40.6188L24.6792 41.9812L30.7292 58.6812L34.49 57.3188ZM24.6865 40.599L18.4365 57.299L22.1827 58.701L28.4327 42.001L24.6865 40.599ZM20.3096 56H12.8096V60H20.3096V56ZM14.691 57.3216L4.99099 30.4216L1.22815 31.7784L10.9282 58.6784L14.691 57.3216ZM3.10957 33.1H10.4596V29.1H3.10957V33.1ZM8.57121 31.7588L14.9212 49.9589L18.6979 48.6411L12.3479 30.4411L8.57121 31.7588ZM18.6898 49.9818L25.2898 31.7818L21.5294 30.4182L14.9294 48.6182L18.6898 49.9818ZM23.4096 33.1H30.0096V29.1H23.4096V33.1ZM28.1228 31.7635L34.5228 49.9635L38.2963 48.6365L31.8963 30.4365L28.1228 31.7635ZM38.2914 49.9773L44.8414 31.7773L41.0777 30.4227L34.5277 48.6227L38.2914 49.9773ZM42.9596 33.1H49.8596V29.1H42.9596V33.1ZM76.1857 32.45L75.1904 34.1847L75.2072 34.1943L75.2241 34.2036L76.1857 32.45ZM81.0357 37.3L79.2874 38.2713L79.2941 38.2832L81.0357 37.3ZM81.0357 51.85L82.7774 52.8332L82.7841 52.8213L81.0357 51.85ZM76.1857 56.7L77.1595 58.447L77.1689 58.4416L76.1857 56.7ZM60.9357 54.9L62.4758 53.624L58.9357 49.3515V54.9H60.9357ZM60.9357 58V60H62.9357V58H60.9357ZM53.4857 58H51.4857V60H53.4857V58ZM53.4857 20.9V18.9H51.4857V20.9H53.4857ZM61.2857 20.9H63.2857V18.9H61.2857V20.9ZM61.2857 33.95H59.2857V39.1291L62.7667 35.2942L61.2857 33.95ZM72.9357 50L71.4866 48.6216L71.4857 48.6225L72.9357 50ZM72.9357 39.15L71.4689 40.5095L71.4861 40.5281L71.5037 40.5462L72.9357 39.15ZM63.0857 39.15L61.6366 37.7716L61.6357 37.7725L63.0857 39.15ZM63.0857 50L61.6189 51.3595L61.6361 51.3781L61.6537 51.3962L63.0857 50ZM69.3857 32.7C71.5605 32.7 73.4802 33.2035 75.1904 34.1847L77.1811 30.7153C74.8246 29.3632 72.211 28.7 69.3857 28.7V32.7ZM75.2241 34.2036C76.9533 35.1519 78.3002 36.4943 79.2874 38.2713L82.7841 36.3287C81.4379 33.9057 79.5515 32.0147 77.1474 30.6964L75.2241 34.2036ZM79.2941 38.2832C80.2652 40.0034 80.7857 42.0703 80.7857 44.55H84.7857C84.7857 41.4964 84.1396 38.7299 82.7774 36.3168L79.2941 38.2832ZM80.7857 44.55C80.7857 47.0289 80.2655 49.1183 79.2874 50.8787L82.7841 52.8213C84.1394 50.3817 84.7857 47.6045 84.7857 44.55H80.7857ZM79.2941 50.8668C78.3065 52.6163 76.9521 53.9707 75.2026 54.9584L77.1689 58.4416C79.5528 57.0959 81.4317 55.217 82.7774 52.8332L79.2941 50.8668ZM75.212 54.953C73.4983 55.9082 71.5709 56.4 69.3857 56.4V60.4C72.2006 60.4 74.8065 59.7584 77.1595 58.447L75.212 54.953ZM69.3857 56.4C66.1367 56.4 63.9457 55.398 62.4758 53.624L59.3957 56.176C61.7925 59.0687 65.2348 60.4 69.3857 60.4V56.4ZM58.9357 54.9V58H62.9357V54.9H58.9357ZM60.9357 56H53.4857V60H60.9357V56ZM55.4857 58V20.9H51.4857V58H55.4857ZM53.4857 22.9H61.2857V18.9H53.4857V22.9ZM59.2857 20.9V33.95H63.2857V20.9H59.2857ZM62.7667 35.2942C64.2878 33.6184 66.4094 32.7 69.3857 32.7V28.7C65.4954 28.7 62.217 29.9483 59.8048 32.6058L62.7667 35.2942ZM68.0357 54C70.5307 54 72.7063 53.1454 74.3857 51.3775L71.4857 48.6225C70.6319 49.5213 69.5408 50 68.0357 50V54ZM74.3849 51.3784C76.1076 49.5673 76.8857 47.2199 76.8857 44.55H72.8857C72.8857 46.4134 72.3639 47.6993 71.4866 48.6216L74.3849 51.3784ZM76.8857 44.55C76.8857 41.8819 76.108 39.5387 74.3677 37.7538L71.5037 40.5462C72.3635 41.428 72.8857 42.6847 72.8857 44.55H76.8857ZM74.4026 37.7905C72.7275 35.9831 70.5468 35.1 68.0357 35.1V39.1C69.5247 39.1 70.6107 39.5836 71.4689 40.5095L74.4026 37.7905ZM68.0357 35.1C65.5249 35.1 63.3389 35.982 61.6366 37.7716L64.5349 40.5284C65.4326 39.5847 66.5465 39.1 68.0357 39.1V35.1ZM61.6357 37.7725C59.9381 39.5595 59.1857 41.8961 59.1857 44.55H63.1857C63.1857 42.6705 63.7001 41.4071 64.5357 40.5275L61.6357 37.7725ZM59.1857 44.55C59.1857 47.2059 59.9386 49.5466 61.6189 51.3595L64.5526 48.6405C63.6995 47.72 63.1857 46.4274 63.1857 44.55H59.1857ZM61.6537 51.3962C63.36 53.1462 65.5408 54 68.0357 54V50C66.5306 50 65.4115 49.5204 64.5177 48.6038L61.6537 51.3962ZM95.4572 34.65H93.4572V40.865L97.0819 35.8164L95.4572 34.65ZM99.2072 31.7L98.438 29.8538L98.431 29.8567L98.4241 29.8597L99.2072 31.7ZM104.707 30.7H106.707V28.7H104.707V30.7ZM104.707 37.9L104.554 39.8941L106.707 40.0598V37.9H104.707ZM97.7072 39.7L99.1025 41.1329L99.112 41.1236L99.1214 41.1142L97.7072 39.7ZM95.8072 58V60H97.8072V58H95.8072ZM88.0072 58H86.0072V60H88.0072V58ZM88.0072 31.1V29.1H86.0072V31.1H88.0072ZM95.4572 31.1H97.4572V29.1H95.4572V31.1ZM97.0819 35.8164C97.7879 34.833 98.7382 34.0731 99.9903 33.5403L98.4241 29.8597C96.543 30.6602 94.9932 31.867 93.8326 33.4836L97.0819 35.8164ZM99.9765 33.5462C101.291 32.9986 102.855 32.7 104.707 32.7V28.7C102.426 28.7 100.324 29.0681 98.438 29.8538L99.9765 33.5462ZM102.707 30.7V37.9H106.707V30.7H102.707ZM104.861 35.9059C104.005 35.8401 103.346 35.8 102.957 35.8V39.8C103.168 39.8 103.676 39.8266 104.554 39.8941L104.861 35.9059ZM102.957 35.8C100.332 35.8 98.0224 36.5564 96.293 38.2858L99.1214 41.1142C99.9254 40.3103 101.116 39.8 102.957 39.8V35.8ZM96.312 38.2671C94.5218 40.0102 93.8072 42.4872 93.8072 45.3H97.8072C97.8072 43.1128 98.3594 41.8565 99.1025 41.1329L96.312 38.2671ZM93.8072 45.3V58H97.8072V45.3H93.8072ZM95.8072 56H88.0072V60H95.8072V56ZM90.0072 58V31.1H86.0072V58H90.0072ZM88.0072 33.1H95.4572V29.1H88.0072V33.1ZM93.4572 31.1V34.65H97.4572V31.1H93.4572Z" fill="black"/>
</svg>
