<svg width="117" height="80" viewBox="0 0 117 80" fill="none" xmlns="http://www.w3.org/2000/svg">
<path d="M68.5766 27.34L54.9266 65H44.4266L35.9566 41.62L27.2066 65H16.7066L3.12664 27.34H13.4166L22.3066 52.82L31.5466 27.34H40.7866L49.7466 52.82L58.9166 27.34H68.5766ZM95.9133 26.78C99.4133 26.78 102.587 27.5967 105.433 29.23C108.327 30.8167 110.59 33.08 112.223 36.02C113.857 38.9133 114.673 42.2967 114.673 46.17C114.673 50.0433 113.857 53.45 112.223 56.39C110.59 59.2833 108.327 61.5467 105.433 63.18C102.587 64.7667 99.4133 65.56 95.9133 65.56C90.7333 65.56 86.7899 63.9267 84.0833 60.66V65H73.6533V13.06H84.5733V31.33C87.3266 28.2967 91.1066 26.78 95.9133 26.78ZM94.0233 56.6C96.8233 56.6 99.1099 55.6667 100.883 53.8C102.703 51.8867 103.613 49.3433 103.613 46.17C103.613 42.9967 102.703 40.4767 100.883 38.61C99.1099 36.6967 96.8233 35.74 94.0233 35.74C91.2233 35.74 88.9133 36.6967 87.0933 38.61C85.3199 40.4767 84.4333 42.9967 84.4333 46.17C84.4333 49.3433 85.3199 51.8867 87.0933 53.8C88.9133 55.6667 91.2233 56.6 94.0233 56.6Z" fill="#7CC0FF"/>
<path d="M68.5766 27.34L70.4569 28.0215L71.4289 25.34H68.5766V27.34ZM54.9266 65V67H56.3291L56.8069 65.6815L54.9266 65ZM44.4266 65L42.5462 65.6812L43.024 67H44.4266V65ZM35.9566 41.62L37.8371 40.9388L35.9872 35.8325L34.0835 40.919L35.9566 41.62ZM27.2066 65V67H28.5936L29.0798 65.701L27.2066 65ZM16.7066 65L14.8252 65.6784L15.3018 67H16.7066V65ZM3.12664 27.34V25.34H0.279395L1.24522 28.0184L3.12664 27.34ZM13.4166 27.34L15.305 26.6811L14.8371 25.34H13.4166V27.34ZM22.3066 52.82L20.4183 53.4789L22.2703 58.7869L24.1868 53.5018L22.3066 52.82ZM31.5466 27.34V25.34H30.1445L29.6665 26.6582L31.5466 27.34ZM40.7866 27.34L42.6734 26.6765L42.2034 25.34H40.7866V27.34ZM49.7466 52.82L47.8599 53.4835L49.7248 58.7868L51.6285 53.4973L49.7466 52.82ZM58.9166 27.34V25.34H57.5108L57.0348 26.6627L58.9166 27.34ZM66.6963 26.6585L53.0463 64.3185L56.8069 65.6815L70.4569 28.0215L66.6963 26.6585ZM54.9266 63H44.4266V67H54.9266V63ZM46.307 64.3188L37.8371 40.9388L34.0762 42.3012L42.5462 65.6812L46.307 64.3188ZM34.0835 40.919L25.3335 64.299L29.0798 65.701L37.8298 42.321L34.0835 40.919ZM27.2066 63H16.7066V67H27.2066V63ZM18.5881 64.3216L5.00806 26.6616L1.24522 28.0184L14.8252 65.6784L18.5881 64.3216ZM3.12664 29.34H13.4166V25.34H3.12664V29.34ZM11.5283 27.9988L20.4183 53.4789L24.195 52.1611L15.305 26.6811L11.5283 27.9988ZM24.1868 53.5018L33.4268 28.0218L29.6665 26.6582L20.4265 52.1382L24.1868 53.5018ZM31.5466 29.34H40.7866V25.34H31.5466V29.34ZM38.8999 28.0035L47.8599 53.4835L51.6334 52.1565L42.6734 26.6765L38.8999 28.0035ZM51.6285 53.4973L60.7985 28.0173L57.0348 26.6627L47.8648 52.1427L51.6285 53.4973ZM58.9166 29.34H68.5766V25.34H58.9166V29.34ZM105.433 29.23L104.438 30.9647L104.455 30.9743L104.472 30.9836L105.433 29.23ZM112.223 36.02L110.475 36.9913L110.482 37.0032L112.223 36.02ZM112.223 56.39L113.965 57.3732L113.972 57.3613L112.223 56.39ZM105.433 63.18L106.407 64.927L106.416 64.9216L105.433 63.18ZM84.0833 60.66L85.6233 59.384L82.0833 55.1115V60.66H84.0833ZM84.0833 65V67H86.0833V65H84.0833ZM73.6533 65H71.6533V67H73.6533V65ZM73.6533 13.06V11.06H71.6533V13.06H73.6533ZM84.5733 13.06H86.5733V11.06H84.5733V13.06ZM84.5733 31.33H82.5733V36.5091L86.0542 32.6742L84.5733 31.33ZM100.883 53.8L99.4342 52.4216L99.4333 52.4225L100.883 53.8ZM100.883 38.61L99.4164 39.9695L99.4336 39.9881L99.4513 40.0062L100.883 38.61ZM87.0933 38.61L85.6442 37.2316L85.6433 37.2325L87.0933 38.61ZM87.0933 53.8L85.6264 55.1595L85.6436 55.1781L85.6613 55.1962L87.0933 53.8ZM95.9133 28.78C99.0881 28.78 101.914 29.5168 104.438 30.9647L106.429 27.4953C103.259 25.6765 99.7385 24.78 95.9133 24.78V28.78ZM104.472 30.9836C107.028 32.3853 109.021 34.3743 110.475 36.9913L113.972 35.0487C112.159 31.7857 109.626 29.2481 106.395 27.4764L104.472 30.9836ZM110.482 37.0032C111.919 39.5501 112.673 42.5836 112.673 46.17H116.673C116.673 42.0097 115.794 38.2766 113.965 35.0368L110.482 37.0032ZM112.673 46.17C112.673 49.7555 111.92 52.8183 110.475 55.4187L113.972 57.3613C115.794 54.0817 116.673 50.3311 116.673 46.17H112.673ZM110.482 55.4068C109.027 57.983 107.026 59.9841 104.45 61.4384L106.416 64.9216C109.627 63.1093 112.153 60.5837 113.965 57.3732L110.482 55.4068ZM104.46 61.433C101.933 62.8416 99.0984 63.56 95.9133 63.56V67.56C99.7281 67.56 103.241 66.6918 106.407 64.927L104.46 61.433ZM95.9133 63.56C91.1843 63.56 87.8665 62.0913 85.6233 59.384L82.5432 61.936C85.7134 65.762 90.2823 67.56 95.9133 67.56V63.56ZM82.0833 60.66V65H86.0833V60.66H82.0833ZM84.0833 63H73.6533V67H84.0833V63ZM75.6533 65V13.06H71.6533V65H75.6533ZM73.6533 15.06H84.5733V11.06H73.6533V15.06ZM82.5733 13.06V31.33H86.5733V13.06H82.5733ZM86.0542 32.6742C88.362 30.1317 91.5636 28.78 95.9133 28.78V24.78C90.6496 24.78 86.2912 26.4616 83.0924 29.9858L86.0542 32.6742ZM94.0233 58.6C97.3182 58.6 100.147 57.4787 102.333 55.1775L99.4333 52.4225C98.0727 53.8546 96.3284 54.6 94.0233 54.6V58.6ZM102.332 55.1784C104.575 52.8207 105.613 49.7466 105.613 46.17H101.613C101.613 48.9401 100.831 50.9527 99.4342 52.4216L102.332 55.1784ZM105.613 46.17C105.613 42.5953 104.576 39.532 102.315 37.2138L99.4513 40.0062C100.831 41.4213 101.613 43.3981 101.613 46.17H105.613ZM102.35 37.2505C100.168 34.8964 97.3344 33.74 94.0233 33.74V37.74C96.3122 37.74 98.0516 38.4969 99.4164 39.9695L102.35 37.2505ZM94.0233 33.74C90.7125 33.74 87.8664 34.8953 85.6442 37.2316L88.5424 39.9884C89.9601 38.498 91.7341 37.74 94.0233 37.74V33.74ZM85.6433 37.2325C83.4389 39.5529 82.4333 42.6095 82.4333 46.17H86.4333C86.4333 43.3839 87.2009 41.4005 88.5433 39.9875L85.6433 37.2325ZM82.4333 46.17C82.4333 49.7326 83.4395 52.8 85.6264 55.1595L88.5601 52.4405C87.2004 50.9734 86.4333 48.9541 86.4333 46.17H82.4333ZM85.6613 55.1962C87.8876 57.4796 90.7284 58.6 94.0233 58.6V54.6C91.7182 54.6 89.939 53.8538 88.5253 52.4038L85.6613 55.1962Z" fill="black"/>
</svg>
