<svg width="100" height="80" viewBox="0 0 100 80" fill="none" xmlns="http://www.w3.org/2000/svg">
<path d="M68.6684 27.34L55.0184 65H44.5184L36.0484 41.62L27.2984 65H16.7984L3.21844 27.34H13.5084L22.3984 52.82L31.6384 27.34H40.8784L49.8384 52.82L59.0084 27.34H68.6684ZM84.1751 32.31C85.4817 30.49 87.2317 29.1133 89.4251 28.18C91.6651 27.2467 94.2317 26.78 97.1251 26.78V36.86C95.9117 36.7667 95.0951 36.72 94.6751 36.72C91.5484 36.72 89.0984 37.6067 87.3251 39.38C85.5517 41.1067 84.6651 43.72 84.6651 47.22V65H73.7451V27.34H84.1751V32.31Z" fill="#FFC2C2"/>
<path d="M68.6684 27.34L70.5487 28.0215L71.5207 25.34H68.6684V27.34ZM55.0184 65V67H56.4209L56.8987 65.6815L55.0184 65ZM44.5184 65L42.638 65.6812L43.1158 67H44.5184V65ZM36.0484 41.62L37.9288 40.9388L36.079 35.8325L34.1753 40.919L36.0484 41.62ZM27.2984 65V67H28.6854L29.1716 65.701L27.2984 65ZM16.7984 65L14.917 65.6784L15.3936 67H16.7984V65ZM3.21844 27.34V25.34H0.371192L1.33702 28.0184L3.21844 27.34ZM13.5084 27.34L15.3968 26.6811L14.9289 25.34H13.5084V27.34ZM22.3984 52.82L20.5101 53.4789L22.3621 58.7869L24.2786 53.5018L22.3984 52.82ZM31.6384 27.34V25.34H30.2363L29.7582 26.6582L31.6384 27.34ZM40.8784 27.34L42.7652 26.6765L42.2952 25.34H40.8784V27.34ZM49.8384 52.82L47.9517 53.4835L49.8166 58.7868L51.7203 53.4973L49.8384 52.82ZM59.0084 27.34V25.34H57.6026L57.1266 26.6627L59.0084 27.34ZM66.7881 26.6585L53.1381 64.3185L56.8987 65.6815L70.5487 28.0215L66.7881 26.6585ZM55.0184 63H44.5184V67H55.0184V63ZM46.3988 64.3188L37.9288 40.9388L34.168 42.3012L42.638 65.6812L46.3988 64.3188ZM34.1753 40.919L25.4253 64.299L29.1716 65.701L37.9216 42.321L34.1753 40.919ZM27.2984 63H16.7984V67H27.2984V63ZM18.6799 64.3216L5.09986 26.6616L1.33702 28.0184L14.917 65.6784L18.6799 64.3216ZM3.21844 29.34H13.5084V25.34H3.21844V29.34ZM11.6201 27.9988L20.5101 53.4789L24.2868 52.1611L15.3968 26.6811L11.6201 27.9988ZM24.2786 53.5018L33.5186 28.0218L29.7582 26.6582L20.5182 52.1382L24.2786 53.5018ZM31.6384 29.34H40.8784V25.34H31.6384V29.34ZM38.9917 28.0035L47.9517 53.4835L51.7252 52.1565L42.7652 26.6765L38.9917 28.0035ZM51.7203 53.4973L60.8903 28.0173L57.1266 26.6627L47.9566 52.1427L51.7203 53.4973ZM59.0084 29.34H68.6684V25.34H59.0084V29.34ZM84.1751 32.31H82.1751V38.525L85.7997 33.4764L84.1751 32.31ZM89.4251 28.18L88.6558 26.3338L88.6489 26.3367L88.642 26.3397L89.4251 28.18ZM97.1251 26.78H99.1251V24.78H97.1251V26.78ZM97.1251 36.86L96.9717 38.8541L99.1251 39.0198V36.86H97.1251ZM87.3251 39.38L88.7203 40.8129L88.7299 40.8036L88.7393 40.7942L87.3251 39.38ZM84.6651 65V67H86.6651V65H84.6651ZM73.7451 65H71.7451V67H73.7451V65ZM73.7451 27.34V25.34H71.7451V27.34H73.7451ZM84.1751 27.34H86.1751V25.34H84.1751V27.34ZM85.7997 33.4764C86.8791 31.973 88.3293 30.8198 90.2082 30.0203L88.642 26.3397C86.1341 27.4068 84.0844 29.007 82.5504 31.1436L85.7997 33.4764ZM90.1943 30.0262C92.1485 29.2119 94.446 28.78 97.1251 28.78V24.78C94.0175 24.78 91.1817 25.2814 88.6558 26.3338L90.1943 30.0262ZM95.1251 26.78V36.86H99.1251V26.78H95.1251ZM97.2785 34.8659C96.0759 34.7734 95.184 34.72 94.6751 34.72V38.72C95.0061 38.72 95.7475 38.7599 96.9717 38.8541L97.2785 34.8659ZM94.6751 34.72C91.1563 34.72 88.1469 35.7297 85.9109 37.9658L88.7393 40.7942C90.0499 39.4836 91.9405 38.72 94.6751 38.72V34.72ZM85.9298 37.9471C83.6329 40.1835 82.6651 43.4072 82.6651 47.22H86.6651C86.6651 44.0328 87.4706 42.0298 88.7203 40.8129L85.9298 37.9471ZM82.6651 47.22V65H86.6651V47.22H82.6651ZM84.6651 63H73.7451V67H84.6651V63ZM75.7451 65V27.34H71.7451V65H75.7451ZM73.7451 29.34H84.1751V25.34H73.7451V29.34ZM82.1751 27.34V32.31H86.1751V27.34H82.1751Z" fill="black"/>
</svg>
