<svg width="118" height="80" viewBox="0 0 118 80" fill="none" xmlns="http://www.w3.org/2000/svg">
<path d="M50.051 31.1L40.301 58H32.801L26.751 41.3L20.501 58H13.001L3.30098 31.1H10.651L17.001 49.3L23.601 31.1H30.201L36.601 49.3L43.151 31.1H50.051ZM69.5771 30.7C72.0771 30.7 74.3438 31.2833 76.3771 32.45C78.4438 33.5833 80.0605 35.2 81.2271 37.3C82.3938 39.3667 82.9772 41.7833 82.9772 44.55C82.9772 47.3167 82.3938 49.75 81.2271 51.85C80.0605 53.9167 78.4438 55.5333 76.3771 56.7C74.3438 57.8333 72.0771 58.4 69.5771 58.4C65.8771 58.4 63.0605 57.2333 61.1271 54.9V58H53.6771V20.9H61.4771V33.95C63.4438 31.7833 66.1438 30.7 69.5771 30.7ZM68.2271 52C70.2271 52 71.8605 51.3333 73.1271 50C74.4271 48.6333 75.0771 46.8167 75.0771 44.55C75.0771 42.2833 74.4271 40.4833 73.1271 39.15C71.8605 37.7833 70.2271 37.1 68.2271 37.1C66.2271 37.1 64.5771 37.7833 63.2771 39.15C62.0105 40.4833 61.3771 42.2833 61.3771 44.55C61.3771 46.8167 62.0105 48.6333 63.2771 50C64.5771 51.3333 66.2271 52 68.2271 52ZM114.166 31.1L102.016 59.65C100.783 62.75 99.2495 64.9333 97.4162 66.2C95.6162 67.4667 93.4329 68.1 90.8662 68.1C89.4662 68.1 88.0829 67.8833 86.7162 67.45C85.3495 67.0167 84.2329 66.4167 83.3662 65.65L86.2162 60.1C86.8162 60.6333 87.4995 61.05 88.2662 61.35C89.0662 61.65 89.8495 61.8 90.6162 61.8C91.6829 61.8 92.5495 61.5333 93.2162 61C93.8829 60.5 94.4829 59.65 95.0162 58.45L95.1162 58.2L83.4662 31.1H91.5162L99.0662 49.35L106.666 31.1H114.166Z" fill="#C8FF54"/>
<path d="M50.051 31.1L51.9313 31.7815L52.9032 29.1H50.051V31.1ZM40.301 58V60H41.7034L42.1813 58.6815L40.301 58ZM32.801 58L30.9206 58.6812L31.3983 60H32.801V58ZM26.751 41.3L28.6314 40.6188L26.7815 35.5125L24.8779 40.599L26.751 41.3ZM20.501 58V60H21.888L22.3741 58.701L20.501 58ZM13.001 58L11.1196 58.6784L11.5961 60H13.001V58ZM3.30098 31.1V29.1H0.453731L1.41956 31.7784L3.30098 31.1ZM10.651 31.1L12.5393 30.4411L12.0714 29.1H10.651V31.1ZM17.001 49.3L15.1126 49.9589L16.9646 55.2669L18.8812 49.9818L17.001 49.3ZM23.601 31.1V29.1H22.1988L21.7208 30.4182L23.601 31.1ZM30.201 31.1L32.0877 30.4365L31.6177 29.1H30.201V31.1ZM36.601 49.3L34.7142 49.9635L36.5792 55.2668L38.4828 49.9773L36.601 49.3ZM43.151 31.1V29.1H41.7452L41.2691 30.4227L43.151 31.1ZM48.1707 30.4185L38.4207 57.3185L42.1813 58.6815L51.9313 31.7815L48.1707 30.4185ZM40.301 56H32.801V60H40.301V56ZM34.6814 57.3188L28.6314 40.6188L24.8706 41.9812L30.9206 58.6812L34.6814 57.3188ZM24.8779 40.599L18.6279 57.299L22.3741 58.701L28.6241 42.001L24.8779 40.599ZM20.501 56H13.001V60H20.501V56ZM14.8824 57.3216L5.18239 30.4216L1.41956 31.7784L11.1196 58.6784L14.8824 57.3216ZM3.30098 33.1H10.651V29.1H3.30098V33.1ZM8.76261 31.7588L15.1126 49.9589L18.8893 48.6411L12.5393 30.4411L8.76261 31.7588ZM18.8812 49.9818L25.4812 31.7818L21.7208 30.4182L15.1208 48.6182L18.8812 49.9818ZM23.601 33.1H30.201V29.1H23.601V33.1ZM28.3142 31.7635L34.7142 49.9635L38.4877 48.6365L32.0877 30.4365L28.3142 31.7635ZM38.4828 49.9773L45.0328 31.7773L41.2691 30.4227L34.7191 48.6227L38.4828 49.9773ZM43.151 33.1H50.051V29.1H43.151V33.1ZM76.3771 32.45L75.3818 34.1847L75.3986 34.1943L75.4155 34.2036L76.3771 32.45ZM81.2271 37.3L79.4788 38.2713L79.4855 38.2832L81.2271 37.3ZM81.2271 51.85L82.9688 52.8332L82.9755 52.8213L81.2271 51.85ZM76.3771 56.7L77.3509 58.447L77.3603 58.4416L76.3771 56.7ZM61.1271 54.9L62.6672 53.624L59.1271 49.3515V54.9H61.1271ZM61.1271 58V60H63.1271V58H61.1271ZM53.6771 58H51.6771V60H53.6771V58ZM53.6771 20.9V18.9H51.6771V20.9H53.6771ZM61.4771 20.9H63.4771V18.9H61.4771V20.9ZM61.4771 33.95H59.4771V39.1291L62.9581 35.2942L61.4771 33.95ZM73.1271 50L71.678 48.6216L71.6772 48.6225L73.1271 50ZM73.1271 39.15L71.6603 40.5095L71.6775 40.5281L71.6951 40.5462L73.1271 39.15ZM63.2771 39.15L61.828 37.7716L61.8271 37.7725L63.2771 39.15ZM63.2771 50L61.8103 51.3595L61.8275 51.3781L61.8451 51.3962L63.2771 50ZM69.5771 32.7C71.7519 32.7 73.6716 33.2035 75.3818 34.1847L77.3725 30.7153C75.016 29.3632 72.4024 28.7 69.5771 28.7V32.7ZM75.4155 34.2036C77.1447 35.1519 78.4916 36.4943 79.4788 38.2713L82.9755 36.3287C81.6293 33.9057 79.7429 32.0147 77.3388 30.6964L75.4155 34.2036ZM79.4855 38.2832C80.4566 40.0034 80.9772 42.0703 80.9772 44.55H84.9772C84.9772 41.4964 84.331 38.7299 82.9688 36.3168L79.4855 38.2832ZM80.9772 44.55C80.9772 47.0289 80.4569 49.1183 79.4788 50.8787L82.9755 52.8213C84.3308 50.3817 84.9772 47.6045 84.9772 44.55H80.9772ZM79.4855 50.8668C78.4979 52.6163 77.1435 53.9707 75.394 54.9584L77.3603 58.4416C79.7442 57.0959 81.6231 55.217 82.9688 52.8332L79.4855 50.8668ZM75.4034 54.953C73.6897 55.9082 71.7623 56.4 69.5771 56.4V60.4C72.392 60.4 74.9979 59.7584 77.3509 58.447L75.4034 54.953ZM69.5771 56.4C66.3281 56.4 64.1371 55.398 62.6672 53.624L59.5871 56.176C61.9839 59.0687 65.4262 60.4 69.5771 60.4V56.4ZM59.1271 54.9V58H63.1271V54.9H59.1271ZM61.1271 56H53.6771V60H61.1271V56ZM55.6771 58V20.9H51.6771V58H55.6771ZM53.6771 22.9H61.4771V18.9H53.6771V22.9ZM59.4771 20.9V33.95H63.4771V20.9H59.4771ZM62.9581 35.2942C64.4792 33.6184 66.6008 32.7 69.5771 32.7V28.7C65.6868 28.7 62.4084 29.9483 59.9962 32.6058L62.9581 35.2942ZM68.2271 54C70.7221 54 72.8977 53.1454 74.5771 51.3775L71.6772 48.6225C70.8233 49.5213 69.7322 50 68.2271 50V54ZM74.5763 51.3784C76.299 49.5673 77.0771 47.2199 77.0771 44.55H73.0771C73.0771 46.4134 72.5553 47.6993 71.678 48.6216L74.5763 51.3784ZM77.0771 44.55C77.0771 41.8819 76.2994 39.5387 74.5592 37.7538L71.6951 40.5462C72.5549 41.428 73.0771 42.6847 73.0771 44.55H77.0771ZM74.594 37.7905C72.9189 35.9831 70.7382 35.1 68.2271 35.1V39.1C69.7161 39.1 70.8021 39.5836 71.6603 40.5095L74.594 37.7905ZM68.2271 35.1C65.7163 35.1 63.5303 35.982 61.828 37.7716L64.7263 40.5284C65.624 39.5847 66.738 39.1 68.2271 39.1V35.1ZM61.8271 37.7725C60.1295 39.5595 59.3771 41.8961 59.3771 44.55H63.3771C63.3771 42.6705 63.8915 41.4071 64.7271 40.5275L61.8271 37.7725ZM59.3771 44.55C59.3771 47.2059 60.13 49.5466 61.8103 51.3595L64.744 48.6405C63.8909 47.72 63.3771 46.4274 63.3771 44.55H59.3771ZM61.8451 51.3962C63.5514 53.1462 65.7322 54 68.2271 54V50C66.722 50 65.6029 49.5204 64.7091 48.6038L61.8451 51.3962ZM114.166 31.1L116.006 31.8832L117.191 29.1H114.166V31.1ZM102.016 59.65L100.176 58.8668L100.167 58.8886L100.158 58.9107L102.016 59.65ZM97.4162 66.2L96.2793 64.5545L96.2723 64.5594L96.2652 64.5644L97.4162 66.2ZM86.7162 67.45L87.3207 65.5435L86.7162 67.45ZM83.3662 65.65L81.5871 64.7364L80.8773 66.1185L82.0411 67.148L83.3662 65.65ZM86.2162 60.1L87.5449 58.6052L85.616 56.8906L84.4371 59.1864L86.2162 60.1ZM88.2662 61.35L87.5374 63.2125L87.5507 63.2177L87.564 63.2227L88.2662 61.35ZM93.2162 61L92.0162 59.4L91.9912 59.4187L91.9668 59.4383L93.2162 61ZM95.0162 58.45L96.8438 59.2623L96.8592 59.2278L96.8732 59.1928L95.0162 58.45ZM95.1162 58.2L96.9732 58.9428L97.2813 58.1724L96.9536 57.4101L95.1162 58.2ZM83.4662 31.1V29.1H80.4295L81.6288 31.8899L83.4662 31.1ZM91.5162 31.1L93.3643 30.3354L92.8532 29.1H91.5162V31.1ZM99.0662 49.35L97.2181 50.1146L99.0601 54.5671L100.913 50.1189L99.0662 49.35ZM106.666 31.1V29.1H105.333L104.82 30.3311L106.666 31.1ZM112.326 30.3168L100.176 58.8668L103.856 60.4332L116.006 31.8832L112.326 30.3168ZM100.158 58.9107C99.0023 61.8152 97.664 63.5979 96.2793 64.5545L98.5531 67.8455C100.835 66.2688 102.563 63.6848 103.875 60.3893L100.158 58.9107ZM96.2652 64.5644C94.8556 65.5564 93.0913 66.1 90.8662 66.1V70.1C93.7744 70.1 96.3768 69.377 98.5672 67.8356L96.2652 64.5644ZM90.8662 66.1C89.6763 66.1 88.4966 65.9164 87.3207 65.5435L86.1117 69.3565C87.6691 69.8503 89.2562 70.1 90.8662 70.1V66.1ZM87.3207 65.5435C86.1583 65.175 85.3053 64.6951 84.6914 64.152L82.0411 67.148C83.1605 68.1382 84.5408 68.8584 86.1117 69.3565L87.3207 65.5435ZM85.1453 66.5636L87.9953 61.0136L84.4371 59.1864L81.5871 64.7364L85.1453 66.5636ZM84.8875 61.5948C85.6687 62.2892 86.5563 62.8286 87.5374 63.2125L88.995 59.4875C88.4428 59.2714 87.9637 58.9774 87.5449 58.6052L84.8875 61.5948ZM87.564 63.2227C88.5629 63.5973 89.5838 63.8 90.6162 63.8V59.8C90.1152 59.8 89.5695 59.7027 88.9685 59.4773L87.564 63.2227ZM90.6162 63.8C92.0211 63.8 93.3633 63.4436 94.4656 62.5617L91.9668 59.4383C91.7358 59.6231 91.3446 59.8 90.6162 59.8V63.8ZM94.4162 62.6C95.4696 61.81 96.2442 60.6116 96.8438 59.2623L93.1886 57.6377C92.7216 58.6884 92.2962 59.19 92.0162 59.4L94.4162 62.6ZM96.8732 59.1928L96.9732 58.9428L93.2593 57.4572L93.1593 57.7072L96.8732 59.1928ZM96.9536 57.4101L85.3036 30.3101L81.6288 31.8899L93.2788 58.9899L96.9536 57.4101ZM83.4662 33.1H91.5162V29.1H83.4662V33.1ZM89.6681 31.8646L97.2181 50.1146L100.914 48.5854L93.3643 30.3354L89.6681 31.8646ZM100.913 50.1189L108.513 31.8689L104.82 30.3311L97.2199 48.5811L100.913 50.1189ZM106.666 33.1H114.166V29.1H106.666V33.1Z" fill="black"/>
</svg>
