<svg width="106" height="80" viewBox="0 0 106 80" fill="none" xmlns="http://www.w3.org/2000/svg">
<path d="M49.8127 31.1L40.0627 58H32.5627L26.5127 41.3L20.2627 58H12.7627L3.0627 31.1H10.4127L16.7627 49.3L23.3627 31.1H29.9627L36.3627 49.3L42.9127 31.1H49.8127ZM60.8889 34.65C61.8222 33.35 63.0722 32.3667 64.6389 31.7C66.2389 31.0333 68.0722 30.7 70.1389 30.7V37.9C69.2722 37.8333 68.6889 37.8 68.3889 37.8C66.1555 37.8 64.4055 38.4333 63.1389 39.7C61.8722 40.9333 61.2389 42.8 61.2389 45.3V58H53.4389V31.1H60.8889V34.65ZM102.404 31.1L90.2545 59.65C89.0212 62.75 87.4878 64.9333 85.6545 66.2C83.8545 67.4667 81.6712 68.1 79.1045 68.1C77.7045 68.1 76.3212 67.8833 74.9545 67.45C73.5878 67.0167 72.4712 66.4167 71.6045 65.65L74.4545 60.1C75.0545 60.6333 75.7378 61.05 76.5045 61.35C77.3045 61.65 78.0878 61.8 78.8545 61.8C79.9212 61.8 80.7878 61.5333 81.4545 61C82.1212 60.5 82.7212 59.65 83.2545 58.45L83.3545 58.2L71.7045 31.1H79.7545L87.3045 49.35L94.9045 31.1H102.404Z" fill="#FFBF5F"/>
<path d="M49.8127 31.1L51.693 31.7815L52.6649 29.1H49.8127V31.1ZM40.0627 58V60H41.4651L41.943 58.6815L40.0627 58ZM32.5627 58L30.6823 58.6812L31.16 60H32.5627V58ZM26.5127 41.3L28.3931 40.6188L26.5432 35.5125L24.6396 40.599L26.5127 41.3ZM20.2627 58V60H21.6497L22.1358 58.701L20.2627 58ZM12.7627 58L10.8813 58.6784L11.3578 60H12.7627V58ZM3.0627 31.1V29.1H0.21545L1.18128 31.7784L3.0627 31.1ZM10.4127 31.1L12.3011 30.4411L11.8331 29.1H10.4127V31.1ZM16.7627 49.3L14.8743 49.9589L16.7263 55.2669L18.6429 49.9818L16.7627 49.3ZM23.3627 31.1V29.1H21.9605L21.4825 30.4182L23.3627 31.1ZM29.9627 31.1L31.8494 30.4365L31.3795 29.1H29.9627V31.1ZM36.3627 49.3L34.476 49.9635L36.3409 55.2668L38.2445 49.9773L36.3627 49.3ZM42.9127 31.1V29.1H41.5069L41.0309 30.4227L42.9127 31.1ZM47.9324 30.4185L38.1824 57.3185L41.943 58.6815L51.693 31.7815L47.9324 30.4185ZM40.0627 56H32.5627V60H40.0627V56ZM34.4431 57.3188L28.3931 40.6188L24.6323 41.9812L30.6823 58.6812L34.4431 57.3188ZM24.6396 40.599L18.3896 57.299L22.1358 58.701L28.3858 42.001L24.6396 40.599ZM20.2627 56H12.7627V60H20.2627V56ZM14.6441 57.3216L4.94411 30.4216L1.18128 31.7784L10.8813 58.6784L14.6441 57.3216ZM3.0627 33.1H10.4127V29.1H3.0627V33.1ZM8.52433 31.7588L14.8743 49.9589L18.6511 48.6411L12.3011 30.4411L8.52433 31.7588ZM18.6429 49.9818L25.2429 31.7818L21.4825 30.4182L14.8825 48.6182L18.6429 49.9818ZM23.3627 33.1H29.9627V29.1H23.3627V33.1ZM28.076 31.7635L34.476 49.9635L38.2494 48.6365L31.8494 30.4365L28.076 31.7635ZM38.2445 49.9773L44.7945 31.7773L41.0309 30.4227L34.4809 48.6227L38.2445 49.9773ZM42.9127 33.1H49.8127V29.1H42.9127V33.1ZM60.8889 34.65H58.8889V40.865L62.5135 35.8164L60.8889 34.65ZM64.6389 31.7L63.8696 29.8538L63.8627 29.8567L63.8558 29.8597L64.6389 31.7ZM70.1389 30.7H72.1389V28.7H70.1389V30.7ZM70.1389 37.9L69.9855 39.8941L72.1389 40.0598V37.9H70.1389ZM63.1389 39.7L64.5341 41.1329L64.5437 41.1236L64.5531 41.1142L63.1389 39.7ZM61.2389 58V60H63.2389V58H61.2389ZM53.4389 58H51.4389V60H53.4389V58ZM53.4389 31.1V29.1H51.4389V31.1H53.4389ZM60.8889 31.1H62.8889V29.1H60.8889V31.1ZM62.5135 35.8164C63.2195 34.833 64.1698 34.0731 65.422 33.5403L63.8558 29.8597C61.9746 30.6602 60.4249 31.867 59.2642 33.4836L62.5135 35.8164ZM65.4081 33.5462C66.7223 32.9986 68.2865 32.7 70.1389 32.7V28.7C67.8579 28.7 65.7555 29.0681 63.8696 29.8538L65.4081 33.5462ZM68.1389 30.7V37.9H72.1389V30.7H68.1389ZM70.2923 35.9059C69.4364 35.8401 68.7778 35.8 68.3889 35.8V39.8C68.5999 39.8 69.108 39.8266 69.9855 39.8941L70.2923 35.9059ZM68.3889 35.8C65.7635 35.8 63.4541 36.5564 61.7247 38.2858L64.5531 41.1142C65.357 40.3103 66.5476 39.8 68.3889 39.8V35.8ZM61.7436 38.2671C59.9534 40.0102 59.2389 42.4872 59.2389 45.3H63.2389C63.2389 43.1128 63.791 41.8565 64.5341 41.1329L61.7436 38.2671ZM59.2389 45.3V58H63.2389V45.3H59.2389ZM61.2389 56H53.4389V60H61.2389V56ZM55.4389 58V31.1H51.4389V58H55.4389ZM53.4389 33.1H60.8889V29.1H53.4389V33.1ZM58.8889 31.1V34.65H62.8889V31.1H58.8889ZM102.404 31.1L104.245 31.8832L105.429 29.1H102.404V31.1ZM90.2545 59.65L88.4142 58.8668L88.4049 58.8886L88.3962 58.9107L90.2545 59.65ZM85.6545 66.2L84.5176 64.5545L84.5105 64.5594L84.5035 64.5644L85.6545 66.2ZM74.9545 67.45L75.559 65.5435L74.9545 67.45ZM71.6045 65.65L69.8254 64.7364L69.1156 66.1185L70.2793 67.148L71.6045 65.65ZM74.4545 60.1L75.7832 58.6052L73.8543 56.8906L72.6754 59.1864L74.4545 60.1ZM76.5045 61.35L75.7757 63.2125L75.7889 63.2177L75.8022 63.2227L76.5045 61.35ZM81.4545 61L80.2545 59.4L80.2295 59.4187L80.2051 59.4383L81.4545 61ZM83.2545 58.45L85.0821 59.2623L85.0974 59.2278L85.1114 59.1928L83.2545 58.45ZM83.3545 58.2L85.2114 58.9428L85.5196 58.1724L85.1919 57.4101L83.3545 58.2ZM71.7045 31.1V29.1H68.6677L69.8671 31.8899L71.7045 31.1ZM79.7545 31.1L81.6026 30.3354L81.0915 29.1H79.7545V31.1ZM87.3045 49.35L85.4564 50.1146L87.2984 54.5671L89.1508 50.1189L87.3045 49.35ZM94.9045 31.1V29.1H93.5709L93.0582 30.3311L94.9045 31.1ZM100.564 30.3168L88.4142 58.8668L92.0948 60.4332L104.245 31.8832L100.564 30.3168ZM88.3962 58.9107C87.2406 61.8152 85.9023 63.5979 84.5176 64.5545L86.7914 67.8455C89.0734 66.2688 90.8017 63.6848 92.1128 60.3893L88.3962 58.9107ZM84.5035 64.5644C83.0939 65.5564 81.3296 66.1 79.1045 66.1V70.1C82.0127 70.1 84.6151 69.377 86.8055 67.8356L84.5035 64.5644ZM79.1045 66.1C77.9145 66.1 76.7349 65.9164 75.559 65.5435L74.35 69.3565C75.9074 69.8503 77.4945 70.1 79.1045 70.1V66.1ZM75.559 65.5435C74.3966 65.175 73.5436 64.6951 72.9296 64.152L70.2793 67.148C71.3988 68.1382 72.7791 68.8584 74.35 69.3565L75.559 65.5435ZM73.3836 66.5636L76.2336 61.0136L72.6754 59.1864L69.8254 64.7364L73.3836 66.5636ZM73.1258 61.5948C73.907 62.2892 74.7946 62.8286 75.7757 63.2125L77.2333 59.4875C76.681 59.2714 76.202 58.9774 75.7832 58.6052L73.1258 61.5948ZM75.8022 63.2227C76.8012 63.5973 77.8221 63.8 78.8545 63.8V59.8C78.3535 59.8 77.8078 59.7027 77.2067 59.4773L75.8022 63.2227ZM78.8545 63.8C80.2594 63.8 81.6016 63.4436 82.7039 62.5617L80.2051 59.4383C79.9741 59.6231 79.5829 59.8 78.8545 59.8V63.8ZM82.6545 62.6C83.7078 61.81 84.4824 60.6116 85.0821 59.2623L81.4269 57.6377C80.9599 58.6884 80.5345 59.19 80.2545 59.4L82.6545 62.6ZM85.1114 59.1928L85.2114 58.9428L81.4975 57.4572L81.3975 57.7072L85.1114 59.1928ZM85.1919 57.4101L73.5419 30.3101L69.8671 31.8899L81.5171 58.9899L85.1919 57.4101ZM71.7045 33.1H79.7545V29.1H71.7045V33.1ZM77.9064 31.8646L85.4564 50.1146L89.1526 48.5854L81.6026 30.3354L77.9064 31.8646ZM89.1508 50.1189L96.7508 31.8689L93.0582 30.3311L85.4582 48.5811L89.1508 50.1189ZM94.9045 33.1H102.404V29.1H94.9045V33.1Z" fill="black"/>
</svg>
