<svg width="80" height="80" viewBox="0 0 80 80" fill="none" xmlns="http://www.w3.org/2000/svg">
<circle cx="40" cy="40" r="31" fill="white"/>
<path d="M39.6265 39.6265C39.6265 35.6046 38.8343 31.622 37.2952 27.9062C35.7561 24.1905 33.5001 20.8142 30.6562 17.9703C27.8123 15.1264 24.436 12.8704 20.7203 11.3313C17.0045 9.79218 13.0219 9 9 9L9 39.6265H39.6265Z" fill="white"/>
<path d="M40.3735 39.6265C40.3735 35.6046 41.1657 31.622 42.7048 27.9062C44.244 24.1905 46.4999 20.8142 49.3438 17.9703C52.1878 15.1264 55.564 12.8704 59.2798 11.3313C62.9956 9.79218 66.9781 9 71 9V39.6265H40.3735Z" fill="white"/>
</svg>
