<svg width="114" height="83" viewBox="0 0 114 83" fill="none" xmlns="http://www.w3.org/2000/svg">
<path d="M68.7681 28.34L55.1181 66H44.618L36.148 42.62L27.398 66H16.898L3.31805 28.34H13.608L22.498 53.82L31.738 28.34H40.978L49.9381 53.82L59.108 28.34H68.7681ZM110.336 28.34L93.326 68.31C91.5993 72.65 89.4527 75.7067 86.886 77.48C84.366 79.2533 81.3093 80.14 77.716 80.14C75.756 80.14 73.8193 79.8367 71.906 79.23C69.9927 78.6233 68.4293 77.7833 67.216 76.71L71.206 68.94C72.046 69.6867 73.0027 70.27 74.076 70.69C75.196 71.11 76.2927 71.32 77.366 71.32C78.8593 71.32 80.0727 70.9467 81.006 70.2C81.9393 69.5 82.7793 68.31 83.526 66.63L83.666 66.28L67.356 28.34H78.626L89.196 53.89L99.836 28.34H110.336Z" fill="#FDFF81"/>
<path d="M68.7681 28.34L70.6484 29.0215L71.6203 26.34H68.7681V28.34ZM55.1181 66V68H56.5205L56.9984 66.6815L55.1181 66ZM44.618 66L42.7376 66.6812L43.2154 68H44.618V66ZM36.148 42.62L38.0285 41.9388L36.1786 36.8325L34.2749 41.919L36.148 42.62ZM27.398 66V68H28.785L29.2712 66.701L27.398 66ZM16.898 66L15.0166 66.6784L15.4932 68H16.898V66ZM3.31805 28.34V26.34H0.470801L1.43663 29.0184L3.31805 28.34ZM13.608 28.34L15.4964 27.6811L15.0285 26.34H13.608V28.34ZM22.498 53.82L20.6097 54.4789L22.4617 59.7869L24.3782 54.5018L22.498 53.82ZM31.738 28.34V26.34H30.3359L29.8579 27.6582L31.738 28.34ZM40.978 28.34L42.8648 27.6765L42.3948 26.34H40.978V28.34ZM49.9381 53.82L48.0513 54.4835L49.9162 59.7868L51.8199 54.4973L49.9381 53.82ZM59.108 28.34V26.34H57.7023L57.2262 27.6627L59.108 28.34ZM66.8878 27.6585L53.2378 65.3185L56.9984 66.6815L70.6484 29.0215L66.8878 27.6585ZM55.1181 64H44.618V68H55.1181V64ZM46.4985 65.3188L38.0285 41.9388L34.2676 43.3012L42.7376 66.6812L46.4985 65.3188ZM34.2749 41.919L25.5249 65.299L29.2712 66.701L38.0212 43.321L34.2749 41.919ZM27.398 64H16.898V68H27.398V64ZM18.7795 65.3216L5.19946 27.6616L1.43663 29.0184L15.0166 66.6784L18.7795 65.3216ZM3.31805 30.34H13.608V26.34H3.31805V30.34ZM11.7197 28.9988L20.6097 54.4789L24.3864 53.1611L15.4964 27.6811L11.7197 28.9988ZM24.3782 54.5018L33.6182 29.0218L29.8579 27.6582L20.6179 53.1382L24.3782 54.5018ZM31.738 30.34H40.978V26.34H31.738V30.34ZM39.0913 29.0035L48.0513 54.4835L51.8248 53.1565L42.8648 27.6765L39.0913 29.0035ZM51.8199 54.4973L60.9899 29.0173L57.2262 27.6627L48.0562 53.1427L51.8199 54.4973ZM59.108 30.34H68.7681V26.34H59.108V30.34ZM110.336 28.34L112.176 29.1232L113.361 26.34H110.336V28.34ZM93.326 68.31L91.4857 67.5268L91.4764 67.5486L91.4677 67.5707L93.326 68.31ZM86.886 77.48L85.7492 75.8345L85.7421 75.8394L85.735 75.8444L86.886 77.48ZM71.906 79.23L72.5105 77.3235L71.906 79.23ZM67.216 76.71L65.4369 75.7964L64.7271 77.1785L65.8909 78.208L67.216 76.71ZM71.206 68.94L72.5347 67.4452L70.6058 65.7306L69.4269 68.0264L71.206 68.94ZM74.076 70.69L73.3472 72.5525L73.3605 72.5577L73.3738 72.5627L74.076 70.69ZM81.006 70.2L79.806 68.6L79.781 68.6187L79.7566 68.6383L81.006 70.2ZM83.526 66.63L85.3536 67.4423L85.369 67.4078L85.383 67.3728L83.526 66.63ZM83.666 66.28L85.523 67.0228L85.8311 66.2524L85.5034 65.4901L83.666 66.28ZM67.356 28.34V26.34H64.3193L65.5186 29.1299L67.356 28.34ZM78.626 28.34L80.4741 27.5754L79.963 26.34H78.626V28.34ZM89.196 53.89L87.3479 54.6546L89.1899 59.1071L91.0423 54.6589L89.196 53.89ZM99.836 28.34V26.34H98.5024L97.9897 27.5711L99.836 28.34ZM108.496 27.5568L91.4857 67.5268L95.1663 69.0932L112.176 29.1232L108.496 27.5568ZM91.4677 67.5707C89.8188 71.7152 87.8671 74.3712 85.7492 75.8345L88.0229 79.1255C91.0383 77.0421 93.3799 73.5848 95.1843 69.0493L91.4677 67.5707ZM85.735 75.8444C83.6054 77.343 80.9678 78.14 77.716 78.14V82.14C81.6509 82.14 85.1266 81.1636 88.037 79.1156L85.735 75.8444ZM77.716 78.14C75.9661 78.14 74.2331 77.8697 72.5105 77.3235L71.3015 81.1365C73.4056 81.8036 75.546 82.14 77.716 82.14V78.14ZM72.5105 77.3235C70.8014 76.7816 69.5017 76.0618 68.5412 75.212L65.8909 78.208C67.357 79.5049 69.1839 80.465 71.3015 81.1365L72.5105 77.3235ZM68.9951 77.6236L72.9851 69.8536L69.4269 68.0264L65.4369 75.7964L68.9951 77.6236ZM69.8773 70.4348C70.8985 71.3426 72.0595 72.0486 73.3472 72.5525L74.8048 68.8275C73.9459 68.4914 73.1935 68.0308 72.5347 67.4452L69.8773 70.4348ZM73.3738 72.5627C74.6927 73.0573 76.027 73.32 77.366 73.32V69.32C76.5584 69.32 75.6993 69.1627 74.7783 68.8173L73.3738 72.5627ZM77.366 73.32C79.1976 73.32 80.8864 72.8569 82.2554 71.7617L79.7566 68.6383C79.2589 69.0364 78.5211 69.32 77.366 69.32V73.32ZM82.206 71.8C83.526 70.81 84.5406 69.2716 85.3536 67.4423L81.6984 65.8177C81.0181 67.3484 80.3527 68.19 79.806 68.6L82.206 71.8ZM85.383 67.3728L85.523 67.0228L81.8091 65.5372L81.6691 65.8872L85.383 67.3728ZM85.5034 65.4901L69.1934 27.5501L65.5186 29.1299L81.8286 67.0699L85.5034 65.4901ZM67.356 30.34H78.626V26.34H67.356V30.34ZM76.7779 29.1046L87.3479 54.6546L91.0441 53.1254L80.4741 27.5754L76.7779 29.1046ZM91.0423 54.6589L101.682 29.1089L97.9897 27.5711L87.3497 53.1211L91.0423 54.6589ZM99.836 30.34H110.336V26.34H99.836V30.34Z" fill="black"/>
</svg>
