<svg width="80" height="80" viewBox="0 0 80 80" fill="none" xmlns="http://www.w3.org/2000/svg">
<mask id="path-2-inside-1" fill="white">
<path fill-rule="evenodd" clip-rule="evenodd" d="M49.0488 11H11V69H69V30.9756L49.0366 11.0122L49.0488 11Z"/>
</mask>
<path d="M11 11V8H8V11H11ZM49.0488 11L51.1701 13.1214L56.2918 8H49.0488V11ZM11 69H8V72H11V69ZM69 69V72H72V69H69ZM69 30.9756H72V29.733L71.1213 28.8543L69 30.9756ZM49.0366 11.0122L46.9154 8.89083L44.7939 11.0121L46.9153 13.1335L49.0366 11.0122ZM11 14H49.0488V8H11V14ZM14 69V11H8V69H14ZM69 66H11V72H69V66ZM66 30.9756V69H72V30.9756H66ZM71.1213 28.8543L51.1579 8.8909L46.9153 13.1335L66.8787 33.0969L71.1213 28.8543ZM51.1579 13.1336L51.1701 13.1214L46.9276 8.87861L46.9154 8.89083L51.1579 13.1336Z" fill="#7CC0FF" mask="url(#path-2-inside-1)"/>
</svg>
