<svg width="905" height="905" viewBox="0 0 905 905" fill="none" xmlns="http://www.w3.org/2000/svg">
<g clip-path="url(#clip0)">
<path d="M155.368 248.774C151.958 182.588 202.849 126.169 269.035 122.76L727.428 99.1475L771.776 960.093L193.543 989.879L155.368 248.774Z" fill="white"/>
<path fill-rule="evenodd" clip-rule="evenodd" d="M457.153 300.636L335.85 306.884L345.375 491.794L530.285 482.269L524.041 361.043L457.117 300.676L457.153 300.636Z" fill="#FF4329"/>
<path fill-rule="evenodd" clip-rule="evenodd" d="M487.392 267.114L366.089 273.362L375.614 458.272L560.524 448.747L554.28 327.521L487.356 267.154L487.392 267.114Z" fill="#FFD600"/>
<path fill-rule="evenodd" clip-rule="evenodd" d="M517.63 233.59L396.327 239.838L405.852 424.748L590.762 415.223L584.517 293.997L517.593 233.63L517.63 233.59Z" fill="#0085FF"/>
<circle r="60.6434" transform="matrix(0.998676 -0.0514432 -0.0514432 -0.998676 492.339 330.008)" fill="white"/>
<path fill-rule="evenodd" clip-rule="evenodd" d="M484.364 306.207C486.987 306.072 489.224 308.089 489.359 310.713L490.582 334.462L514.331 333.239C516.955 333.104 519.191 335.121 519.326 337.744C519.461 340.367 517.444 342.603 514.821 342.738L486.322 344.207C483.698 344.342 481.462 342.325 481.327 339.701L479.859 311.202C479.724 308.579 481.741 306.343 484.364 306.207Z" fill="#222222"/>
</g>
<defs>
<clipPath id="clip0">
<rect width="905" height="905" fill="white"/>
</clipPath>
</defs>
</svg>
