<svg width="905" height="905" viewBox="0 0 905 905" fill="none" xmlns="http://www.w3.org/2000/svg">
<g clip-path="url(#clip0)">
<path d="M127.302 356.712C116.019 291.405 159.813 229.317 225.12 218.033L677.418 139.887L809.362 903.553L238.815 1002.13L127.302 356.712Z" fill="#823525"/>
<path d="M287.951 264.515L631.363 205.182L755.167 921.744L295.971 1001.08L192.171 400.304C181.122 336.358 224.004 275.563 287.951 264.515Z" fill="#823525" stroke="#FFC2C2" stroke-width="5"/>
<path fill-rule="evenodd" clip-rule="evenodd" d="M368.574 341.411L287.844 355.359L268.227 397.047L268.227 397.047L349.321 470.575L401.042 374.1L368.574 341.411Z" fill="#FF4329"/>
<path d="M474.884 371.442L472.276 328.334L513.761 316.327L601.946 378.528L604.554 421.637L563.07 433.644L474.884 371.442Z" fill="white"/>
</g>
<defs>
<clipPath id="clip0">
<rect width="905" height="905" fill="white"/>
</clipPath>
</defs>
</svg>
