<svg width="905" height="905" viewBox="0 0 905 905" fill="none" xmlns="http://www.w3.org/2000/svg">
<path d="M761.763 179.479L801.332 179.479L829.311 207.458L829.311 247.026L801.332 275.006L761.763 275.006L733.784 247.026L733.784 207.458L761.763 179.479Z" fill="#FF9A3D"/>
<rect x="724.84" y="260.133" width="113.332" height="105.867" fill="#FF9A3D"/>
<ellipse rx="38.6822" ry="39.3608" transform="matrix(1 0 0 -1 781.167 238.417)" fill="#222222"/>
<rect x="76" y="331" width="56" height="100" fill="#FFD600"/>
<rect x="76" y="331" width="56" height="16" fill="white"/>
<path d="M220.489 247.878L274.245 247.878L312.256 285.889L312.256 339.645L274.245 377.657L220.489 377.657L182.477 339.645L182.477 285.889L220.489 247.878Z" fill="#239727"/>
<rect x="209" y="357" width="76" height="179" fill="#FFD600"/>
<rect x="153" y="536" width="47" height="141" fill="#239727"/>
<rect width="132" height="39" transform="matrix(1 0 0 -1 153 536)" fill="#239727"/>
<circle r="15" transform="matrix(1 0 0 -1 247 468)" fill="#222222"/>
<ellipse rx="52.5" ry="53" transform="matrix(1 0 0 -1 247.5 328)" fill="#222222"/>
<rect x="153" y="677" width="47" height="28" fill="#FFD600"/>
<circle r="15" transform="matrix(1 0 0 -1 132 422)" fill="#222222"/>
</svg>
