<svg width="81" height="82" viewBox="0 0 81 82" fill="none" xmlns="http://www.w3.org/2000/svg">
<path d="M18.9661 32.31C20.2728 30.49 22.0228 29.1133 24.2161 28.18C26.4561 27.2467 29.0228 26.78 31.9161 26.78V36.86C30.7028 36.7667 29.8861 36.72 29.4661 36.72C26.3394 36.72 23.8894 37.6067 22.1161 39.38C20.3428 41.1067 19.4561 43.72 19.4561 47.22V65H8.53609V27.34H18.9661V32.31ZM77.088 27.34L60.078 67.31C58.3513 71.65 56.2046 74.7067 53.638 76.48C51.118 78.2533 48.0613 79.14 44.468 79.14C42.508 79.14 40.5713 78.8367 38.658 78.23C36.7446 77.6233 35.1813 76.7833 33.968 75.71L37.958 67.94C38.798 68.6867 39.7546 69.27 40.828 69.69C41.948 70.11 43.0446 70.32 44.118 70.32C45.6113 70.32 46.8246 69.9467 47.758 69.2C48.6913 68.5 49.5313 67.31 50.278 65.63L50.418 65.28L34.108 27.34H45.378L55.948 52.89L66.588 27.34H77.088Z" fill="#FF9A3D"/>
<path d="M18.9661 32.31H16.9661V38.525L20.5907 33.4764L18.9661 32.31ZM24.2161 28.18L23.4469 26.3338L23.4399 26.3367L23.433 26.3397L24.2161 28.18ZM31.9161 26.78H33.9161V24.78H31.9161V26.78ZM31.9161 36.86L31.7627 38.8541L33.9161 39.0198V36.86H31.9161ZM22.1161 39.38L23.5113 40.8129L23.5209 40.8036L23.5303 40.7942L22.1161 39.38ZM19.4561 65V67H21.4561V65H19.4561ZM8.53609 65H6.53609V67H8.53609V65ZM8.53609 27.34V25.34H6.53609V27.34H8.53609ZM18.9661 27.34H20.9661V25.34H18.9661V27.34ZM20.5907 33.4764C21.6701 31.973 23.1204 30.8198 24.9992 30.0203L23.433 26.3397C20.9252 27.4068 18.8754 29.007 17.3414 31.1436L20.5907 33.4764ZM24.9853 30.0262C26.9395 29.2119 29.237 28.78 31.9161 28.78V24.78C28.8085 24.78 25.9727 25.2814 23.4469 26.3338L24.9853 30.0262ZM29.9161 26.78V36.86H33.9161V26.78H29.9161ZM32.0695 34.8659C30.867 34.7734 29.975 34.72 29.4661 34.72V38.72C29.7972 38.72 30.5386 38.7599 31.7627 38.8541L32.0695 34.8659ZM29.4661 34.72C25.9474 34.72 22.9379 35.7297 20.7019 37.9658L23.5303 40.7942C24.8409 39.4836 26.7315 38.72 29.4661 38.72V34.72ZM20.7209 37.9471C18.424 40.1835 17.4561 43.4072 17.4561 47.22H21.4561C21.4561 44.0328 22.2616 42.0298 23.5113 40.8129L20.7209 37.9471ZM17.4561 47.22V65H21.4561V47.22H17.4561ZM19.4561 63H8.53609V67H19.4561V63ZM10.5361 65V27.34H6.53609V65H10.5361ZM8.53609 29.34H18.9661V25.34H8.53609V29.34ZM16.9661 27.34V32.31H20.9661V27.34H16.9661ZM77.088 27.34L78.9283 28.1232L80.1127 25.34H77.088V27.34ZM60.078 67.31L58.2377 66.5268L58.2284 66.5486L58.2196 66.5707L60.078 67.31ZM53.638 76.48L52.5011 74.8345L52.494 74.8394L52.487 74.8444L53.638 76.48ZM38.658 78.23L39.2625 76.3235L38.658 78.23ZM33.968 75.71L32.1888 74.7964L31.4791 76.1785L32.6428 77.208L33.968 75.71ZM37.958 67.94L39.2867 66.4452L37.3578 64.7306L36.1788 67.0264L37.958 67.94ZM40.828 69.69L40.0992 71.5525L40.1124 71.5577L40.1257 71.5627L40.828 69.69ZM47.758 69.2L46.558 67.6L46.533 67.6187L46.5086 67.6383L47.758 69.2ZM50.278 65.63L52.1056 66.4423L52.1209 66.4078L52.1349 66.3728L50.278 65.63ZM50.418 65.28L52.2749 66.0228L52.5831 65.2524L52.2554 64.4901L50.418 65.28ZM34.108 27.34V25.34H31.0712L32.2706 28.1299L34.108 27.34ZM45.378 27.34L47.2261 26.5754L46.715 25.34H45.378V27.34ZM55.948 52.89L54.0999 53.6546L55.9419 58.1071L57.7943 53.6589L55.948 52.89ZM66.588 27.34V25.34H65.2544L64.7417 26.5711L66.588 27.34ZM75.2477 26.5568L58.2377 66.5268L61.9183 68.0932L78.9283 28.1232L75.2477 26.5568ZM58.2196 66.5707C56.5707 70.7152 54.6191 73.3712 52.5011 74.8345L54.7748 78.1255C57.7902 76.0421 60.1319 72.5848 61.9363 68.0493L58.2196 66.5707ZM52.487 74.8444C50.3573 76.343 47.7198 77.14 44.468 77.14V81.14C48.4028 81.14 51.8786 80.1636 54.789 78.1156L52.487 74.8444ZM44.468 77.14C42.718 77.14 40.985 76.8697 39.2625 76.3235L38.0535 80.1365C40.1576 80.8036 42.2979 81.14 44.468 81.14V77.14ZM39.2625 76.3235C37.5534 75.7816 36.2537 75.0618 35.2931 74.212L32.6428 77.208C34.1089 78.5049 35.9359 79.465 38.0535 80.1365L39.2625 76.3235ZM35.7471 76.6236L39.7371 68.8536L36.1788 67.0264L32.1888 74.7964L35.7471 76.6236ZM36.6292 69.4348C37.6505 70.3426 38.8114 71.0486 40.0992 71.5525L41.5568 67.8275C40.6978 67.4914 39.9455 67.0308 39.2867 66.4452L36.6292 69.4348ZM40.1257 71.5627C41.4447 72.0573 42.7789 72.32 44.118 72.32V68.32C43.3103 68.32 42.4512 68.1627 41.5302 67.8173L40.1257 71.5627ZM44.118 72.32C45.9495 72.32 47.6384 71.8569 49.0074 70.7617L46.5086 67.6383C46.0109 68.0364 45.2731 68.32 44.118 68.32V72.32ZM48.958 70.8C50.278 69.81 51.2926 68.2716 52.1056 66.4423L48.4503 64.8177C47.77 66.3484 47.1046 67.19 46.558 67.6L48.958 70.8ZM52.1349 66.3728L52.2749 66.0228L48.561 64.5372L48.421 64.8872L52.1349 66.3728ZM52.2554 64.4901L35.9454 26.5501L32.2706 28.1299L48.5806 66.0699L52.2554 64.4901ZM34.108 29.34H45.378V25.34H34.108V29.34ZM43.5299 28.1046L54.0999 53.6546L57.7961 52.1254L47.2261 26.5754L43.5299 28.1046ZM57.7943 53.6589L68.4343 28.1089L64.7417 26.5711L54.1017 52.1211L57.7943 53.6589ZM66.588 29.34H77.088V25.34H66.588V29.34Z" fill="black"/>
</svg>
