<svg width="230" height="300" viewBox="0 0 230 300" fill="none" xmlns="http://www.w3.org/2000/svg">
<g clip-path="url(#clip0)">
<path d="M86.1307 57.9364L126.004 57.9364L154.198 86.1307L154.198 126.004L126.004 154.198L86.1307 154.198L57.9364 126.004L57.9364 86.1307L86.1307 57.9364Z" fill="#FF9A3D"/>
<rect x="38" y="146" width="114" height="164" fill="#FF9A3D"/>
<ellipse rx="39" ry="39.5" transform="matrix(1 0 0 -1 115 124.5)" fill="#222222"/>
<circle r="26.5" transform="matrix(1 0 0 -1 174.5 192.5)" fill="#FF9A3D"/>
<circle r="11" transform="matrix(1 0 0 -1 148 193)" fill="#222222"/>
<circle r="11" transform="matrix(1 0 0 -1 176 166)" fill="#222222"/>
<circle r="6" transform="matrix(1 0 0 -1 176 233)" fill="#FF9A3D"/>
<rect x="152" y="247" width="48" height="53" fill="#7CC0FF"/>
<rect x="152" y="270" width="48" height="30" fill="#FF9A3D"/>
</g>
<defs>
<clipPath id="clip0">
<rect width="230" height="300" fill="white"/>
</clipPath>
</defs>
</svg>
