<svg width="32" height="32" viewBox="0 0 32 32" fill="none" xmlns="http://www.w3.org/2000/svg">
<path fill-rule="evenodd" clip-rule="evenodd" d="M11.2377 8.14202C10.9883 7.9676 10.6607 7.95266 10.3964 8.10367C10.1322 8.25467 9.97872 8.54454 10.0024 8.84796L11.2058 24.2744C11.2302 24.5874 11.4384 24.8559 11.7355 24.9576C12.0325 25.0592 12.3616 24.9745 12.5727 24.7421L17.2813 19.5562L23.4623 18.3145C23.7711 18.2525 24.0131 18.0123 24.0775 17.7041C24.1419 17.3958 24.0163 17.0788 23.7583 16.8984L11.2377 8.14202Z" fill="white"/>
<path d="M10.3964 8.10367L10.6445 8.53778L10.6445 8.53778L10.3964 8.10367ZM11.2377 8.14202L10.9511 8.55176L10.9511 8.55176L11.2377 8.14202ZM10.0024 8.84796L10.5009 8.80907L10.0024 8.84796ZM11.2058 24.2744L10.7073 24.3133L10.7073 24.3133L11.2058 24.2744ZM11.7355 24.9576L11.5736 25.4307L11.5736 25.4307L11.7355 24.9576ZM12.5727 24.7421L12.9428 25.0782L12.9428 25.0782L12.5727 24.7421ZM17.2813 19.5562L17.1828 19.066C17.0781 19.0871 16.9829 19.1411 16.9111 19.2201L17.2813 19.5562ZM23.4623 18.3145L23.5608 18.8047L23.5608 18.8047L23.4623 18.3145ZM24.0775 17.7041L23.5881 17.6018L23.5881 17.6018L24.0775 17.7041ZM23.7583 16.8984L23.4717 17.3081L23.4717 17.3081L23.7583 16.8984ZM10.6445 8.53778C10.7408 8.48274 10.8602 8.48819 10.9511 8.55176L11.5242 7.73228C11.1163 7.44701 10.5805 7.42258 10.1483 7.66955L10.6445 8.53778ZM10.5009 8.80907C10.4923 8.69848 10.5482 8.59282 10.6445 8.53778L10.1483 7.66955C9.71616 7.91653 9.4652 8.39059 9.50391 8.88685L10.5009 8.80907ZM11.7043 24.2355L10.5009 8.80907L9.50391 8.88685L10.7073 24.3133L11.7043 24.2355ZM11.8973 24.4845C11.7891 24.4475 11.7132 24.3496 11.7043 24.2355L10.7073 24.3133C10.7472 24.8252 11.0877 25.2644 11.5736 25.4307L11.8973 24.4845ZM12.2025 24.406C12.1256 24.4907 12.0056 24.5216 11.8973 24.4845L11.5736 25.4307C12.0595 25.5969 12.5976 25.4584 12.9428 25.0782L12.2025 24.406ZM16.9111 19.2201L12.2025 24.406L12.9428 25.0782L17.6515 19.8924L16.9111 19.2201ZM23.3639 17.8243L17.1828 19.066L17.3798 20.0465L23.5608 18.8047L23.3639 17.8243ZM23.5881 17.6018C23.5646 17.7141 23.4764 17.8017 23.3639 17.8243L23.5608 18.8047C24.0658 18.7032 24.4616 18.3105 24.5669 17.8063L23.5881 17.6018ZM23.4717 17.3081C23.5658 17.3739 23.6116 17.4894 23.5881 17.6018L24.5669 17.8063C24.6723 17.3022 24.4669 16.7838 24.0448 16.4886L23.4717 17.3081ZM10.9511 8.55176L23.4717 17.3081L24.0448 16.4886L11.5242 7.73228L10.9511 8.55176Z" fill="black"/>
</svg>
