<svg width="80" height="80" viewBox="0 0 80 80" fill="none" xmlns="http://www.w3.org/2000/svg">
<path d="M47.8889 59L40.8689 48.86H40.4529H33.1209V59H24.6969V22.6H40.4529C43.6769 22.6 46.4675 23.1373 48.8249 24.212C51.2169 25.2867 53.0542 26.812 54.3369 28.788C55.6195 30.764 56.2609 33.104 56.2609 35.808C56.2609 38.512 55.6022 40.852 54.2849 42.828C53.0022 44.7693 51.1649 46.26 48.7729 47.3L56.9369 59H47.8889ZM47.7329 35.808C47.7329 33.7627 47.0742 32.2027 45.7569 31.128C44.4395 30.0187 42.5155 29.464 39.9849 29.464H33.1209V42.152H39.9849C42.5155 42.152 44.4395 41.5973 45.7569 40.488C47.0742 39.3787 47.7329 37.8187 47.7329 35.808Z" fill="#FF4329"/>
</svg>
