<svg width="80" height="80" viewBox="0 0 80 80" fill="none" xmlns="http://www.w3.org/2000/svg">
<path d="M52.4059 69L41.6059 53.4H40.9659H29.6859V69H16.7259V13H40.9659C45.9259 13 50.2193 13.8267 53.8459 15.48C57.5259 17.1333 60.3526 19.48 62.3259 22.52C64.2993 25.56 65.2859 29.16 65.2859 33.32C65.2859 37.48 64.2726 41.08 62.2459 44.12C60.2726 47.1067 57.4459 49.4 53.7659 51L66.3259 69H52.4059ZM52.1659 33.32C52.1659 30.1733 51.1526 27.7733 49.1259 26.12C47.0993 24.4133 44.1393 23.56 40.2459 23.56H29.6859V43.08H40.2459C44.1393 43.08 47.0993 42.2267 49.1259 40.52C51.1526 38.8133 52.1659 36.4133 52.1659 33.32Z" fill="#FF4329"/>
<path d="M52.4059 69L50.7616 70.1384L51.358 71H52.4059V69ZM41.6059 53.4L43.2503 52.2616L42.6538 51.4H41.6059V53.4ZM29.6859 53.4V51.4H27.6859V53.4H29.6859ZM29.6859 69V71H31.6859V69H29.6859ZM16.7259 69H14.7259V71H16.7259V69ZM16.7259 13V11H14.7259V13H16.7259ZM53.8459 15.48L53.0163 17.2998L53.0263 17.3043L53.8459 15.48ZM62.2459 44.12L60.5818 43.0106L60.5773 43.0175L62.2459 44.12ZM53.7659 51L52.9685 49.1659L50.7273 50.1403L52.1258 52.1445L53.7659 51ZM66.3259 69V71H70.1603L67.9661 67.8555L66.3259 69ZM49.1259 26.12L47.8377 27.6498L47.8496 27.6599L47.8617 27.6697L49.1259 26.12ZM29.6859 23.56V21.56H27.6859V23.56H29.6859ZM29.6859 43.08H27.6859V45.08H29.6859V43.08ZM49.1259 40.52L50.4142 42.0498L50.4142 42.0498L49.1259 40.52ZM54.0503 67.8616L43.2503 52.2616L39.9616 54.5384L50.7616 70.1384L54.0503 67.8616ZM41.6059 51.4H40.9659V55.4H41.6059V51.4ZM40.9659 51.4H29.6859V55.4H40.9659V51.4ZM27.6859 53.4V69H31.6859V53.4H27.6859ZM29.6859 67H16.7259V71H29.6859V67ZM18.7259 69V13H14.7259V69H18.7259ZM16.7259 15H40.9659V11H16.7259V15ZM40.9659 15C45.7077 15 49.7056 15.7905 53.0163 17.2998L54.6756 13.6602C50.7329 11.8628 46.1441 11 40.9659 11V15ZM53.0263 17.3043C56.3966 18.8185 58.9076 20.9272 60.6484 23.6089L64.0035 21.4311C61.7976 18.0328 58.6552 15.4481 54.6656 13.6557L53.0263 17.3043ZM60.6484 23.6089C62.3815 26.2789 63.2859 29.4879 63.2859 33.32H67.2859C67.2859 28.8321 66.2171 24.8411 64.0035 21.4311L60.6484 23.6089ZM63.2859 33.32C63.2859 37.1416 62.3601 40.3431 60.5818 43.0106L63.91 45.2294C66.1851 41.8169 67.2859 37.8184 67.2859 33.32H63.2859ZM60.5773 43.0175C58.8426 45.6429 56.3378 47.701 52.9685 49.1659L54.5634 52.8341C58.5541 51.099 61.7026 48.5704 63.9146 45.2225L60.5773 43.0175ZM52.1258 52.1445L64.6858 70.1445L67.9661 67.8555L55.4061 49.8555L52.1258 52.1445ZM66.3259 67H52.4059V71H66.3259V67ZM54.1659 33.32C54.1659 29.7075 52.9779 26.6813 50.3902 24.5703L47.8617 27.6697C49.3274 28.8654 50.1659 30.6392 50.1659 33.32H54.1659ZM50.4142 24.5902C47.8909 22.4653 44.3956 21.56 40.2459 21.56V25.56C43.883 25.56 46.3076 26.3614 47.8377 27.6498L50.4142 24.5902ZM40.2459 21.56H29.6859V25.56H40.2459V21.56ZM27.6859 23.56V43.08H31.6859V23.56H27.6859ZM29.6859 45.08H40.2459V41.08H29.6859V45.08ZM40.2459 45.08C44.3956 45.08 47.8909 44.1747 50.4142 42.0498L47.8377 38.9902C46.3076 40.2786 43.883 41.08 40.2459 41.08V45.08ZM50.4142 42.0498C52.9698 39.8977 54.1659 36.8935 54.1659 33.32H50.1659C50.1659 35.9331 49.3354 37.729 47.8377 38.9902L50.4142 42.0498Z" fill="black"/>
</svg>
