<svg width="80" height="80" viewBox="0 0 80 80" fill="none" xmlns="http://www.w3.org/2000/svg">
<mask id="path-1-inside-1" fill="white">
<path fill-rule="evenodd" clip-rule="evenodd" d="M58.4996 12H21.5004L9.56519 29.0435L40 68L70.4348 29.0435L58.4996 12Z"/>
</mask>
<path d="M21.5004 12V5H17.8566L15.7665 7.98469L21.5004 12ZM58.4996 12L64.2334 7.98469L62.1433 5H58.4996V12ZM9.56519 29.0435L3.83132 25.0282L0.860058 29.2711L4.04902 33.353L9.56519 29.0435ZM40 68L34.4838 72.3095L40 79.3702L45.5161 72.3095L40 68ZM70.4348 29.0435L75.9509 33.353L79.1399 29.2711L76.1686 25.0282L70.4348 29.0435ZM21.5004 19H58.4996V5H21.5004V19ZM15.2991 33.0588L27.2343 16.0153L15.7665 7.98469L3.83132 25.0282L15.2991 33.0588ZM45.5161 63.6905L15.0814 24.734L4.04902 33.353L34.4838 72.3095L45.5161 63.6905ZM64.9186 24.734L34.4838 63.6905L45.5161 72.3095L75.9509 33.353L64.9186 24.734ZM52.7657 16.0153L64.7009 33.0588L76.1686 25.0282L64.2334 7.98469L52.7657 16.0153Z" fill="#FF4329" mask="url(#path-1-inside-1)"/>
</svg>
