<svg width="80" height="80" viewBox="0 0 80 80" fill="none" xmlns="http://www.w3.org/2000/svg">
<mask id="path-2-inside-1" fill="white">
<path fill-rule="evenodd" clip-rule="evenodd" d="M49.0488 11H11V69H69V30.9756L49.0366 11.0122L49.0488 11Z"/>
</mask>
<path d="M11 11V10H10V11H11ZM49.0488 11L49.7559 11.7071L51.4632 10H49.0488V11ZM11 69H10V70H11V69ZM69 69V70H70V69H69ZM69 30.9756H70V30.5614L69.7071 30.2685L69 30.9756ZM49.0366 11.0122L48.3295 10.3051L47.6224 11.0122L48.3295 11.7193L49.0366 11.0122ZM11 12H49.0488V10H11V12ZM12 69V11H10V69H12ZM69 68H11V70H69V68ZM68 30.9756V69H70V30.9756H68ZM69.7071 30.2685L49.7437 10.3051L48.3295 11.7193L68.2929 31.6827L69.7071 30.2685ZM49.7437 11.7194L49.7559 11.7071L48.3417 10.2929L48.3295 10.3051L49.7437 11.7194Z" fill="#FF4329" mask="url(#path-2-inside-1)"/>
</svg>
