<svg width="80" height="80" viewBox="0 0 80 80" fill="none" xmlns="http://www.w3.org/2000/svg">
<mask id="path-2-inside-1" fill="white">
<path fill-rule="evenodd" clip-rule="evenodd" d="M49.0488 11H11V69H69V30.9756L49.0366 11.0122L49.0488 11Z"/>
</mask>
<path d="M11 11V-3H-3V11H11ZM49.0488 11L58.948 20.8998L82.8495 -3L49.0488 -3V11ZM11 69H-3V83H11V69ZM69 69V83H83V69H69ZM69 30.9756H83V25.1766L78.8995 21.0761L69 30.9756ZM49.0366 11.0122L39.1375 1.11238L29.2373 11.0119L39.1371 20.9117L49.0366 11.0122ZM11 25H49.0488V-3H11V25ZM25 69V11H-3V69H25ZM69 55H11V83H69V55ZM55 30.9756V69H83V30.9756H55ZM78.8995 21.0761L58.9361 1.11273L39.1371 20.9117L59.1005 40.8751L78.8995 21.0761ZM58.9358 20.9121L58.948 20.8998L39.1497 1.10016L39.1375 1.11238L58.9358 20.9121Z" fill="#FF4329" mask="url(#path-2-inside-1)"/>
</svg>
