<svg width="80" height="80" viewBox="0 0 80 80" fill="none" xmlns="http://www.w3.org/2000/svg">
<rect x="75" y="30" width="20" height="20" transform="rotate(90 75 30)" stroke="#222222" stroke-width="10"/>
<path fill-rule="evenodd" clip-rule="evenodd" d="M68.0779 55C62.8963 64.1084 53.1027 70.2513 41.8743 70.2513C25.2364 70.2513 11.7487 56.7636 11.7487 40.1257C11.7487 23.4877 25.2364 10 41.8743 10C52.9991 10 62.7155 16.0301 67.9333 25H71.3529C65.8575 14.3116 54.7198 7 41.8743 7C23.5795 7 8.74866 21.8309 8.74866 40.1257C8.74865 58.4205 23.5795 73.2513 41.8743 73.2513C54.8202 73.2513 66.0316 65.825 71.4808 55H68.0779Z" fill="#222222"/>
</svg>
