<svg width="80" height="80" viewBox="0 0 80 80" fill="none" xmlns="http://www.w3.org/2000/svg">
<path d="M52 62.9843C52 56.3604 46.6286 50.9886 40 50.9886C33.3714 50.9886 28 56.3604 28 62.9843C28 69.6082 33.3714 74.9801 40 74.9801C46.6286 74.9801 52 69.6082 52 62.9843Z" stroke="#222222" stroke-width="10"/>
<rect x="30" y="5" width="20" height="19.9925" stroke="#222222" stroke-width="10"/>
<path fill-rule="evenodd" clip-rule="evenodd" d="M4.12158 40.3783L25 19.5051V23.7472L6.24317 42.4994L23.3389 59.5909C23.1167 60.6874 23 61.8222 23 62.9843C23 63.1575 23.0026 63.33 23.0077 63.5019L4.12158 44.6204L2 42.4994L4.12158 40.3783ZM39.4823 79.9724L39.5099 80L39.5361 79.9739C39.5181 79.9734 39.5002 79.9729 39.4823 79.9724ZM56.9938 62.5205L74.8983 44.6204L77.0199 42.4994L74.8983 40.3783L55 20.485V24.7271L72.7767 42.4994L56.4791 58.7929C56.7828 59.9899 56.9594 61.2375 56.9938 62.5205Z" fill="#222222"/>
</svg>
