<svg width="81" height="80" viewBox="0 0 81 80" fill="none" xmlns="http://www.w3.org/2000/svg">
<path d="M28.5617 26.78C32.0617 26.78 35.2351 27.5967 38.0817 29.23C40.9751 30.8167 43.2384 33.08 44.8717 36.02C46.5051 38.9133 47.3217 42.2967 47.3217 46.17C47.3217 50.0433 46.5051 53.45 44.8717 56.39C43.2384 59.2833 40.9751 61.5467 38.0817 63.18C35.2351 64.7667 32.0617 65.56 28.5617 65.56C23.3817 65.56 19.4384 63.9267 16.7317 60.66V65H6.30172V13.06H17.2217V31.33C19.9751 28.2967 23.7551 26.78 28.5617 26.78ZM26.6717 56.6C29.4717 56.6 31.7584 55.6667 33.5317 53.8C35.3517 51.8867 36.2617 49.3433 36.2617 46.17C36.2617 42.9967 35.3517 40.4767 33.5317 38.61C31.7584 36.6967 29.4717 35.74 26.6717 35.74C23.8717 35.74 21.5617 36.6967 19.7417 38.61C17.9684 40.4767 17.0817 42.9967 17.0817 46.17C17.0817 49.3433 17.9684 51.8867 19.7417 53.8C21.5617 55.6667 23.8717 56.6 26.6717 56.6ZM65.0618 32.31C66.3685 30.49 68.1185 29.1133 70.3118 28.18C72.5518 27.2467 75.1185 26.78 78.0118 26.78V36.86C76.7985 36.7667 75.9818 36.72 75.5618 36.72C72.4351 36.72 69.9851 37.6067 68.2118 39.38C66.4385 41.1067 65.5518 43.72 65.5518 47.22V65H54.6318V27.34H65.0618V32.31Z" fill="#883BEB"/>
<path d="M38.0817 29.23L37.0864 30.9647L37.1031 30.9743L37.1201 30.9836L38.0817 29.23ZM44.8717 36.02L43.1234 36.9913L43.1301 37.0032L44.8717 36.02ZM44.8717 56.39L46.6134 57.3732L46.62 57.3613L44.8717 56.39ZM38.0817 63.18L39.0555 64.927L39.0649 64.9216L38.0817 63.18ZM16.7317 60.66L18.2718 59.384L14.7317 55.1115V60.66H16.7317ZM16.7317 65V67H18.7317V65H16.7317ZM6.30172 65H4.30172V67H6.30172V65ZM6.30172 13.06V11.06H4.30172V13.06H6.30172ZM17.2217 13.06H19.2217V11.06H17.2217V13.06ZM17.2217 31.33H15.2217V36.5091L18.7026 32.6742L17.2217 31.33ZM33.5317 53.8L32.0826 52.4216L32.0817 52.4225L33.5317 53.8ZM33.5317 38.61L32.0649 39.9695L32.0821 39.9881L32.0997 40.0062L33.5317 38.61ZM19.7417 38.61L18.2926 37.2316L18.2917 37.2325L19.7417 38.61ZM19.7417 53.8L18.2749 55.1595L18.2921 55.1781L18.3097 55.1962L19.7417 53.8ZM28.5617 28.78C31.7365 28.78 34.5628 29.5168 37.0864 30.9647L39.0771 27.4953C35.9073 25.6765 32.3869 24.78 28.5617 24.78V28.78ZM37.1201 30.9836C39.676 32.3853 41.6695 34.3743 43.1234 36.9913L46.62 35.0487C44.8072 31.7857 42.2741 29.2481 39.0434 27.4764L37.1201 30.9836ZM43.1301 37.0032C44.5678 39.5501 45.3217 42.5836 45.3217 46.17H49.3217C49.3217 42.0097 48.4423 38.2766 46.6134 35.0368L43.1301 37.0032ZM45.3217 46.17C45.3217 49.7555 44.5681 52.8183 43.1234 55.4187L46.62 57.3613C48.442 54.0817 49.3217 50.3311 49.3217 46.17H45.3217ZM43.1301 55.4068C41.6758 57.983 39.6747 59.9841 37.0985 61.4384L39.0649 64.9216C42.2754 63.1093 44.801 60.5837 46.6134 57.3732L43.1301 55.4068ZM37.108 61.433C34.5809 62.8416 31.7469 63.56 28.5617 63.56V67.56C32.3766 67.56 35.8892 66.6918 39.0554 64.927L37.108 61.433ZM28.5617 63.56C23.8327 63.56 20.515 62.0913 18.2718 59.384L15.1917 61.936C18.3618 65.762 22.9307 67.56 28.5617 67.56V63.56ZM14.7317 60.66V65H18.7317V60.66H14.7317ZM16.7317 63H6.30172V67H16.7317V63ZM8.30172 65V13.06H4.30172V65H8.30172ZM6.30172 15.06H17.2217V11.06H6.30172V15.06ZM15.2217 13.06V31.33H19.2217V13.06H15.2217ZM18.7026 32.6742C21.0105 30.1317 24.212 28.78 28.5617 28.78V24.78C23.2981 24.78 18.9397 26.4616 15.7408 29.9858L18.7026 32.6742ZM26.6717 58.6C29.9666 58.6 32.7956 57.4787 34.9817 55.1775L32.0817 52.4225C30.7212 53.8546 28.9768 54.6 26.6717 54.6V58.6ZM34.9808 55.1784C37.2236 52.8207 38.2617 49.7466 38.2617 46.17H34.2617C34.2617 48.9401 33.4798 50.9527 32.0826 52.4216L34.9808 55.1784ZM38.2617 46.17C38.2617 42.5953 37.224 39.532 34.9637 37.2138L32.0997 40.0062C33.4794 41.4213 34.2617 43.3981 34.2617 46.17H38.2617ZM34.9986 37.2505C32.8168 34.8964 29.9828 33.74 26.6717 33.74V37.74C28.9606 37.74 30.7 38.4969 32.0649 39.9695L34.9986 37.2505ZM26.6717 33.74C23.3609 33.74 20.5149 34.8953 18.2926 37.2316L21.1908 39.9884C22.6086 38.498 24.3825 37.74 26.6717 37.74V33.74ZM18.2917 37.2325C16.0874 39.5529 15.0817 42.6095 15.0817 46.17H19.0817C19.0817 43.3839 19.8494 41.4005 21.1917 39.9875L18.2917 37.2325ZM15.0817 46.17C15.0817 49.7326 16.0879 52.8 18.2749 55.1595L21.2086 52.4405C19.8488 50.9734 19.0817 48.9541 19.0817 46.17H15.0817ZM18.3097 55.1962C20.536 57.4796 23.3768 58.6 26.6717 58.6V54.6C24.3666 54.6 22.5874 53.8538 21.1737 52.4038L18.3097 55.1962ZM65.0618 32.31H63.0618V38.525L66.6864 33.4764L65.0618 32.31ZM70.3118 28.18L69.5426 26.3338L69.5356 26.3367L69.5287 26.3397L70.3118 28.18ZM78.0118 26.78H80.0118V24.78H78.0118V26.78ZM78.0118 36.86L77.8584 38.8541L80.0118 39.0198V36.86H78.0118ZM68.2118 39.38L69.607 40.8129L69.6166 40.8036L69.626 40.7942L68.2118 39.38ZM65.5518 65V67H67.5518V65H65.5518ZM54.6318 65H52.6318V67H54.6318V65ZM54.6318 27.34V25.34H52.6318V27.34H54.6318ZM65.0618 27.34H67.0618V25.34H65.0618V27.34ZM66.6864 33.4764C67.7658 31.973 69.2161 30.8198 71.0949 30.0203L69.5287 26.3397C67.0209 27.4068 64.9711 29.007 63.4371 31.1436L66.6864 33.4764ZM71.081 30.0262C73.0352 29.2119 75.3327 28.78 78.0118 28.78V24.78C74.9042 24.78 72.0684 25.2814 69.5426 26.3338L71.081 30.0262ZM76.0118 26.78V36.86H80.0118V26.78H76.0118ZM78.1652 34.8659C76.9627 34.7734 76.0707 34.72 75.5618 34.72V38.72C75.8929 38.72 76.6343 38.7599 77.8584 38.8541L78.1652 34.8659ZM75.5618 34.72C72.0431 34.72 69.0336 35.7297 66.7976 37.9658L69.626 40.7942C70.9366 39.4836 72.8272 38.72 75.5618 38.72V34.72ZM66.8166 37.9471C64.5197 40.1835 63.5518 43.4072 63.5518 47.22H67.5518C67.5518 44.0328 68.3573 42.0298 69.607 40.8129L66.8166 37.9471ZM63.5518 47.22V65H67.5518V47.22H63.5518ZM65.5518 63H54.6318V67H65.5518V63ZM56.6318 65V27.34H52.6318V65H56.6318ZM54.6318 29.34H65.0618V25.34H54.6318V29.34ZM63.0618 27.34V32.31H67.0618V27.34H63.0618Z" fill="black"/>
</svg>
