<svg width="230" height="300" viewBox="0 0 230 300" fill="none" xmlns="http://www.w3.org/2000/svg">
<g clip-path="url(#clip0)">
<rect x="58" y="146" width="114" height="194" fill="#883BEB"/>
<rect x="114" y="51" width="65.761" height="65.761" transform="rotate(45 114 51)" fill="#883BEB"/>
<circle r="21.5" transform="matrix(1 0 0 -1 114.5 208.5)" fill="#47E24D"/>
<circle r="11" transform="matrix(1 0 0 -1 85 209)" fill="#222222"/>
<circle r="11" transform="matrix(1 0 0 -1 144 209)" fill="#222222"/>
<ellipse rx="39" ry="39.5" transform="matrix(1 0 0 -1 115 124.5)" fill="#222222"/>
<path d="M101.823 129.626L128.185 129.626L146.826 148.267L146.826 174.63L128.185 193.271L101.823 193.271L83.1813 174.63L83.1813 148.267L101.823 129.626Z" fill="white"/>
</g>
<defs>
<clipPath id="clip0">
<rect width="230" height="300" fill="white"/>
</clipPath>
</defs>
</svg>
