<svg id="Layer_1" data-name="Layer 1" xmlns="http://www.w3.org/2000/svg" viewBox="0 0 466.45 100.94"><defs><style>.cls-1{fill:#883beb;}</style></defs><polygon class="cls-1" points="127.62 15.24 133.27 26.83 146.03 28.62 136.76 37.57 139 50.26 127.62 44.2 116.25 50.26 118.49 37.57 109.22 28.62 121.98 26.83 127.62 15.24"/><polygon class="cls-1" points="388.42 41.77 394.06 53.35 406.82 55.14 397.55 64.09 399.79 76.78 388.42 70.73 377.04 76.78 379.28 64.09 370.01 55.14 382.77 53.35 388.42 41.77"/><polygon class="cls-1" points="320.45 32.75 324.18 40.41 332.61 41.59 326.48 47.5 327.97 55.89 320.45 51.89 312.93 55.89 314.41 47.5 308.28 41.59 316.71 40.41 320.45 32.75"/><polygon class="cls-1" points="358.46 11.31 363.01 20.65 373.3 22.09 365.83 29.3 367.63 39.53 358.46 34.65 349.29 39.53 351.1 29.3 343.63 22.09 353.91 20.65 358.46 11.31"/><polygon class="cls-1" points="90.81 50.26 94.54 57.91 102.98 59.09 96.85 65.01 98.33 73.4 90.81 69.4 83.29 73.4 84.77 65.01 78.64 59.09 87.08 57.91 90.81 50.26"/><polygon class="cls-1" points="63.47 21.18 67.2 28.84 75.63 30.02 69.51 35.93 70.99 44.32 63.47 40.32 55.95 44.32 57.43 35.93 51.3 30.02 59.74 28.84 63.47 21.18"/></svg>