<svg width="96" height="80" viewBox="0 0 96 80" fill="none" xmlns="http://www.w3.org/2000/svg">
<path d="M92.7566 13L74.4366 69H60.5166L48.1966 31.08L35.4766 69H21.6366L3.23656 13H16.6766L29.3166 52.36L42.5166 13H54.5166L67.3166 52.68L80.3566 13H92.7566Z" fill="white"/>
<path d="M92.7566 13L94.6574 13.6219L95.5152 11H92.7566V13ZM74.4366 69V71H75.8866L76.3374 69.6219L74.4366 69ZM60.5166 69L58.6144 69.618L59.0634 71H60.5166V69ZM48.1966 31.08L50.0987 30.462L48.2269 24.7008L46.3004 30.4439L48.1966 31.08ZM35.4766 69V71H36.9152L37.3727 69.6361L35.4766 69ZM21.6366 69L19.7365 69.6243L20.1885 71H21.6366V69ZM3.23656 13V11H0.474227L1.3365 13.6243L3.23656 13ZM16.6766 13L18.5808 12.3885L18.1349 11H16.6766V13ZM29.3166 52.36L27.4123 52.9715L29.2754 58.7729L31.2128 52.9959L29.3166 52.36ZM42.5166 13V11H41.0778L40.6204 12.3641L42.5166 13ZM54.5166 13L56.42 12.386L55.9729 11H54.5166V13ZM67.3166 52.68L65.4131 53.294L67.2989 59.1398L69.2166 53.3044L67.3166 52.68ZM80.3566 13V11H78.9086L78.4565 12.3756L80.3566 13ZM90.8557 12.3781L72.5357 68.3781L76.3374 69.6219L94.6574 13.6219L90.8557 12.3781ZM74.4366 67H60.5166V71H74.4366V67ZM62.4187 68.382L50.0987 30.462L46.2944 31.698L58.6144 69.618L62.4187 68.382ZM46.3004 30.4439L33.5804 68.3639L37.3727 69.6361L50.0927 31.7161L46.3004 30.4439ZM35.4766 67H21.6366V71H35.4766V67ZM23.5366 68.3757L5.13663 12.3757L1.3365 13.6243L19.7365 69.6243L23.5366 68.3757ZM3.23656 15H16.6766V11H3.23656V15ZM14.7723 13.6115L27.4123 52.9715L31.2208 51.7485L18.5808 12.3885L14.7723 13.6115ZM31.2128 52.9959L44.4128 13.6359L40.6204 12.3641L27.4204 51.7241L31.2128 52.9959ZM42.5166 15H54.5166V11H42.5166V15ZM52.6131 13.614L65.4131 53.294L69.22 52.066L56.42 12.386L52.6131 13.614ZM69.2166 53.3044L82.2566 13.6244L78.4565 12.3756L65.4165 52.0556L69.2166 53.3044ZM80.3566 15H92.7566V11H80.3566V15Z" fill="black"/>
</svg>
