<svg width="80" height="80" viewBox="0 0 80 80" fill="none" xmlns="http://www.w3.org/2000/svg">
<path d="M69.5918 22.6L57.6838 59H48.6358L40.6278 34.352L32.3598 59H23.3638L11.4038 22.6H20.1398L28.3558 48.184L36.9358 22.6H44.7358L53.0558 48.392L61.5318 22.6H69.5918Z" fill="white"/>
<path d="M69.5918 22.6L70.067 22.7555L70.2814 22.1H69.5918V22.6ZM57.6838 59V59.5H58.0463L58.159 59.1555L57.6838 59ZM48.6358 59L48.1602 59.1545L48.2725 59.5H48.6358V59ZM40.6278 34.352L41.1033 34.1975L40.6354 32.7572L40.1537 34.193L40.6278 34.352ZM32.3598 59V59.5H32.7194L32.8338 59.159L32.3598 59ZM23.3638 59L22.8887 59.1561L23.0018 59.5H23.3638V59ZM11.4038 22.6V22.1H10.7132L10.9287 22.7561L11.4038 22.6ZM20.1398 22.6L20.6158 22.4471L20.5043 22.1H20.1398V22.6ZM28.3558 48.184L27.8797 48.3369L28.3455 49.7872L28.8298 48.343L28.3558 48.184ZM36.9358 22.6V22.1H36.5761L36.4617 22.441L36.9358 22.6ZM44.7358 22.6L45.2116 22.4465L45.0998 22.1H44.7358V22.6ZM53.0558 48.392L52.5799 48.5455L53.0514 50.007L53.5308 48.5481L53.0558 48.392ZM61.5318 22.6V22.1H61.1698L61.0568 22.4439L61.5318 22.6ZM69.1166 22.4445L57.2086 58.8445L58.159 59.1555L70.067 22.7555L69.1166 22.4445ZM57.6838 58.5H48.6358V59.5H57.6838V58.5ZM49.1113 58.8455L41.1033 34.1975L40.1522 34.5065L48.1602 59.1545L49.1113 58.8455ZM40.1537 34.193L31.8857 58.841L32.8338 59.159L41.1018 34.511L40.1537 34.193ZM32.3598 58.5H23.3638V59.5H32.3598V58.5ZM23.8388 58.8439L11.8788 22.4439L10.9287 22.7561L22.8887 59.1561L23.8388 58.8439ZM11.4038 23.1H20.1398V22.1H11.4038V23.1ZM19.6637 22.7529L27.8797 48.3369L28.8318 48.0311L20.6158 22.4471L19.6637 22.7529ZM28.8298 48.343L37.4098 22.759L36.4617 22.441L27.8817 48.025L28.8298 48.343ZM36.9358 23.1H44.7358V22.1H36.9358V23.1ZM44.2599 22.7535L52.5799 48.5455L53.5316 48.2385L45.2116 22.4465L44.2599 22.7535ZM53.5308 48.5481L62.0068 22.7561L61.0568 22.4439L52.5808 48.2359L53.5308 48.5481ZM61.5318 23.1H69.5918V22.1H61.5318V23.1Z" fill="black"/>
</svg>
