<svg width="80" height="80" viewBox="0 0 80 80" fill="none" xmlns="http://www.w3.org/2000/svg">
<mask id="path-1-inside-1" fill="white">
<path fill-rule="evenodd" clip-rule="evenodd" d="M25.3913 68L12 54.6087V25.3913L25.3913 12H54.6087L68 25.3913V54.6087L54.6087 68H25.3913Z"/>
</mask>
<path d="M25.3913 68L20.4416 72.9497L22.4918 75H25.3913V68ZM12 54.6087H5V57.5082L7.05025 59.5584L12 54.6087ZM12 25.3913L7.05025 20.4416L5 22.4918V25.3913H12ZM25.3913 12V5H22.4918L20.4416 7.05025L25.3913 12ZM54.6087 12L59.5584 7.05025L57.5082 5H54.6087V12ZM68 25.3913H75V22.4918L72.9497 20.4416L68 25.3913ZM68 54.6087L72.9497 59.5584L75 57.5082V54.6087H68ZM54.6087 68V75H57.5082L59.5584 72.9497L54.6087 68ZM30.3411 63.0503L16.9497 49.6589L7.05025 59.5584L20.4416 72.9497L30.3411 63.0503ZM19 54.6087V25.3913H5V54.6087H19ZM16.9497 30.3411L30.3411 16.9497L20.4416 7.05025L7.05025 20.4416L16.9497 30.3411ZM25.3913 19H54.6087V5H25.3913V19ZM49.6589 16.9497L63.0503 30.3411L72.9497 20.4416L59.5584 7.05025L49.6589 16.9497ZM61 25.3913V54.6087H75V25.3913H61ZM63.0503 49.6589L49.6589 63.0503L59.5584 72.9497L72.9497 59.5584L63.0503 49.6589ZM54.6087 61H25.3913V75H54.6087V61Z" fill="#FFD600" mask="url(#path-1-inside-1)"/>
</svg>
