<svg width="80" height="80" viewBox="0 0 80 80" fill="none" xmlns="http://www.w3.org/2000/svg">
<path d="M45.9888 49.16V69H33.0287V49L11.3487 13H25.1088L40.0688 37.88L55.0288 13H67.7488L45.9888 49.16Z" fill="#FFD600"/>
<path d="M45.9888 49.16L44.2751 48.1288L43.9888 48.6046V49.16H45.9888ZM45.9888 69V71H47.9888V69H45.9888ZM33.0287 69H31.0287V71H33.0287V69ZM33.0287 49H35.0287V48.4443L34.7421 47.9682L33.0287 49ZM11.3487 13V11H7.80964L9.63545 14.0318L11.3487 13ZM25.1088 13L26.8228 11.9694L26.2399 11H25.1088V13ZM40.0688 37.88L38.3547 38.9106L40.0688 41.7612L41.7828 38.9106L40.0688 37.88ZM55.0288 13V11H53.8976L53.3147 11.9694L55.0288 13ZM67.7488 13L69.4624 14.0312L71.2865 11H67.7488V13ZM43.9888 49.16V69H47.9888V49.16H43.9888ZM45.9888 67H33.0287V71H45.9888V67ZM35.0287 69V49H31.0287V69H35.0287ZM34.7421 47.9682L13.0621 11.9682L9.63545 14.0318L31.3154 50.0318L34.7421 47.9682ZM11.3487 15H25.1088V11H11.3487V15ZM23.3947 14.0306L38.3547 38.9106L41.7828 36.8494L26.8228 11.9694L23.3947 14.0306ZM41.7828 38.9106L56.7428 14.0306L53.3147 11.9694L38.3547 36.8494L41.7828 38.9106ZM55.0288 15H67.7488V11H55.0288V15ZM66.0351 11.9688L44.2751 48.1288L47.7024 50.1912L69.4624 14.0312L66.0351 11.9688Z" fill="black"/>
</svg>
